*
*
G04 PADS Layout (Build Number 2007.42.1) generated Gerber (RS-274-X) file*
G04 PC Version=2.1*
*
%IN "MB913-0127-e.pcb"*%
*
%MOIN*%
*
%FSLAX35Y35*%
*
*
*
*
G04 PC Standard Apertures*
*
*
G04 Thermal Relief Aperture macro.*
%AMTER*
1,1,$1,0,0*
1,0,$1-$2,0,0*
21,0,$3,$4,0,0,45*
21,0,$3,$4,0,0,135*
%
*
*
G04 Annular Aperture macro.*
%AMANN*
1,1,$1,0,0*
1,0,$2,0,0*
%
*
*
G04 Odd Aperture macro.*
%AMODD*
1,1,$1,0,0*
1,0,$1-0.005,0,0*
%
*
*
G04 PC Custom Aperture Macros*
*
*
*
*
*
*
G04 PC Aperture Table*
*
%ADD011C,0.01*%
%ADD067C,0.01394*%
%ADD068R,0.06694X0.06694*%
%ADD069C,0.06694*%
%ADD070R,0.06394X0.06394*%
%ADD071C,0.06394*%
%ADD077C,0.04331*%
%ADD078C,0.08268*%
%ADD089R,0.07394X0.07394*%
%ADD090C,0.07394*%
%ADD091C,0.0748*%
%ADD092C,0.02016*%
*
*
*
*
G04 PC Copper Outlines (0)*
G04 Layer Name MB913-0127-e.pcb - dark (0)*
%LPD*%
*
*
G04 PC Area=_PSI_PAC_JUMPER_000_P162000000M*
G75*
G36*
G01*
X2047279Y1805442D02*
X2049248Y1803473D01*
G02*
X2049306Y1803334I-139J-139D01*
G01*
Y1800184D01*
G02*
X2049109Y1799987I-197J0D01*
G01*
X2045172D01*
G02*
X2044975Y1800184I-0J197D01*
G01*
Y1803334D01*
G02*
X2045032Y1803473I197J-0D01*
G01*
X2047001Y1805442D01*
G02*
X2047279I139J-140D01*
G37*
G74*
*
*
G04 PC Copper Outlines (1)*
G04 Layer Name MB913-0127-e.pcb - dark (1)*
%LPD*%
*
*
G04 PC Area=_PSI_PAC_JUMPER_001_P162000000M*
G75*
G36*
G01*
X2049109Y1809830D02*
G02*
X2049306Y1809633I-0J-197D01*
G01*
Y1804318D01*
G02*
X2048969Y1804179I-197J0D01*
G01*
X2047140Y1806008D01*
X2045311Y1804179D01*
G02*
X2044975Y1804318I-139J139D01*
G01*
Y1809633D01*
G02*
X2045172Y1809830I197J0D01*
G01*
X2049109D01*
G37*
G74*
*
*
G04 PC Copper Outlines (2)*
G04 Layer Name MB913-0127-e.pcb - dark (2)*
%LPD*%
*
*
G04 PC Area=_PSI_PAC_JUMPER_000_P162000000M*
G75*
G36*
G01*
X2053279Y1805442D02*
X2055248Y1803473D01*
G02*
X2055306Y1803334I-139J-139D01*
G01*
Y1800184D01*
G02*
X2055109Y1799987I-197J0D01*
G01*
X2051172D01*
G02*
X2050975Y1800184I-0J197D01*
G01*
Y1803334D01*
G02*
X2051032Y1803473I197J-0D01*
G01*
X2053001Y1805442D01*
G02*
X2053279I139J-140D01*
G37*
G74*
*
*
G04 PC Copper Outlines (3)*
G04 Layer Name MB913-0127-e.pcb - dark (3)*
%LPD*%
*
*
G04 PC Area=_PSI_PAC_JUMPER_001_P162000000M*
G75*
G36*
G01*
X2055109Y1809830D02*
G02*
X2055306Y1809633I-0J-197D01*
G01*
Y1804318D01*
G02*
X2054969Y1804179I-197J0D01*
G01*
X2053140Y1806008D01*
X2051311Y1804179D01*
G02*
X2050975Y1804318I-139J139D01*
G01*
Y1809633D01*
G02*
X2051172Y1809830I197J0D01*
G01*
X2055109D01*
G37*
G74*
*
*
G04 PC Copper Outlines (4)*
G04 Layer Name MB913-0127-e.pcb - dark (4)*
%LPD*%
*
*
G04 PC Area=_PSI_PAC_JUMPER_000_P324000000M*
G75*
G36*
G01*
X2064473Y1744169D02*
X2062505Y1742201D01*
G02*
X2062365Y1742143I-140J139D01*
G01*
X2059216D01*
G02*
X2059019Y1742340I-0J197D01*
G01*
Y1746277D01*
G02*
X2059216Y1746474I197J0D01*
G01*
X2062365D01*
G02*
X2062505Y1746416I0J-197D01*
G01*
X2064473Y1744448D01*
G02*
Y1744169I-139J-139D01*
G37*
G74*
*
*
G04 PC Copper Outlines (5)*
G04 Layer Name MB913-0127-e.pcb - dark (5)*
%LPD*%
*
*
G04 PC Area=_PSI_PAC_JUMPER_001_P324000000M*
G75*
G36*
G01*
X2068861Y1742340D02*
G02*
X2068665Y1742143I-196J0D01*
G01*
X2063350D01*
G02*
X2063210Y1742479I-0J197D01*
G01*
X2065040Y1744309D01*
X2063210Y1746138D01*
G02*
X2063350Y1746474I140J139D01*
G01*
X2068665D01*
G02*
X2068861Y1746277I-0J-197D01*
G01*
Y1742340D01*
G37*
G74*
*
*
G04 PC Copper Outlines (6)*
G04 Layer Name MB913-0127-e.pcb - dark (6)*
%LPD*%
*
*
G04 PC Area=_PSI_PAC_JUMPER_000_P324000000M*
G75*
G36*
G01*
X2064473Y1749569D02*
X2062505Y1747601D01*
G02*
X2062365Y1747543I-140J139D01*
G01*
X2059216D01*
G02*
X2059019Y1747740I-0J197D01*
G01*
Y1751677D01*
G02*
X2059216Y1751874I197J0D01*
G01*
X2062365D01*
G02*
X2062505Y1751816I0J-197D01*
G01*
X2064473Y1749848D01*
G02*
Y1749569I-139J-139D01*
G37*
G74*
*
*
G04 PC Copper Outlines (7)*
G04 Layer Name MB913-0127-e.pcb - dark (7)*
%LPD*%
*
*
G04 PC Area=_PSI_PAC_JUMPER_001_P324000000M*
G75*
G36*
G01*
X2068861Y1747740D02*
G02*
X2068665Y1747543I-196J0D01*
G01*
X2063350D01*
G02*
X2063210Y1747879I-0J197D01*
G01*
X2065040Y1749709D01*
X2063210Y1751538D01*
G02*
X2063350Y1751874I140J139D01*
G01*
X2068665D01*
G02*
X2068861Y1751677I-0J-197D01*
G01*
Y1747740D01*
G37*
G74*
*
*
G04 PC Copper Outlines (8)*
G04 Layer Name MB913-0127-e.pcb - dark (8)*
%LPD*%
*
*
G04 PC Area=_PSI_PAC_JUMPER_000_P324000000M*
G75*
G36*
G01*
X2064423Y1755046D02*
X2062454Y1753077D01*
G02*
X2062315Y1753020I-139J140D01*
G01*
X2059165D01*
G02*
X2058969Y1753217I0J197D01*
G01*
Y1757154D01*
G02*
X2059165Y1757350I196J-0D01*
G01*
X2062315D01*
G02*
X2062454Y1757293I-0J-196D01*
G01*
X2064423Y1755324D01*
G02*
Y1755046I-140J-139D01*
G37*
G74*
*
*
G04 PC Copper Outlines (9)*
G04 Layer Name MB913-0127-e.pcb - dark (9)*
%LPD*%
*
*
G04 PC Area=_PSI_PAC_JUMPER_001_P324000000M*
G75*
G36*
G01*
X2068811Y1753217D02*
G02*
X2068614Y1753020I-197J-0D01*
G01*
X2063299D01*
G02*
X2063160Y1753356I0J197D01*
G01*
X2064989Y1755185D01*
X2063160Y1757014D01*
G02*
X2063299Y1757350I139J140D01*
G01*
X2068614D01*
G02*
X2068811Y1757154I0J-196D01*
G01*
Y1753217D01*
G37*
G74*
*
*
G04 PC Copper Outlines (10)*
G04 Layer Name MB913-0127-e.pcb - dark (10)*
%LPD*%
*
*
G04 PC Area=_PSI_PAC_JUMPER_000_P324000000M*
G75*
G36*
G01*
X2064473Y1761569D02*
X2062505Y1759601D01*
G02*
X2062365Y1759543I-140J139D01*
G01*
X2059216D01*
G02*
X2059019Y1759740I-0J197D01*
G01*
Y1763677D01*
G02*
X2059216Y1763874I197J0D01*
G01*
X2062365D01*
G02*
X2062505Y1763816I0J-197D01*
G01*
X2064473Y1761848D01*
G02*
Y1761569I-139J-139D01*
G37*
G74*
*
*
G04 PC Copper Outlines (11)*
G04 Layer Name MB913-0127-e.pcb - dark (11)*
%LPD*%
*
*
G04 PC Area=_PSI_PAC_JUMPER_001_P324000000M*
G75*
G36*
G01*
X2068861Y1759740D02*
G02*
X2068665Y1759543I-196J0D01*
G01*
X2063350D01*
G02*
X2063210Y1759879I-0J197D01*
G01*
X2065040Y1761709D01*
X2063210Y1763538D01*
G02*
X2063350Y1763874I140J139D01*
G01*
X2068665D01*
G02*
X2068861Y1763677I-0J-197D01*
G01*
Y1759740D01*
G37*
G74*
*
*
G04 PC Copper Outlines (12)*
G04 Layer Name MB913-0127-e.pcb - dark (12)*
%LPD*%
*
*
G04 PC Area=_PSI_PAC_JUMPER_000_P162000000M*
G75*
G36*
G01*
X2034079Y1805442D02*
X2036048Y1803473D01*
G02*
X2036106Y1803334I-139J-139D01*
G01*
Y1800184D01*
G02*
X2035909Y1799987I-197J0D01*
G01*
X2031972D01*
G02*
X2031775Y1800184I-0J197D01*
G01*
Y1803334D01*
G02*
X2031832Y1803473I197J-0D01*
G01*
X2033801Y1805442D01*
G02*
X2034079I139J-140D01*
G37*
G74*
*
*
G04 PC Copper Outlines (13)*
G04 Layer Name MB913-0127-e.pcb - dark (13)*
%LPD*%
*
*
G04 PC Area=_PSI_PAC_JUMPER_001_P162000000M*
G75*
G36*
G01*
X2035909Y1809830D02*
G02*
X2036106Y1809633I-0J-197D01*
G01*
Y1804318D01*
G02*
X2035769Y1804179I-197J0D01*
G01*
X2033940Y1806008D01*
X2032111Y1804179D01*
G02*
X2031775Y1804318I-139J139D01*
G01*
Y1809633D01*
G02*
X2031972Y1809830I197J0D01*
G01*
X2035909D01*
G37*
G74*
*
*
G04 PC Copper Outlines (14)*
G04 Layer Name MB913-0127-e.pcb - dark (14)*
%LPD*%
*
*
G04 PC Area=_PSI_PAC_JUMPER_000_P162000000M*
G75*
G36*
G01*
X2040679Y1805442D02*
X2042648Y1803473D01*
G02*
X2042706Y1803334I-139J-139D01*
G01*
Y1800184D01*
G02*
X2042509Y1799987I-197J0D01*
G01*
X2038572D01*
G02*
X2038375Y1800184I-0J197D01*
G01*
Y1803334D01*
G02*
X2038432Y1803473I197J-0D01*
G01*
X2040401Y1805442D01*
G02*
X2040679I139J-140D01*
G37*
G74*
*
*
G04 PC Copper Outlines (15)*
G04 Layer Name MB913-0127-e.pcb - dark (15)*
%LPD*%
*
*
G04 PC Area=_PSI_PAC_JUMPER_001_P162000000M*
G75*
G36*
G01*
X2042509Y1809830D02*
G02*
X2042706Y1809633I-0J-197D01*
G01*
Y1804318D01*
G02*
X2042369Y1804179I-197J0D01*
G01*
X2040540Y1806008D01*
X2038711Y1804179D01*
G02*
X2038375Y1804318I-139J139D01*
G01*
Y1809633D01*
G02*
X2038572Y1809830I197J0D01*
G01*
X2042509D01*
G37*
G74*
*
*
G04 PC Copper Outlines (16)*
G04 Layer Name MB913-0127-e.pcb - dark (16)*
%LPD*%
*
*
G04 PC Area=_PSI_PAC_JUMPER_000_P162000000M*
G75*
G36*
G01*
X2086279Y1780842D02*
X2088248Y1778873D01*
G02*
X2088306Y1778734I-139J-139D01*
G01*
Y1775584D01*
G02*
X2088109Y1775387I-197J0D01*
G01*
X2084172D01*
G02*
X2083975Y1775584I-0J197D01*
G01*
Y1778734D01*
G02*
X2084032Y1778873I197J-0D01*
G01*
X2086001Y1780842D01*
G02*
X2086279I139J-140D01*
G37*
G74*
*
*
G04 PC Copper Outlines (17)*
G04 Layer Name MB913-0127-e.pcb - dark (17)*
%LPD*%
*
*
G04 PC Area=_PSI_PAC_JUMPER_001_P162000000M*
G75*
G36*
G01*
X2088109Y1785230D02*
G02*
X2088306Y1785033I-0J-197D01*
G01*
Y1779718D01*
G02*
X2087969Y1779579I-197J0D01*
G01*
X2086140Y1781408D01*
X2084311Y1779579D01*
G02*
X2083975Y1779718I-139J139D01*
G01*
Y1785033D01*
G02*
X2084172Y1785230I197J0D01*
G01*
X2088109D01*
G37*
G74*
*
*
G04 PC Copper Outlines (18)*
G04 Layer Name MB913-0127-e.pcb - dark (18)*
%LPD*%
*
*
G04 PC Area=_PSI_PAC_JUMPER_000_P324000000M*
G75*
G36*
G01*
X2064473Y1738769D02*
X2062505Y1736801D01*
G02*
X2062365Y1736743I-140J139D01*
G01*
X2059216D01*
G02*
X2059019Y1736940I-0J197D01*
G01*
Y1740877D01*
G02*
X2059216Y1741074I197J0D01*
G01*
X2062365D01*
G02*
X2062505Y1741016I0J-197D01*
G01*
X2064473Y1739048D01*
G02*
Y1738769I-139J-139D01*
G37*
G74*
*
*
G04 PC Copper Outlines (19)*
G04 Layer Name MB913-0127-e.pcb - dark (19)*
%LPD*%
*
*
G04 PC Area=_PSI_PAC_JUMPER_001_P324000000M*
G75*
G36*
G01*
X2068861Y1736940D02*
G02*
X2068665Y1736743I-196J0D01*
G01*
X2063350D01*
G02*
X2063210Y1737079I-0J197D01*
G01*
X2065040Y1738909D01*
X2063210Y1740738D01*
G02*
X2063350Y1741074I140J139D01*
G01*
X2068665D01*
G02*
X2068861Y1740877I-0J-197D01*
G01*
Y1736940D01*
G37*
G74*
*
*
G04 PC Copper Outlines (20)*
G04 Layer Name MB913-0127-e.pcb - dark (20)*
%LPD*%
*
*
G04 PC Area=CFC35*
G75*
G36*
G01*
X2048806Y1808149D02*
X2045475D01*
Y1801669D01*
X2048806D01*
Y1808149D01*
G37*
G74*
*
*
G04 PC Copper Outlines (21)*
G04 Layer Name MB913-0127-e.pcb - dark (21)*
%LPD*%
*
*
G04 PC Area=CFC36*
G75*
G36*
G01*
X2054806Y1808149D02*
X2051475D01*
Y1801669D01*
X2054806D01*
Y1808149D01*
G37*
G74*
*
*
G04 PC Copper Outlines (22)*
G04 Layer Name MB913-0127-e.pcb - dark (22)*
%LPD*%
*
*
G04 PC Area=CFC37*
G75*
G36*
G01*
X2067180Y1745974D02*
X2060700D01*
Y1742643D01*
X2067180D01*
Y1745974D01*
G37*
G74*
*
*
G04 PC Copper Outlines (23)*
G04 Layer Name MB913-0127-e.pcb - dark (23)*
%LPD*%
*
*
G04 PC Area=CFC38*
G75*
G36*
G01*
X2067180Y1751374D02*
X2060700D01*
Y1748043D01*
X2067180D01*
Y1751374D01*
G37*
G74*
*
*
G04 PC Copper Outlines (24)*
G04 Layer Name MB913-0127-e.pcb - dark (24)*
%LPD*%
*
*
G04 PC Area=CFC39*
G75*
G36*
G01*
X2067130Y1756850D02*
X2060650D01*
Y1753520D01*
X2067130D01*
Y1756850D01*
G37*
G74*
*
*
G04 PC Copper Outlines (25)*
G04 Layer Name MB913-0127-e.pcb - dark (25)*
%LPD*%
*
*
G04 PC Area=CFC40*
G75*
G36*
G01*
X2067180Y1763374D02*
X2060700D01*
Y1760043D01*
X2067180D01*
Y1763374D01*
G37*
G74*
*
*
G04 PC Copper Outlines (26)*
G04 Layer Name MB913-0127-e.pcb - dark (26)*
%LPD*%
*
*
G04 PC Area=CFC41*
G75*
G36*
G01*
X2035606Y1808149D02*
X2032275D01*
Y1801669D01*
X2035606D01*
Y1808149D01*
G37*
G74*
*
*
G04 PC Copper Outlines (27)*
G04 Layer Name MB913-0127-e.pcb - dark (27)*
%LPD*%
*
*
G04 PC Area=CFC42*
G75*
G36*
G01*
X2042206Y1808149D02*
X2038875D01*
Y1801669D01*
X2042206D01*
Y1808149D01*
G37*
G74*
*
*
G04 PC Copper Outlines (28)*
G04 Layer Name MB913-0127-e.pcb - dark (28)*
%LPD*%
*
*
G04 PC Area=CFC43*
G75*
G36*
G01*
X2087806Y1783549D02*
X2084475D01*
Y1777069D01*
X2087806D01*
Y1783549D01*
G37*
G74*
*
*
G04 PC Copper Outlines (29)*
G04 Layer Name MB913-0127-e.pcb - dark (29)*
%LPD*%
*
*
G04 PC Area=CFC44*
G75*
G36*
G01*
X2067180Y1740574D02*
X2060700D01*
Y1737243D01*
X2067180D01*
Y1740574D01*
G37*
G74*
*
*
G04 PC Copper Outlines (30)*
G04 Layer Name MB913-0127-e.pcb - dark (30)*
%LPD*%
*
*
G04 PC Area=Custom_Thermal*
*
G04 PC Custom Flashes*
G04 Layer Name MB913-0127-e.pcb - flashes*
%LPD*%
*
*
G04 PC Circuitry*
G04 Layer Name MB913-0127-e.pcb - circuitry*
%LPD*%
*
G54D11*
G01X2048806Y1801669D02*
Y1808149D01*
X2045475*
Y1801669*
X2048806*
X2054806D02*
Y1808149D01*
X2051475*
Y1801669*
X2054806*
X2060700Y1742643D02*
X2067180D01*
Y1745974*
X2060700*
Y1742643*
Y1748043D02*
X2067180D01*
Y1751374*
X2060700*
Y1748043*
X2060650Y1753520D02*
X2067130D01*
Y1756850*
X2060650*
Y1753520*
X2060700Y1760043D02*
X2067180D01*
Y1763374*
X2060700*
Y1760043*
X2035606Y1801669D02*
Y1808149D01*
X2032275*
Y1801669*
X2035606*
X2042206D02*
Y1808149D01*
X2038875*
Y1801669*
X2042206*
X2087806Y1777069D02*
Y1783549D01*
X2084475*
Y1777069*
X2087806*
X2060700Y1737243D02*
X2067180D01*
Y1740574*
X2060700*
Y1737243*
X1953740Y1645709D02*
X2123740D01*
Y1978780*
X1953740*
Y1645709*
G54D67*
X2047140Y1802940D03*
Y1807271D03*
X2053140Y1802940D03*
Y1807271D03*
X2061972Y1744309D03*
X2066302D03*
X2061972Y1749709D03*
X2066302D03*
X2061921Y1755185D03*
X2066252D03*
X2061972Y1761709D03*
X2066302D03*
X2033940Y1802940D03*
Y1807271D03*
X2040540Y1802940D03*
Y1807271D03*
X2086140Y1778340D03*
Y1782671D03*
X2061972Y1738909D03*
X2066302D03*
G54D68*
X1993799Y1887311D03*
G54D69*
X2003799D03*
X1993799Y1877311D03*
X2003799D03*
X1993799Y1867311D03*
X2003799D03*
X1993799Y1857311D03*
X2003799D03*
G54D70*
X1978740Y1960709D03*
X2098740Y1690709D03*
X2018740Y1670709D03*
G54D71*
X1978740Y1950709D03*
Y1940709D03*
Y1930709D03*
Y1920709D03*
Y1910709D03*
Y1900709D03*
Y1890709D03*
Y1880709D03*
Y1870709D03*
Y1860709D03*
Y1850709D03*
Y1840709D03*
Y1830709D03*
Y1820709D03*
Y1810709D03*
Y1800709D03*
Y1790709D03*
Y1780709D03*
Y1770709D03*
Y1760709D03*
Y1750709D03*
Y1740709D03*
Y1730709D03*
Y1720709D03*
Y1710709D03*
Y1700709D03*
Y1690709D03*
X2098740Y1700709D03*
Y1710709D03*
Y1720709D03*
Y1730709D03*
Y1740709D03*
Y1750709D03*
Y1760709D03*
Y1770709D03*
Y1780709D03*
Y1790709D03*
Y1800709D03*
Y1810709D03*
Y1820709D03*
Y1830709D03*
Y1840709D03*
Y1850709D03*
Y1860709D03*
Y1870709D03*
Y1880709D03*
Y1890709D03*
Y1900709D03*
Y1910709D03*
Y1920709D03*
Y1930709D03*
Y1940709D03*
Y1950709D03*
Y1960709D03*
X2028740Y1670709D03*
X2038740D03*
X2048740D03*
X2058740D03*
X2068740D03*
G54D77*
X2047153Y1959325D03*
X2029853D03*
G54D78*
X2049546Y1857709D03*
X2030334D03*
G54D89*
X1994740Y1769509D03*
G54D90*
X2004740D03*
G54D91*
X2023734Y1818709D03*
X2042946D03*
G54D92*
X1988304Y1681104D03*
X1960140D03*
X2013740Y1680709D03*
X1998740Y1670709D03*
Y1655509D03*
X2023140Y1678309D03*
X2074126Y1680555D03*
X2074173Y1685740D03*
X2053740Y1680709D03*
X2073740Y1660709D03*
X2116126Y1674197D03*
Y1656724D03*
X2098283D03*
X2083823D03*
X2116104Y1686109D03*
X1960140Y1705909D03*
Y1726309D03*
X2025531Y1728047D03*
X2014028Y1705909D03*
Y1690681D03*
X2023104Y1688304D03*
X2023140Y1704109D03*
X2087028Y1724354D03*
X1960140Y1746109D03*
X2005189Y1732740D03*
X2054940Y1755109D03*
X2065740Y1734709D03*
X2086140Y1744909D03*
X2116140Y1735909D03*
X1960140Y1775509D03*
Y1805509D03*
X2116140Y1785709D03*
X2087940Y1786909D03*
X1993768Y1843130D03*
X1991940Y1812709D03*
X1960140Y1825309D03*
X2015335Y1836244D03*
X2001858D03*
X2116140Y1825909D03*
X1960140Y1855309D03*
Y1885909D03*
X2015340Y1849309D03*
X2065713Y1855224D03*
X2116140Y1866109D03*
X1994961Y1921157D03*
X1960140Y1905709D03*
X2021340Y1921309D03*
X2030340Y1891309D03*
X2050740Y1888309D03*
X2050140Y1900309D03*
X2116140Y1916509D03*
X1960140Y1935709D03*
X2018260Y1931642D03*
X2059740Y1957909D03*
X2116140Y1945909D03*
X2043540Y1971109D03*
X2107740Y1972309D03*
X2116140D03*
X0Y0D02*
M02*
