*
*
G04 PADS Layout (Build Number 2007.42.1) generated Gerber (RS-274-X) file*
G04 PC Version=2.1*
*
%IN "MB913-0127-e.pcb"*%
*
%MOIN*%
*
%FSLAX35Y35*%
*
*
*
*
G04 PC Standard Apertures*
*
*
G04 Thermal Relief Aperture macro.*
%AMTER*
1,1,$1,0,0*
1,0,$1-$2,0,0*
21,0,$3,$4,0,0,45*
21,0,$3,$4,0,0,135*
%
*
*
G04 Annular Aperture macro.*
%AMANN*
1,1,$1,0,0*
1,0,$2,0,0*
%
*
*
G04 Odd Aperture macro.*
%AMODD*
1,1,$1,0,0*
1,0,$1-0.005,0,0*
%
*
*
G04 PC Custom Aperture Macros*
*
*
*
*
*
*
G04 PC Aperture Table*
*
%ADD011C,0.01*%
%ADD018C,0.001*%
*
*
*
*
G04 PC Copper Outlines (0)*
G04 Layer Name MB913-0127-e.pcb - dark (0)*
%LPD*%
*
*
G04 PC Area=Custom_Thermal*
*
G04 PC Custom Flashes*
G04 Layer Name MB913-0127-e.pcb - flashes*
%LPD*%
*
*
G04 PC Circuitry*
G04 Layer Name MB913-0127-e.pcb - circuitry*
%LPD*%
*
G54D11*
G01X1989799Y1883311D02*
X1997799D01*
Y1891311*
X1989799*
Y1883311*
X1993799Y1887311D02*
Y1891311D01*
X1999799Y1883311D02*
X2007799D01*
Y1891311*
X1999799*
Y1883311*
X2003799Y1887311D02*
Y1891311D01*
X1989799Y1873311D02*
X1997799D01*
Y1881311*
X1989799*
Y1873311*
X1993799Y1877311D02*
Y1881311D01*
X1999799Y1873311D02*
X2007799D01*
Y1881311*
X1999799*
Y1873311*
X2003799Y1877311D02*
Y1881311D01*
X1989799Y1863311D02*
X1997799D01*
Y1871311*
X1989799*
Y1863311*
X1993799Y1867311D02*
Y1871311D01*
X1999799Y1863311D02*
X2007799D01*
Y1871311*
X1999799*
Y1863311*
X2003799Y1867311D02*
Y1871311D01*
X1989799Y1853311D02*
X1997799D01*
Y1861311*
X1989799*
Y1853311*
X1993799Y1857311D02*
Y1861311D01*
X1999799Y1853311D02*
X2007799D01*
Y1861311*
X1999799*
Y1853311*
X2003799Y1857311D02*
Y1861311D01*
X1974740Y1956709D02*
X1982740Y1964709D01*
X1974740D02*
X1982740Y1956709D01*
X1974740Y1946709D02*
X1982740Y1954709D01*
X1974740D02*
X1982740Y1946709D01*
X1974740Y1936709D02*
X1982740Y1944709D01*
X1974740D02*
X1982740Y1936709D01*
X1974740Y1926709D02*
X1982740Y1934709D01*
X1974740D02*
X1982740Y1926709D01*
X1974740Y1916709D02*
X1982740Y1924709D01*
X1974740D02*
X1982740Y1916709D01*
X1974740Y1906709D02*
X1982740Y1914709D01*
X1974740D02*
X1982740Y1906709D01*
X1974740Y1896709D02*
X1982740Y1904709D01*
X1974740D02*
X1982740Y1896709D01*
X1974740Y1886709D02*
X1982740Y1894709D01*
X1974740D02*
X1982740Y1886709D01*
X1974740Y1876709D02*
X1982740Y1884709D01*
X1974740D02*
X1982740Y1876709D01*
X1974740Y1866709D02*
X1982740Y1874709D01*
X1974740D02*
X1982740Y1866709D01*
X1974740Y1856709D02*
X1982740Y1864709D01*
X1974740D02*
X1982740Y1856709D01*
X1974740Y1846709D02*
X1982740Y1854709D01*
X1974740D02*
X1982740Y1846709D01*
X1974740Y1836709D02*
X1982740Y1844709D01*
X1974740D02*
X1982740Y1836709D01*
X1974740Y1826709D02*
X1982740Y1834709D01*
X1974740D02*
X1982740Y1826709D01*
X1974740Y1816709D02*
X1982740Y1824709D01*
X1974740D02*
X1982740Y1816709D01*
X1974740Y1806709D02*
X1982740Y1814709D01*
X1974740D02*
X1982740Y1806709D01*
X1974740Y1796709D02*
X1982740Y1804709D01*
X1974740D02*
X1982740Y1796709D01*
X1974740Y1786709D02*
X1982740Y1794709D01*
X1974740D02*
X1982740Y1786709D01*
X1974740Y1776709D02*
X1982740Y1784709D01*
X1974740D02*
X1982740Y1776709D01*
X1974740Y1766709D02*
X1982740Y1774709D01*
X1974740D02*
X1982740Y1766709D01*
X1974740Y1756709D02*
X1982740Y1764709D01*
X1974740D02*
X1982740Y1756709D01*
X1974740Y1746709D02*
X1982740Y1754709D01*
X1974740D02*
X1982740Y1746709D01*
X1974740Y1736709D02*
X1982740Y1744709D01*
X1974740D02*
X1982740Y1736709D01*
X1974740Y1726709D02*
X1982740Y1734709D01*
X1974740D02*
X1982740Y1726709D01*
X1974740Y1716709D02*
X1982740Y1724709D01*
X1974740D02*
X1982740Y1716709D01*
X1974740Y1706709D02*
X1982740Y1714709D01*
X1974740D02*
X1982740Y1706709D01*
X1974740Y1696709D02*
X1982740Y1704709D01*
X1974740D02*
X1982740Y1696709D01*
X1974740Y1686709D02*
X1982740Y1694709D01*
X1974740D02*
X1982740Y1686709D01*
X2094740D02*
X2102740Y1694709D01*
X2094740D02*
X2102740Y1686709D01*
X2094740Y1696709D02*
X2102740Y1704709D01*
X2094740D02*
X2102740Y1696709D01*
X2094740Y1706709D02*
X2102740Y1714709D01*
X2094740D02*
X2102740Y1706709D01*
X2094740Y1716709D02*
X2102740Y1724709D01*
X2094740D02*
X2102740Y1716709D01*
X2094740Y1726709D02*
X2102740Y1734709D01*
X2094740D02*
X2102740Y1726709D01*
X2094740Y1736709D02*
X2102740Y1744709D01*
X2094740D02*
X2102740Y1736709D01*
X2094740Y1746709D02*
X2102740Y1754709D01*
X2094740D02*
X2102740Y1746709D01*
X2094740Y1756709D02*
X2102740Y1764709D01*
X2094740D02*
X2102740Y1756709D01*
X2094740Y1766709D02*
X2102740Y1774709D01*
X2094740D02*
X2102740Y1766709D01*
X2094740Y1776709D02*
X2102740Y1784709D01*
X2094740D02*
X2102740Y1776709D01*
X2094740Y1786709D02*
X2102740Y1794709D01*
X2094740D02*
X2102740Y1786709D01*
X2094740Y1796709D02*
X2102740Y1804709D01*
X2094740D02*
X2102740Y1796709D01*
X2094740Y1806709D02*
X2102740Y1814709D01*
X2094740D02*
X2102740Y1806709D01*
X2094740Y1816709D02*
X2102740Y1824709D01*
X2094740D02*
X2102740Y1816709D01*
X2094740Y1826709D02*
X2102740Y1834709D01*
X2094740D02*
X2102740Y1826709D01*
X2094740Y1836709D02*
X2102740Y1844709D01*
X2094740D02*
X2102740Y1836709D01*
X2094740Y1846709D02*
X2102740Y1854709D01*
X2094740D02*
X2102740Y1846709D01*
X2094740Y1856709D02*
X2102740Y1864709D01*
X2094740D02*
X2102740Y1856709D01*
X2094740Y1866709D02*
X2102740Y1874709D01*
X2094740D02*
X2102740Y1866709D01*
X2094740Y1876709D02*
X2102740Y1884709D01*
X2094740D02*
X2102740Y1876709D01*
X2094740Y1886709D02*
X2102740Y1894709D01*
X2094740D02*
X2102740Y1886709D01*
X2094740Y1896709D02*
X2102740Y1904709D01*
X2094740D02*
X2102740Y1896709D01*
X2094740Y1906709D02*
X2102740Y1914709D01*
X2094740D02*
X2102740Y1906709D01*
X2094740Y1916709D02*
X2102740Y1924709D01*
X2094740D02*
X2102740Y1916709D01*
X2094740Y1926709D02*
X2102740Y1934709D01*
X2094740D02*
X2102740Y1926709D01*
X2094740Y1936709D02*
X2102740Y1944709D01*
X2094740D02*
X2102740Y1936709D01*
X2094740Y1946709D02*
X2102740Y1954709D01*
X2094740D02*
X2102740Y1946709D01*
X2094740Y1956709D02*
X2102740Y1964709D01*
X2094740D02*
X2102740Y1956709D01*
X2014740Y1666709D02*
X2022740Y1674709D01*
X2014740D02*
X2022740Y1666709D01*
X2024740D02*
X2032740Y1674709D01*
X2024740D02*
X2032740Y1666709D01*
X2034740D02*
X2042740Y1674709D01*
X2034740D02*
X2042740Y1666709D01*
X2044740D02*
X2052740Y1674709D01*
X2044740D02*
X2052740Y1666709D01*
X2054740D02*
X2062740Y1674709D01*
X2054740D02*
X2062740Y1666709D01*
X2064740D02*
X2072740Y1674709D01*
X2064740D02*
X2072740Y1666709D01*
X1990740Y1765509D02*
X1998740D01*
Y1773509*
X1990740*
Y1765509*
X1994740Y1769509D02*
Y1773509D01*
X2000740Y1765509D02*
X2008740D01*
Y1773509*
X2000740*
Y1765509*
X2004740Y1769509D02*
Y1773509D01*
X2043153Y1955325D02*
X2051153Y1963325D01*
Y1955325*
X2043153Y1963325*
Y1955325*
X2025853D02*
X2033853Y1963325D01*
Y1955325*
X2025853Y1963325*
Y1955325*
X2019734Y1818709D02*
X2027734D01*
X2023734Y1814709D02*
Y1822709D01*
X2026643Y1823990D02*
X2025734Y1820709D01*
X2026643Y1823990D02*
X2027552Y1820709D01*
X2026075Y1821802D02*
X2027211D01*
X2038946Y1818709D02*
X2046946D01*
X2042946Y1814709D02*
Y1822709D01*
X2045856Y1823990D02*
X2044946Y1820709D01*
X2045856Y1823990D02*
X2046765Y1820709D01*
X2045287Y1821802D02*
X2046424D01*
X2045546Y1853709D02*
X2053546D01*
X2045546Y1861709*
X2053546*
X2045546Y1853709*
X2026334D02*
X2034334D01*
X2026334Y1861709*
X2034334*
X2026334Y1853709*
X1984304Y1681104D02*
X1992304D01*
X1988304Y1677104D02*
Y1685104D01*
X1956140Y1681104D02*
X1964140D01*
X1960140Y1677104D02*
Y1685104D01*
X1956140Y1655509D02*
X1964140D01*
X1960140Y1651509D02*
Y1659509D01*
X2028398Y1679509D02*
X2036398D01*
X2032398Y1675509D02*
Y1683509D01*
X2009740Y1680709D02*
X2017740D01*
X2013740Y1676709D02*
Y1684709D01*
X1994740Y1670709D02*
X2002740D01*
X1998740Y1666709D02*
Y1674709D01*
X1994740Y1655509D02*
X2002740D01*
X1998740Y1651509D02*
Y1659509D01*
X2019140Y1678309D02*
X2027140D01*
X2023140Y1674309D02*
Y1682309D01*
X2070126Y1680555D02*
X2078126D01*
X2074126Y1676555D02*
Y1684555D01*
X2070173Y1685740D02*
X2078173D01*
X2074173Y1681740D02*
Y1689740D01*
X2049740Y1680709D02*
X2057740D01*
X2053740Y1676709D02*
Y1684709D01*
X2069740Y1660709D02*
X2077740D01*
X2073740Y1656709D02*
Y1664709D01*
X2112126Y1674197D02*
X2120126D01*
X2116126Y1670197D02*
Y1678197D01*
X2079740Y1685850D02*
X2087740D01*
X2083740Y1681850D02*
Y1689850D01*
X2112126Y1656724D02*
X2120126D01*
X2116126Y1652724D02*
Y1660724D01*
X2094283Y1656724D02*
X2102283D01*
X2098283Y1652724D02*
Y1660724D01*
X2079823Y1656724D02*
X2087823D01*
X2083823Y1652724D02*
Y1660724D01*
X2112104Y1686109D02*
X2120104D01*
X2116104Y1682109D02*
Y1690109D01*
X1956140Y1705909D02*
X1964140D01*
X1960140Y1701909D02*
Y1709909D01*
X1956140Y1726309D02*
X1964140D01*
X1960140Y1722309D02*
Y1730309D01*
X2016209Y1720276D02*
X2024209D01*
X2020209Y1716276D02*
Y1724276D01*
X2017898Y1726654D02*
X2025898D01*
X2021898Y1722654D02*
Y1730654D01*
X2021531Y1728047D02*
X2029531D01*
X2025531Y1724047D02*
Y1732047D01*
X2025287Y1726370D02*
X2033287D01*
X2029287Y1722370D02*
Y1730370D01*
X2010028Y1705909D02*
X2018028D01*
X2014028Y1701909D02*
Y1709909D01*
X2010028Y1690681D02*
X2018028D01*
X2014028Y1686681D02*
Y1694681D01*
X2028398Y1690169D02*
X2036398D01*
X2032398Y1686169D02*
Y1694169D01*
X2019104Y1688304D02*
X2027104D01*
X2023104Y1684304D02*
Y1692304D01*
X2032940Y1720909D02*
X2040940D01*
X2036940Y1716909D02*
Y1724909D01*
X2025140Y1721509D02*
X2033140D01*
X2029140Y1717509D02*
Y1725509D01*
X2028740Y1720309D02*
X2036740D01*
X2032740Y1716309D02*
Y1724309D01*
X2019140Y1704109D02*
X2027140D01*
X2023140Y1700109D02*
Y1708109D01*
X2014340Y1716109D02*
X2022340D01*
X2018340Y1712109D02*
Y1720109D01*
X2042102Y1723945D02*
X2050102D01*
X2046102Y1719945D02*
Y1727945D01*
X2052161Y1724220D02*
X2060161D01*
X2056161Y1720220D02*
Y1728220D01*
X2050340Y1719709D02*
X2058340D01*
X2054340Y1715709D02*
Y1723709D01*
X2038340Y1720909D02*
X2046340D01*
X2042340Y1716909D02*
Y1724909D01*
X2045540Y1721509D02*
X2053540D01*
X2049540Y1717509D02*
Y1725509D01*
X2083028Y1724354D02*
X2091028D01*
X2087028Y1720354D02*
Y1728354D01*
X1983140Y1745509D02*
X1991140D01*
X1987140Y1741509D02*
Y1749509D01*
X1981340Y1759909D02*
X1989340D01*
X1985340Y1755909D02*
Y1763909D01*
X1956140Y1746109D02*
X1964140D01*
X1960140Y1742109D02*
Y1750109D01*
X2024539Y1761902D02*
X2032539D01*
X2028539Y1757902D02*
Y1765902D01*
X2021618Y1748508D02*
X2029618D01*
X2025618Y1744508D02*
Y1752508D01*
X2019736Y1752236D02*
X2027736D01*
X2023736Y1748236D02*
Y1756236D01*
X2027945Y1753421D02*
X2035945D01*
X2031945Y1749421D02*
Y1757421D01*
X2028130Y1758209D02*
X2036130D01*
X2032130Y1754209D02*
Y1762209D01*
X2018421Y1765984D02*
X2026421D01*
X2022421Y1761984D02*
Y1769984D01*
X2022055Y1765626D02*
X2030055D01*
X2026055Y1761626D02*
Y1769626D01*
X1995429Y1738917D02*
X2003429D01*
X1999429Y1734917D02*
Y1742917D01*
X2011642Y1734291D02*
X2019642D01*
X2015642Y1730291D02*
Y1738291D01*
X2001189Y1732740D02*
X2009189D01*
X2005189Y1728740D02*
Y1736740D01*
X2004091Y1739559D02*
X2012091D01*
X2008091Y1735559D02*
Y1743559D01*
X2013140Y1738309D02*
X2021140D01*
X2017140Y1734309D02*
Y1742309D01*
X2019140Y1762309D02*
X2027140D01*
X2023140Y1758309D02*
Y1766309D01*
X2023940Y1752109D02*
X2031940D01*
X2027940Y1748109D02*
Y1756109D01*
X2048732Y1768059D02*
X2056732D01*
X2052732Y1764059D02*
Y1772059D01*
X2068933Y1765756D02*
X2076933D01*
X2072933Y1761756D02*
Y1769756D01*
X2072118Y1757197D02*
X2080118D01*
X2076118Y1753197D02*
Y1761197D01*
X2069362Y1761717D02*
X2077362D01*
X2073362Y1757717D02*
Y1765717D01*
X2048540Y1764109D02*
X2056540D01*
X2052540Y1760109D02*
Y1768109D01*
X2048540Y1759909D02*
X2056540D01*
X2052540Y1755909D02*
Y1763909D01*
X2037140Y1729309D02*
X2045140D01*
X2041140Y1725309D02*
Y1733309D01*
X2050940Y1755109D02*
X2058940D01*
X2054940Y1751109D02*
Y1759109D01*
X2071940Y1751509D02*
X2079940D01*
X2075940Y1747509D02*
Y1755509D01*
X2071940Y1744909D02*
X2079940D01*
X2075940Y1740909D02*
Y1748909D01*
X2067140Y1744309D02*
X2075140D01*
X2071140Y1740309D02*
Y1748309D01*
X2058140Y1731709D02*
X2066140D01*
X2062140Y1727709D02*
Y1735709D01*
X2061740Y1734709D02*
X2069740D01*
X2065740Y1730709D02*
Y1738709D01*
X2082140Y1744909D02*
X2090140D01*
X2086140Y1740909D02*
Y1748909D01*
X2074340Y1748509D02*
X2082340D01*
X2078340Y1744509D02*
Y1752509D01*
X2075540Y1754509D02*
X2083540D01*
X2079540Y1750509D02*
Y1758509D01*
X2112140Y1735909D02*
X2120140D01*
X2116140Y1731909D02*
Y1739909D01*
X1989740Y1803709D02*
X1997740D01*
X1993740Y1799709D02*
Y1807709D01*
X1956140Y1775509D02*
X1964140D01*
X1960140Y1771509D02*
Y1779509D01*
X1956140Y1805509D02*
X1964140D01*
X1960140Y1801509D02*
Y1809509D01*
X2025307Y1768941D02*
X2033307D01*
X2029307Y1764941D02*
Y1772941D01*
X2022134Y1772224D02*
X2030134D01*
X2026134Y1768224D02*
Y1776224D01*
X2031283Y1779854D02*
X2039283D01*
X2035283Y1775854D02*
Y1783854D01*
X2032260Y1797016D02*
X2040260D01*
X2036260Y1793016D02*
Y1801016D01*
X2014340Y1785109D02*
X2022340D01*
X2018340Y1781109D02*
Y1789109D01*
X2006540Y1777909D02*
X2014540D01*
X2010540Y1773909D02*
Y1781909D01*
X2010740Y1790509D02*
X2018740D01*
X2014740Y1786509D02*
Y1794509D01*
X2015540Y1799509D02*
X2023540D01*
X2019540Y1795509D02*
Y1803509D01*
X2046110Y1771350D02*
X2054110D01*
X2050110Y1767350D02*
Y1775350D01*
X2050323Y1774217D02*
X2058323D01*
X2054323Y1770217D02*
Y1778217D01*
X2047940Y1797109D02*
X2055940D01*
X2051940Y1793109D02*
Y1801109D01*
X2042540Y1797709D02*
X2050540D01*
X2046540Y1793709D02*
Y1801709D01*
X2038340Y1798909D02*
X2046340D01*
X2042340Y1794909D02*
Y1802909D01*
X2053340Y1792909D02*
X2061340D01*
X2057340Y1788909D02*
Y1796909D01*
X2049740Y1793509D02*
X2057740D01*
X2053740Y1789509D02*
Y1797509D01*
X2035940Y1792309D02*
X2043940D01*
X2039940Y1788309D02*
Y1796309D01*
X2082740Y1772509D02*
X2090740D01*
X2086740Y1768509D02*
Y1776509D01*
X2112140Y1785709D02*
X2120140D01*
X2116140Y1781709D02*
Y1789709D01*
X2083940Y1786909D02*
X2091940D01*
X2087940Y1782909D02*
Y1790909D01*
X1989768Y1843130D02*
X1997768D01*
X1993768Y1839130D02*
Y1847130D01*
X1987940Y1812709D02*
X1995940D01*
X1991940Y1808709D02*
Y1816709D01*
X1956140Y1825309D02*
X1964140D01*
X1960140Y1821309D02*
Y1829309D01*
X2011335Y1836244D02*
X2019335D01*
X2015335Y1832244D02*
Y1840244D01*
X1997858Y1836244D02*
X2005858D01*
X2001858Y1832244D02*
Y1840244D01*
X2051540Y1830709D02*
X2059540D01*
X2055540Y1826709D02*
Y1834709D01*
X2112140Y1825909D02*
X2120140D01*
X2116140Y1821909D02*
Y1829909D01*
X1956140Y1855309D02*
X1964140D01*
X1960140Y1851309D02*
Y1859309D01*
X1956140Y1885909D02*
X1964140D01*
X1960140Y1881909D02*
Y1889909D01*
X2016555Y1872705D02*
X2024555D01*
X2020555Y1868705D02*
Y1876705D01*
X2011340Y1849309D02*
X2019340D01*
X2015340Y1845309D02*
Y1853309D01*
X2061713Y1855224D02*
X2069713D01*
X2065713Y1851224D02*
Y1859224D01*
X2070882Y1868051D02*
X2078882D01*
X2074882Y1864051D02*
Y1872051D01*
X2040740Y1887709D02*
X2048740D01*
X2044740Y1883709D02*
Y1891709D01*
X2112140Y1866109D02*
X2120140D01*
X2116140Y1862109D02*
Y1870109D01*
X1990961Y1921157D02*
X1998961D01*
X1994961Y1917157D02*
Y1925157D01*
X1956140Y1905709D02*
X1964140D01*
X1960140Y1901709D02*
Y1909709D01*
X2012965Y1902571D02*
X2020965D01*
X2016965Y1898571D02*
Y1906571D01*
X2026472Y1900602D02*
X2034472D01*
X2030472Y1896602D02*
Y1904602D01*
X2027024Y1896622D02*
X2035024D01*
X2031024Y1892622D02*
Y1900622D01*
X2009540Y1900309D02*
X2017540D01*
X2013540Y1896309D02*
Y1904309D01*
X2017340Y1921309D02*
X2025340D01*
X2021340Y1917309D02*
Y1925309D01*
X2029340Y1916509D02*
X2037340D01*
X2033340Y1912509D02*
Y1920509D01*
X2026340Y1891309D02*
X2034340D01*
X2030340Y1887309D02*
Y1895309D01*
X2016740Y1906909D02*
X2024740D01*
X2020740Y1902909D02*
Y1910909D01*
X2072185Y1900374D02*
X2080185D01*
X2076185Y1896374D02*
Y1904374D01*
X2064787Y1889445D02*
X2072787D01*
X2068787Y1885445D02*
Y1893445D01*
X2045827Y1925508D02*
X2053827D01*
X2049827Y1921508D02*
Y1929508D01*
X2060540Y1890709D02*
X2068540D01*
X2064540Y1886709D02*
Y1894709D01*
X2044340Y1891909D02*
X2052340D01*
X2048340Y1887909D02*
Y1895909D01*
X2046740Y1888309D02*
X2054740D01*
X2050740Y1884309D02*
Y1892309D01*
X2038940Y1900309D02*
X2046940D01*
X2042940Y1896309D02*
Y1904309D01*
X2036540Y1893109D02*
X2044540D01*
X2040540Y1889109D02*
Y1897109D01*
X2040140Y1921309D02*
X2048140D01*
X2044140Y1917309D02*
Y1925309D01*
X2046140Y1900309D02*
X2054140D01*
X2050140Y1896309D02*
Y1904309D01*
X2047340Y1918309D02*
X2055340D01*
X2051340Y1914309D02*
Y1922309D01*
X2079094Y1888524D02*
X2087094D01*
X2083094Y1884524D02*
Y1892524D01*
X2112140Y1916509D02*
X2120140D01*
X2116140Y1912509D02*
Y1920509D01*
X1990961Y1934555D02*
X1998961D01*
X1994961Y1930555D02*
Y1938555D01*
X1956140Y1935709D02*
X1964140D01*
X1960140Y1931709D02*
Y1939709D01*
X1999906Y1953831D02*
X2007906D01*
X2003906Y1949831D02*
Y1957831D01*
X2014260Y1931642D02*
X2022260D01*
X2018260Y1927642D02*
Y1935642D01*
X2029339Y1931642D02*
X2037339D01*
X2033339Y1927642D02*
Y1935642D01*
X2052181Y1937795D02*
X2060181D01*
X2056181Y1933795D02*
Y1941795D01*
X2058992Y1944488D02*
X2066992D01*
X2062992Y1940488D02*
Y1948488D01*
X2041340Y1939309D02*
X2049340D01*
X2045340Y1935309D02*
Y1943309D01*
X2055740Y1957909D02*
X2063740D01*
X2059740Y1953909D02*
Y1961909D01*
X2077988Y1959709D02*
X2085988D01*
X2081988Y1955709D02*
Y1963709D01*
X2112140Y1945909D02*
X2120140D01*
X2116140Y1941909D02*
Y1949909D01*
X1956140Y1974109D02*
X1964140D01*
X1960140Y1970109D02*
Y1978109D01*
X1999340Y1970492D02*
X2007340D01*
X2003340Y1966492D02*
Y1974492D01*
X2031154Y1971146D02*
X2039154D01*
X2035154Y1967146D02*
Y1975146D01*
X2039540Y1971109D02*
X2047540D01*
X2043540Y1967109D02*
Y1975109D01*
X2103740Y1972309D02*
X2111740D01*
X2107740Y1968309D02*
Y1976309D01*
X2077940Y1972309D02*
X2085940D01*
X2081940Y1968309D02*
Y1976309D01*
X2112140Y1972309D02*
X2120140D01*
X2116140Y1968309D02*
Y1976309D01*
X1953740Y1645709D02*
X2123740D01*
Y1978780*
X1953740*
Y1645709*
X2147940D02*
Y1805494D01*
Y1645709D02*
X2145440Y1655709D01*
X2150440*
X2147940Y1645709*
Y1978780D02*
Y1818994D01*
Y1978780D02*
X2150440Y1968780D01*
X2145440*
X2147940Y1978780*
X2043740Y1645709D02*
X2152940D01*
X2043740Y1978780D02*
X2152940D01*
X2128281Y1815057D02*
X2127599Y1814744D01*
X2127372Y1814119*
Y1813494*
X2127599Y1812869*
X2128054Y1812557*
X2128963Y1812244*
X2129645Y1811932*
X2130099Y1811307*
X2130327Y1810682*
Y1809744*
X2130099Y1809119*
X2129872Y1808807*
X2129190Y1808494*
X2128281*
X2127599Y1808807*
X2127372Y1809119*
X2127145Y1809744*
Y1810682*
X2127372Y1811307*
X2127827Y1811932*
X2128508Y1812244*
X2129417Y1812557*
X2129872Y1812869*
X2130099Y1813494*
Y1814119*
X2129872Y1814744*
X2129190Y1815057*
X2128281*
X2134645D02*
X2132372Y1810682D01*
X2135781*
X2134645Y1815057D02*
Y1808494D01*
X2138054Y1809119D02*
X2137827Y1808807D01*
X2138054Y1808494*
X2138281Y1808807*
X2138054Y1809119*
X2143054Y1814119D02*
X2142827Y1814744D01*
X2142145Y1815057*
X2141690*
X2141008Y1814744*
X2140554Y1813807*
X2140327Y1812244*
Y1810682*
X2140554Y1809432*
X2141008Y1808807*
X2141690Y1808494*
X2141917*
X2142599Y1808807*
X2143054Y1809432*
X2143281Y1810369*
Y1810682*
X2143054Y1811619*
X2142599Y1812244*
X2141917Y1812557*
X2141690*
X2141008Y1812244*
X2140554Y1811619*
X2140327Y1810682*
X2146690Y1815057D02*
X2146008Y1814744D01*
X2145554Y1813807*
X2145327Y1812244*
Y1811307*
X2145554Y1809744*
X2146008Y1808807*
X2146690Y1808494*
X2147145*
X2147827Y1808807*
X2148281Y1809744*
X2148508Y1811307*
Y1812244*
X2148281Y1813807*
X2147827Y1814744*
X2147145Y1815057*
X2146690*
X2151917D02*
X2151236Y1814744D01*
X2150781Y1813807*
X2150554Y1812244*
Y1811307*
X2150781Y1809744*
X2151236Y1808807*
X2151917Y1808494*
X2152372*
X2153054Y1808807*
X2153508Y1809744*
X2153736Y1811307*
Y1812244*
X2153508Y1813807*
X2153054Y1814744*
X2152372Y1815057*
X2151917*
X2155781Y1812869D02*
Y1808494D01*
Y1811619D02*
X2156463Y1812557D01*
X2156917Y1812869*
X2157599*
X2158054Y1812557*
X2158281Y1811619*
Y1808494*
Y1811619D02*
X2158963Y1812557D01*
X2159417Y1812869*
X2160099*
X2160554Y1812557*
X2160781Y1811619*
Y1808494*
X2162827Y1812869D02*
Y1808494D01*
Y1811619D02*
X2163508Y1812557D01*
X2163963Y1812869*
X2164645*
X2165099Y1812557*
X2165327Y1811619*
Y1808494*
Y1811619D02*
X2166008Y1812557D01*
X2166463Y1812869*
X2167145*
X2167599Y1812557*
X2167827Y1811619*
Y1808494*
X1953740Y1990309D02*
X2015940D01*
X1953740D02*
X1963740Y1992809D01*
Y1987809*
X1953740Y1990309*
X2123740D02*
X2061713D01*
X2123740D02*
X2113740Y1987809D01*
Y1992809*
X2123740Y1990309*
X1953740Y1817244D02*
Y1995309D01*
X2123740Y1817244D02*
Y1995309D01*
X2021213Y1993271D02*
X2018940Y1988896D01*
X2022349*
X2021213Y1993271D02*
Y1986709D01*
X2024849Y1993271D02*
X2027349D01*
X2025986Y1990771*
X2026667*
X2027122Y1990459*
X2027349Y1990146*
X2027577Y1989209*
Y1988584*
X2027349Y1987646*
X2026895Y1987021*
X2026213Y1986709*
X2025531*
X2024849Y1987021*
X2024622Y1987334*
X2024395Y1987959*
X2029849Y1987334D02*
X2029622Y1987021D01*
X2029849Y1986709*
X2030077Y1987021*
X2029849Y1987334*
X2032122Y1992021D02*
X2032577Y1992334D01*
X2033258Y1993271*
Y1986709*
X2036440Y1993271D02*
X2035758Y1992959D01*
X2035531Y1992334*
Y1991709*
X2035758Y1991084*
X2036213Y1990771*
X2037122Y1990459*
X2037804Y1990146*
X2038258Y1989521*
X2038486Y1988896*
Y1987959*
X2038258Y1987334*
X2038031Y1987021*
X2037349Y1986709*
X2036440*
X2035758Y1987021*
X2035531Y1987334*
X2035304Y1987959*
Y1988896*
X2035531Y1989521*
X2035986Y1990146*
X2036667Y1990459*
X2037577Y1990771*
X2038031Y1991084*
X2038258Y1991709*
Y1992334*
X2038031Y1992959*
X2037349Y1993271*
X2036440*
X2041895D02*
X2041213Y1992959D01*
X2040758Y1992021*
X2040531Y1990459*
Y1989521*
X2040758Y1987959*
X2041213Y1987021*
X2041895Y1986709*
X2042349*
X2043031Y1987021*
X2043486Y1987959*
X2043713Y1989521*
Y1990459*
X2043486Y1992021*
X2043031Y1992959*
X2042349Y1993271*
X2041895*
X2045758Y1991084D02*
Y1986709D01*
Y1989834D02*
X2046440Y1990771D01*
X2046895Y1991084*
X2047577*
X2048031Y1990771*
X2048258Y1989834*
Y1986709*
Y1989834D02*
X2048940Y1990771D01*
X2049395Y1991084*
X2050077*
X2050531Y1990771*
X2050758Y1989834*
Y1986709*
X2052804Y1991084D02*
Y1986709D01*
Y1989834D02*
X2053486Y1990771D01*
X2053940Y1991084*
X2054622*
X2055077Y1990771*
X2055304Y1989834*
Y1986709*
Y1989834D02*
X2055986Y1990771D01*
X2056440Y1991084*
X2057122*
X2057577Y1990771*
X2057804Y1989834*
Y1986709*
X1943118Y1900709D02*
Y1885709D01*
Y1900709D02*
X1945618Y1890709D01*
X1940618*
X1943118Y1900709*
Y1910709D02*
Y1925709D01*
Y1910709D02*
X1940618Y1920709D01*
X1945618*
X1943118Y1910709*
X1973740Y1900709D02*
X1938118D01*
X1973740Y1910709D02*
X1938118D01*
X1903527Y1926959D02*
Y1927271D01*
X1903754Y1927896*
X1903982Y1928209*
X1904436Y1928521*
X1905345*
X1905800Y1928209*
X1906027Y1927896*
X1906254Y1927271*
Y1926646*
X1906027Y1926021*
X1905573Y1925084*
X1903300Y1921959*
X1906482*
X1908754Y1922584D02*
X1908527Y1922271D01*
X1908754Y1921959*
X1908982Y1922271*
X1908754Y1922584*
X1913982Y1928521D02*
X1911709D01*
X1911482Y1925709*
X1911709Y1926021*
X1912391Y1926334*
X1913073*
X1913754Y1926021*
X1914209Y1925396*
X1914436Y1924459*
X1914209Y1923834*
X1913982Y1922896*
X1913527Y1922271*
X1912845Y1921959*
X1912164*
X1911482Y1922271*
X1911254Y1922584*
X1911027Y1923209*
X1918754Y1928521D02*
X1916482Y1924146D01*
X1919891*
X1918754Y1928521D02*
Y1921959D01*
X1923300Y1928521D02*
X1922618Y1928209D01*
X1922164Y1927271*
X1921936Y1925709*
Y1924771*
X1922164Y1923209*
X1922618Y1922271*
X1923300Y1921959*
X1923754*
X1924436Y1922271*
X1924891Y1923209*
X1925118Y1924771*
Y1925709*
X1924891Y1927271*
X1924436Y1928209*
X1923754Y1928521*
X1923300*
X1927164Y1926334D02*
Y1921959D01*
Y1925084D02*
X1927845Y1926021D01*
X1928300Y1926334*
X1928982*
X1929436Y1926021*
X1929664Y1925084*
Y1921959*
Y1925084D02*
X1930345Y1926021D01*
X1930800Y1926334*
X1931482*
X1931936Y1926021*
X1932164Y1925084*
Y1921959*
X1934209Y1926334D02*
Y1921959D01*
Y1925084D02*
X1934891Y1926021D01*
X1935345Y1926334*
X1936027*
X1936482Y1926021*
X1936709Y1925084*
Y1921959*
Y1925084D02*
X1937391Y1926021D01*
X1937845Y1926334*
X1938527*
X1938982Y1926021*
X1939209Y1925084*
Y1921959*
X1978740Y2000551D02*
X2014831D01*
X1978740D02*
X1988740Y2003051D01*
Y1998051*
X1978740Y2000551*
X2098740D02*
X2062649D01*
X2098740D02*
X2088740Y1998051D01*
Y2003051*
X2098740Y2000551*
X1978740Y1965709D02*
Y2005551D01*
X2098740Y1965709D02*
Y2005551D01*
X2018286Y2003364D02*
X2020786D01*
X2019422Y2000864*
X2020104*
X2020558Y2000551*
X2020786Y2000239*
X2021013Y1999301*
Y1998676*
X2020786Y1997739*
X2020331Y1997114*
X2019649Y1996801*
X2018967*
X2018286Y1997114*
X2018058Y1997426*
X2017831Y1998051*
X2024422Y2003364D02*
X2023740Y2003051D01*
X2023286Y2002114*
X2023058Y2000551*
Y1999614*
X2023286Y1998051*
X2023740Y1997114*
X2024422Y1996801*
X2024877*
X2025558Y1997114*
X2026013Y1998051*
X2026240Y1999614*
Y2000551*
X2026013Y2002114*
X2025558Y2003051*
X2024877Y2003364*
X2024422*
X2028513Y1997426D02*
X2028286Y1997114D01*
X2028513Y1996801*
X2028740Y1997114*
X2028513Y1997426*
X2033058Y2003364D02*
X2030786Y1998989D01*
X2034195*
X2033058Y2003364D02*
Y1996801D01*
X2037377Y2003364D02*
X2036695Y2003051D01*
X2036467Y2002426*
Y2001801*
X2036695Y2001176*
X2037149Y2000864*
X2038058Y2000551*
X2038740Y2000239*
X2039195Y1999614*
X2039422Y1998989*
Y1998051*
X2039195Y1997426*
X2038967Y1997114*
X2038286Y1996801*
X2037377*
X2036695Y1997114*
X2036467Y1997426*
X2036240Y1998051*
Y1998989*
X2036467Y1999614*
X2036922Y2000239*
X2037604Y2000551*
X2038513Y2000864*
X2038967Y2001176*
X2039195Y2001801*
Y2002426*
X2038967Y2003051*
X2038286Y2003364*
X2037377*
X2042831D02*
X2042149Y2003051D01*
X2041695Y2002114*
X2041467Y2000551*
Y1999614*
X2041695Y1998051*
X2042149Y1997114*
X2042831Y1996801*
X2043286*
X2043967Y1997114*
X2044422Y1998051*
X2044649Y1999614*
Y2000551*
X2044422Y2002114*
X2043967Y2003051*
X2043286Y2003364*
X2042831*
X2046695Y2001176D02*
Y1996801D01*
Y1999926D02*
X2047377Y2000864D01*
X2047831Y2001176*
X2048513*
X2048967Y2000864*
X2049195Y1999926*
Y1996801*
Y1999926D02*
X2049877Y2000864D01*
X2050331Y2001176*
X2051013*
X2051467Y2000864*
X2051695Y1999926*
Y1996801*
X2053740Y2001176D02*
Y1996801D01*
Y1999926D02*
X2054422Y2000864D01*
X2054877Y2001176*
X2055558*
X2056013Y2000864*
X2056240Y1999926*
Y1996801*
Y1999926D02*
X2056922Y2000864D01*
X2057377Y2001176*
X2058058*
X2058513Y2000864*
X2058740Y1999926*
Y1996801*
X1968504Y2009220D02*
X1983504D01*
X1968504D02*
X1978504Y2011720D01*
Y2006720*
X1968504Y2009220*
X1953531D02*
X1938531D01*
X1953531D02*
X1943531Y2006720D01*
Y2011720*
X1953531Y2009220*
X1968504Y1973504D02*
Y2014220D01*
X1953531Y1968331D02*
Y2014220D01*
X1899622Y2012033D02*
X1902122D01*
X1900759Y2009533*
X1901441*
X1901895Y2009220*
X1902122Y2008908*
X1902350Y2007970*
Y2007345*
X1902122Y2006408*
X1901668Y2005783*
X1900986Y2005470*
X1900304*
X1899622Y2005783*
X1899395Y2006095*
X1899168Y2006720*
X1904622Y2006095D02*
X1904395Y2005783D01*
X1904622Y2005470*
X1904850Y2005783*
X1904622Y2006095*
X1908031Y2012033D02*
X1907350Y2011720D01*
X1907122Y2011095*
Y2010470*
X1907350Y2009845*
X1907804Y2009533*
X1908713Y2009220*
X1909395Y2008908*
X1909850Y2008283*
X1910077Y2007658*
Y2006720*
X1909850Y2006095*
X1909622Y2005783*
X1908941Y2005470*
X1908031*
X1907350Y2005783*
X1907122Y2006095*
X1906895Y2006720*
Y2007658*
X1907122Y2008283*
X1907577Y2008908*
X1908259Y2009220*
X1909168Y2009533*
X1909622Y2009845*
X1909850Y2010470*
Y2011095*
X1909622Y2011720*
X1908941Y2012033*
X1908031*
X1913486D02*
X1912804Y2011720D01*
X1912350Y2010783*
X1912122Y2009220*
Y2008283*
X1912350Y2006720*
X1912804Y2005783*
X1913486Y2005470*
X1913941*
X1914622Y2005783*
X1915077Y2006720*
X1915304Y2008283*
Y2009220*
X1915077Y2010783*
X1914622Y2011720*
X1913941Y2012033*
X1913486*
X1917804D02*
X1920304D01*
X1918941Y2009533*
X1919622*
X1920077Y2009220*
X1920304Y2008908*
X1920531Y2007970*
Y2007345*
X1920304Y2006408*
X1919850Y2005783*
X1919168Y2005470*
X1918486*
X1917804Y2005783*
X1917577Y2006095*
X1917350Y2006720*
X1922577Y2009845D02*
Y2005470D01*
Y2008595D02*
X1923259Y2009533D01*
X1923713Y2009845*
X1924395*
X1924850Y2009533*
X1925077Y2008595*
Y2005470*
Y2008595D02*
X1925759Y2009533D01*
X1926213Y2009845*
X1926895*
X1927350Y2009533*
X1927577Y2008595*
Y2005470*
X1929622Y2009845D02*
Y2005470D01*
Y2008595D02*
X1930304Y2009533D01*
X1930759Y2009845*
X1931441*
X1931895Y2009533*
X1932122Y2008595*
Y2005470*
Y2008595D02*
X1932804Y2009533D01*
X1933259Y2009845*
X1933941*
X1934395Y2009533*
X1934622Y2008595*
Y2005470*
X2068740Y1638114D02*
X2053740D01*
X2068740D02*
X2058740Y1635614D01*
Y1640614*
X2068740Y1638114*
X2098740D02*
X2113740D01*
X2098740D02*
X2108740Y1640614D01*
Y1635614*
X2098740Y1638114*
X2068740Y1665709D02*
Y1633114D01*
X2098740Y1685709D02*
Y1633114D01*
X2119922Y1640927D02*
X2117649Y1634364D01*
X2116740Y1640927D02*
X2119922D01*
X2122195Y1634989D02*
X2121967Y1634677D01*
X2122195Y1634364*
X2122422Y1634677*
X2122195Y1634989*
X2127195Y1639989D02*
X2126967Y1640614D01*
X2126286Y1640927*
X2125831*
X2125149Y1640614*
X2124695Y1639677*
X2124467Y1638114*
Y1636552*
X2124695Y1635302*
X2125149Y1634677*
X2125831Y1634364*
X2126058*
X2126740Y1634677*
X2127195Y1635302*
X2127422Y1636239*
Y1636552*
X2127195Y1637489*
X2126740Y1638114*
X2126058Y1638427*
X2125831*
X2125149Y1638114*
X2124695Y1637489*
X2124467Y1636552*
X2129695Y1639364D02*
Y1639677D01*
X2129922Y1640302*
X2130149Y1640614*
X2130604Y1640927*
X2131513*
X2131967Y1640614*
X2132195Y1640302*
X2132422Y1639677*
Y1639052*
X2132195Y1638427*
X2131740Y1637489*
X2129467Y1634364*
X2132649*
X2136058Y1640927D02*
X2135377Y1640614D01*
X2134922Y1639677*
X2134695Y1638114*
Y1637177*
X2134922Y1635614*
X2135377Y1634677*
X2136058Y1634364*
X2136513*
X2137195Y1634677*
X2137649Y1635614*
X2137877Y1637177*
Y1638114*
X2137649Y1639677*
X2137195Y1640614*
X2136513Y1640927*
X2136058*
X2139922Y1638739D02*
Y1634364D01*
Y1637489D02*
X2140604Y1638427D01*
X2141058Y1638739*
X2141740*
X2142195Y1638427*
X2142422Y1637489*
Y1634364*
Y1637489D02*
X2143104Y1638427D01*
X2143558Y1638739*
X2144240*
X2144695Y1638427*
X2144922Y1637489*
Y1634364*
X2146967Y1638739D02*
Y1634364D01*
Y1637489D02*
X2147649Y1638427D01*
X2148104Y1638739*
X2148786*
X2149240Y1638427*
X2149467Y1637489*
Y1634364*
Y1637489D02*
X2150149Y1638427D01*
X2150604Y1638739*
X2151286*
X2151740Y1638427*
X2151967Y1637489*
Y1634364*
X1978740Y1618606D02*
X1963740D01*
X1978740D02*
X1968740Y1616106D01*
Y1621106*
X1978740Y1618606*
X2018740D02*
X2033740D01*
X2018740D02*
X2028740Y1621106D01*
Y1616106*
X2018740Y1618606*
X1978740Y1685709D02*
Y1613606D01*
X2018740Y1665709D02*
Y1613606D01*
X2036740Y1620169D02*
X2037195Y1620481D01*
X2037877Y1621419*
Y1614856*
X2041286Y1621419D02*
X2040604Y1621106D01*
X2040149Y1620169*
X2039922Y1618606*
Y1617669*
X2040149Y1616106*
X2040604Y1615169*
X2041286Y1614856*
X2041740*
X2042422Y1615169*
X2042877Y1616106*
X2043104Y1617669*
Y1618606*
X2042877Y1620169*
X2042422Y1621106*
X2041740Y1621419*
X2041286*
X2045377Y1615481D02*
X2045149Y1615169D01*
X2045377Y1614856*
X2045604Y1615169*
X2045377Y1615481*
X2047649Y1620169D02*
X2048104Y1620481D01*
X2048786Y1621419*
Y1614856*
X2053558Y1620481D02*
X2053331Y1621106D01*
X2052649Y1621419*
X2052195*
X2051513Y1621106*
X2051058Y1620169*
X2050831Y1618606*
Y1617044*
X2051058Y1615794*
X2051513Y1615169*
X2052195Y1614856*
X2052422*
X2053104Y1615169*
X2053558Y1615794*
X2053786Y1616731*
Y1617044*
X2053558Y1617981*
X2053104Y1618606*
X2052422Y1618919*
X2052195*
X2051513Y1618606*
X2051058Y1617981*
X2050831Y1617044*
X2057195Y1621419D02*
X2056513Y1621106D01*
X2056058Y1620169*
X2055831Y1618606*
Y1617669*
X2056058Y1616106*
X2056513Y1615169*
X2057195Y1614856*
X2057649*
X2058331Y1615169*
X2058786Y1616106*
X2059013Y1617669*
Y1618606*
X2058786Y1620169*
X2058331Y1621106*
X2057649Y1621419*
X2057195*
X2061058Y1619231D02*
Y1614856D01*
Y1617981D02*
X2061740Y1618919D01*
X2062195Y1619231*
X2062877*
X2063331Y1618919*
X2063558Y1617981*
Y1614856*
Y1617981D02*
X2064240Y1618919D01*
X2064695Y1619231*
X2065377*
X2065831Y1618919*
X2066058Y1617981*
Y1614856*
X2068104Y1619231D02*
Y1614856D01*
Y1617981D02*
X2068786Y1618919D01*
X2069240Y1619231*
X2069922*
X2070377Y1618919*
X2070604Y1617981*
Y1614856*
Y1617981D02*
X2071286Y1618919D01*
X2071740Y1619231*
X2072422*
X2072877Y1618919*
X2073104Y1617981*
Y1614856*
X2123780Y1627276D02*
X2138780D01*
X2123780D02*
X2133780Y1629776D01*
Y1624776*
X2123780Y1627276*
X2108740D02*
X2093740D01*
X2108740D02*
X2098740Y1624776D01*
Y1629776*
X2108740Y1627276*
X2123780Y1659496D02*
Y1622276D01*
X2108740Y1658386D02*
Y1622276D01*
X2054831Y1630088D02*
X2057331D01*
X2055967Y1627588*
X2056649*
X2057104Y1627276*
X2057331Y1626963*
X2057558Y1626026*
Y1625401*
X2057331Y1624463*
X2056877Y1623838*
X2056195Y1623526*
X2055513*
X2054831Y1623838*
X2054604Y1624151*
X2054377Y1624776*
X2059831Y1624151D02*
X2059604Y1623838D01*
X2059831Y1623526*
X2060058Y1623838*
X2059831Y1624151*
X2063240Y1630088D02*
X2062558Y1629776D01*
X2062331Y1629151*
Y1628526*
X2062558Y1627901*
X2063013Y1627588*
X2063922Y1627276*
X2064604Y1626963*
X2065058Y1626338*
X2065286Y1625713*
Y1624776*
X2065058Y1624151*
X2064831Y1623838*
X2064149Y1623526*
X2063240*
X2062558Y1623838*
X2062331Y1624151*
X2062104Y1624776*
Y1625713*
X2062331Y1626338*
X2062786Y1626963*
X2063467Y1627276*
X2064377Y1627588*
X2064831Y1627901*
X2065058Y1628526*
Y1629151*
X2064831Y1629776*
X2064149Y1630088*
X2063240*
X2067558Y1628526D02*
Y1628838D01*
X2067786Y1629463*
X2068013Y1629776*
X2068467Y1630088*
X2069377*
X2069831Y1629776*
X2070058Y1629463*
X2070286Y1628838*
Y1628213*
X2070058Y1627588*
X2069604Y1626651*
X2067331Y1623526*
X2070513*
X2073922Y1630088D02*
X2073240Y1629776D01*
X2072786Y1628838*
X2072558Y1627276*
Y1626338*
X2072786Y1624776*
X2073240Y1623838*
X2073922Y1623526*
X2074377*
X2075058Y1623838*
X2075513Y1624776*
X2075740Y1626338*
Y1627276*
X2075513Y1628838*
X2075058Y1629776*
X2074377Y1630088*
X2073922*
X2077786Y1627901D02*
Y1623526D01*
Y1626651D02*
X2078467Y1627588D01*
X2078922Y1627901*
X2079604*
X2080058Y1627588*
X2080286Y1626651*
Y1623526*
Y1626651D02*
X2080967Y1627588D01*
X2081422Y1627901*
X2082104*
X2082558Y1627588*
X2082786Y1626651*
Y1623526*
X2084831Y1627901D02*
Y1623526D01*
Y1626651D02*
X2085513Y1627588D01*
X2085967Y1627901*
X2086649*
X2087104Y1627588*
X2087331Y1626651*
Y1623526*
Y1626651D02*
X2088013Y1627588D01*
X2088467Y1627901*
X2089149*
X2089604Y1627588*
X2089831Y1626651*
Y1623526*
X2188504Y2186504D02*
X2446504D01*
X2188504Y2162504D02*
X2446504D01*
X2188504Y2138504D02*
X2446504D01*
X2188504Y2114504D02*
X2446504D01*
X2188504Y2090504D02*
X2446504D01*
X2188504Y2066504D02*
X2446504D01*
X2188504Y2042504D02*
X2446504D01*
X2188504Y2018504D02*
X2446504D01*
X2188504Y2186504D02*
Y2018504D01*
X2272504Y2186504D02*
Y2018504D01*
X2308504Y2186504D02*
Y2018504D01*
X2344504Y2186504D02*
Y2018504D01*
X2398504Y2186504D02*
Y2018504D01*
X2446504Y2186504D02*
Y2018504D01*
X2224004Y2175254D02*
X2223458Y2176004D01*
X2222640Y2176379*
X2221549*
X2220731Y2176004*
X2220186Y2175254*
Y2174504*
X2220458Y2173754*
X2220731Y2173379*
X2221277Y2173004*
X2222913Y2172254*
X2223458Y2171879*
X2223731Y2171504*
X2224004Y2170754*
Y2169629*
X2223458Y2168879*
X2222640Y2168504*
X2221549*
X2220731Y2168879*
X2220186Y2169629*
X2226458Y2176379D02*
Y2168504D01*
X2232731Y2176379D02*
X2228913Y2168504D01*
Y2176379D02*
X2232731D01*
X2228913Y2168504D02*
X2232731D01*
X2235186Y2176379D02*
Y2168504D01*
Y2176379D02*
X2238731D01*
X2235186Y2172629D02*
X2237368D01*
X2235186Y2168504D02*
X2238731D01*
X2282368Y2176379D02*
X2281822Y2176004D01*
X2281277Y2175254*
X2281004Y2174504*
X2280731Y2173379*
Y2171504*
X2281004Y2170379*
X2281277Y2169629*
X2281822Y2168879*
X2282368Y2168504*
X2283458*
X2284004Y2168879*
X2284549Y2169629*
X2284822Y2170379*
X2285095Y2171504*
Y2173379*
X2284822Y2174504*
X2284549Y2175254*
X2284004Y2176004*
X2283458Y2176379*
X2282368*
X2283186Y2170004D02*
X2284822Y2167754D01*
X2289458Y2176379D02*
Y2168504D01*
X2287549Y2176379D02*
X2291368D01*
X2293822D02*
X2296004Y2172629D01*
Y2168504*
X2298186Y2176379D02*
X2296004Y2172629D01*
X2320549Y2175254D02*
X2320004Y2176004D01*
X2319186Y2176379*
X2318095*
X2317277Y2176004*
X2316731Y2175254*
Y2174504*
X2317004Y2173754*
X2317277Y2173379*
X2317822Y2173004*
X2319458Y2172254*
X2320004Y2171879*
X2320277Y2171504*
X2320549Y2170754*
Y2169629*
X2320004Y2168879*
X2319186Y2168504*
X2318095*
X2317277Y2168879*
X2316731Y2169629*
X2323004Y2176379D02*
X2325186Y2172629D01*
Y2168504*
X2327368Y2176379D02*
X2325186Y2172629D01*
X2329822Y2176379D02*
Y2168504D01*
Y2176379D02*
X2332004Y2168504D01*
X2334186Y2176379D02*
X2332004Y2168504D01*
X2334186Y2176379D02*
Y2168504D01*
X2356004Y2176379D02*
Y2168504D01*
Y2176379D02*
X2358458D01*
X2359277Y2176004*
X2359549Y2175629*
X2359822Y2174879*
Y2173754*
X2359549Y2173004*
X2359277Y2172629*
X2358458Y2172254*
X2356004*
X2362277Y2176379D02*
Y2168504D01*
X2365549*
X2370186Y2176379D02*
X2368004Y2168504D01*
X2370186Y2176379D02*
X2372368Y2168504D01*
X2368822Y2171129D02*
X2371549D01*
X2376731Y2176379D02*
Y2168504D01*
X2374822Y2176379D02*
X2378640D01*
X2381095D02*
Y2168504D01*
Y2176379D02*
X2384640D01*
X2381095Y2172629D02*
X2383277D01*
X2381095Y2168504D02*
X2384640D01*
X2387095Y2176379D02*
Y2168504D01*
Y2176379D02*
X2389004D01*
X2389822Y2176004*
X2390368Y2175254*
X2390640Y2174504*
X2390913Y2173379*
Y2171504*
X2390640Y2170379*
X2390368Y2169629*
X2389822Y2168879*
X2389004Y2168504*
X2387095*
X2415186Y2176379D02*
Y2168504D01*
X2413277Y2176379D02*
X2417095D01*
X2421186D02*
X2420640Y2176004D01*
X2420095Y2175254*
X2419822Y2174504*
X2419549Y2173379*
Y2171504*
X2419822Y2170379*
X2420095Y2169629*
X2420640Y2168879*
X2421186Y2168504*
X2422277*
X2422822Y2168879*
X2423368Y2169629*
X2423640Y2170379*
X2423913Y2171504*
Y2173379*
X2423640Y2174504*
X2423368Y2175254*
X2422822Y2176004*
X2422277Y2176379*
X2421186*
X2426368D02*
Y2168504D01*
X2429640*
X2196140Y2152379D02*
X2195322Y2152004D01*
X2194777Y2150879*
X2194504Y2149004*
Y2147879*
X2194777Y2146004*
X2195322Y2144879*
X2196140Y2144504*
X2196686*
X2197504Y2144879*
X2198049Y2146004*
X2198322Y2147879*
Y2149004*
X2198049Y2150879*
X2197504Y2152004*
X2196686Y2152379*
X2196140*
X2201049Y2145254D02*
X2200777Y2144879D01*
X2201049Y2144504*
X2201322Y2144879*
X2201049Y2145254*
X2206504Y2152379D02*
X2203777Y2147129D01*
X2207868*
X2206504Y2152379D02*
Y2144504D01*
X2211958Y2152379D02*
X2211140Y2152004D01*
X2210595Y2150879*
X2210322Y2149004*
Y2147879*
X2210595Y2146004*
X2211140Y2144879*
X2211958Y2144504*
X2212504*
X2213322Y2144879*
X2213868Y2146004*
X2214140Y2147879*
Y2149004*
X2213868Y2150879*
X2213322Y2152004*
X2212504Y2152379*
X2211958*
X2219868Y2151254D02*
X2219595Y2152004D01*
X2218777Y2152379*
X2218231*
X2217413Y2152004*
X2216868Y2150879*
X2216595Y2149004*
Y2147129*
X2216868Y2145629*
X2217413Y2144879*
X2218231Y2144504*
X2218504*
X2219322Y2144879*
X2219868Y2145629*
X2220140Y2146754*
Y2147129*
X2219868Y2148254*
X2219322Y2149004*
X2218504Y2149379*
X2218231*
X2217413Y2149004*
X2216868Y2148254*
X2216595Y2147129*
X2225322Y2152379D02*
X2222595Y2147129D01*
X2226686*
X2225322Y2152379D02*
Y2144504D01*
X2283595Y2150879D02*
X2284140Y2151254D01*
X2284958Y2152379*
Y2144504*
X2290958Y2152379D02*
X2288231D01*
X2287958Y2149004*
X2288231Y2149379*
X2289049Y2149754*
X2289868*
X2290686Y2149379*
X2291231Y2148629*
X2291504Y2147504*
X2291231Y2146754*
X2290958Y2145629*
X2290413Y2144879*
X2289595Y2144504*
X2288777*
X2287958Y2144879*
X2287686Y2145254*
X2287413Y2146004*
X2293958Y2150879D02*
X2294504Y2151254D01*
X2295322Y2152379*
Y2144504*
X2320504Y2150504D02*
X2332504D01*
X2326504Y2144504D02*
Y2156504D01*
X2353140Y2152379D02*
X2355322Y2148629D01*
Y2144504*
X2357504Y2152379D02*
X2355322Y2148629D01*
X2359958Y2152379D02*
Y2144504D01*
Y2152379D02*
X2363504D01*
X2359958Y2148629D02*
X2362140D01*
X2359958Y2144504D02*
X2363504D01*
X2369777Y2151254D02*
X2369231Y2152004D01*
X2368413Y2152379*
X2367322*
X2366504Y2152004*
X2365958Y2151254*
Y2150504*
X2366231Y2149754*
X2366504Y2149379*
X2367049Y2149004*
X2368686Y2148254*
X2369231Y2147879*
X2369504Y2147504*
X2369777Y2146754*
Y2145629*
X2369231Y2144879*
X2368413Y2144504*
X2367322*
X2366504Y2144879*
X2365958Y2145629*
X2407549Y2151254D02*
Y2144504D01*
X2405095Y2147879D02*
X2410004D01*
X2417368Y2153879D02*
X2412458Y2141879D01*
X2419822Y2147879D02*
X2424731D01*
X2428822Y2152379D02*
X2428004Y2152004D01*
X2427458Y2150879*
X2427186Y2149004*
Y2147879*
X2427458Y2146004*
X2428004Y2144879*
X2428822Y2144504*
X2429368*
X2430186Y2144879*
X2430731Y2146004*
X2431004Y2147879*
Y2149004*
X2430731Y2150879*
X2430186Y2152004*
X2429368Y2152379*
X2428822*
X2433731Y2145254D02*
X2433458Y2144879D01*
X2433731Y2144504*
X2434004Y2144879*
X2433731Y2145254*
X2436458Y2150879D02*
X2437004Y2151254D01*
X2437822Y2152379*
Y2144504*
X2194504Y2126879D02*
X2195049Y2127254D01*
X2195868Y2128379*
Y2120504*
X2198595Y2121254D02*
X2198322Y2120879D01*
X2198595Y2120504*
X2198868Y2120879*
X2198595Y2121254*
X2202958Y2128379D02*
X2202140Y2128004D01*
X2201595Y2126879*
X2201322Y2125004*
Y2123879*
X2201595Y2122004*
X2202140Y2120879*
X2202958Y2120504*
X2203504*
X2204322Y2120879*
X2204868Y2122004*
X2205140Y2123879*
Y2125004*
X2204868Y2126879*
X2204322Y2128004*
X2203504Y2128379*
X2202958*
X2207595Y2126879D02*
X2208140Y2127254D01*
X2208958Y2128379*
Y2120504*
X2214686Y2127254D02*
X2214413Y2128004D01*
X2213595Y2128379*
X2213049*
X2212231Y2128004*
X2211686Y2126879*
X2211413Y2125004*
Y2123129*
X2211686Y2121629*
X2212231Y2120879*
X2213049Y2120504*
X2213322*
X2214140Y2120879*
X2214686Y2121629*
X2214958Y2122754*
Y2123129*
X2214686Y2124254*
X2214140Y2125004*
X2213322Y2125379*
X2213049*
X2212231Y2125004*
X2211686Y2124254*
X2211413Y2123129*
X2287822Y2127254D02*
X2287549Y2128004D01*
X2286731Y2128379*
X2286186*
X2285368Y2128004*
X2284822Y2126879*
X2284549Y2125004*
Y2123129*
X2284822Y2121629*
X2285368Y2120879*
X2286186Y2120504*
X2286458*
X2287277Y2120879*
X2287822Y2121629*
X2288095Y2122754*
Y2123129*
X2287822Y2124254*
X2287277Y2125004*
X2286458Y2125379*
X2286186*
X2285368Y2125004*
X2284822Y2124254*
X2284549Y2123129*
X2290822Y2126504D02*
Y2126879D01*
X2291095Y2127629*
X2291368Y2128004*
X2291913Y2128379*
X2293004*
X2293549Y2128004*
X2293822Y2127629*
X2294095Y2126879*
Y2126129*
X2293822Y2125379*
X2293277Y2124254*
X2290549Y2120504*
X2294368*
X2320504D02*
X2332504Y2132504D01*
X2320504D02*
X2332504Y2120504D01*
X2353140Y2128379D02*
X2355322Y2124629D01*
Y2120504*
X2357504Y2128379D02*
X2355322Y2124629D01*
X2359958Y2128379D02*
Y2120504D01*
Y2128379D02*
X2363504D01*
X2359958Y2124629D02*
X2362140D01*
X2359958Y2120504D02*
X2363504D01*
X2369777Y2127254D02*
X2369231Y2128004D01*
X2368413Y2128379*
X2367322*
X2366504Y2128004*
X2365958Y2127254*
Y2126504*
X2366231Y2125754*
X2366504Y2125379*
X2367049Y2125004*
X2368686Y2124254*
X2369231Y2123879*
X2369504Y2123504*
X2369777Y2122754*
Y2121629*
X2369231Y2120879*
X2368413Y2120504*
X2367322*
X2366504Y2120879*
X2365958Y2121629*
X2407549Y2127254D02*
Y2120504D01*
X2405095Y2123879D02*
X2410004D01*
X2417368Y2129879D02*
X2412458Y2117879D01*
X2419822Y2123879D02*
X2424731D01*
X2428822Y2128379D02*
X2428004Y2128004D01*
X2427458Y2126879*
X2427186Y2125004*
Y2123879*
X2427458Y2122004*
X2428004Y2120879*
X2428822Y2120504*
X2429368*
X2430186Y2120879*
X2430731Y2122004*
X2431004Y2123879*
Y2125004*
X2430731Y2126879*
X2430186Y2128004*
X2429368Y2128379*
X2428822*
X2433731Y2121254D02*
X2433458Y2120879D01*
X2433731Y2120504*
X2434004Y2120879*
X2433731Y2121254*
X2436458Y2126879D02*
X2437004Y2127254D01*
X2437822Y2128379*
Y2120504*
X2194504Y2102879D02*
X2195049Y2103254D01*
X2195868Y2104379*
Y2096504*
X2198595Y2097254D02*
X2198322Y2096879D01*
X2198595Y2096504*
X2198868Y2096879*
X2198595Y2097254*
X2202958Y2104379D02*
X2202140Y2104004D01*
X2201595Y2102879*
X2201322Y2101004*
Y2099879*
X2201595Y2098004*
X2202140Y2096879*
X2202958Y2096504*
X2203504*
X2204322Y2096879*
X2204868Y2098004*
X2205140Y2099879*
Y2101004*
X2204868Y2102879*
X2204322Y2104004*
X2203504Y2104379*
X2202958*
X2210322D02*
X2207595Y2099129D01*
X2211686*
X2210322Y2104379D02*
Y2096504D01*
X2214140Y2102879D02*
X2214686Y2103254D01*
X2215504Y2104379*
Y2096504*
X2220686Y2104379D02*
X2217958Y2099129D01*
X2222049*
X2220686Y2104379D02*
Y2096504D01*
X2285640Y2102879D02*
X2286186Y2103254D01*
X2287004Y2104379*
Y2096504*
X2291095Y2104379D02*
X2290277Y2104004D01*
X2289731Y2102879*
X2289458Y2101004*
Y2099879*
X2289731Y2098004*
X2290277Y2096879*
X2291095Y2096504*
X2291640*
X2292458Y2096879*
X2293004Y2098004*
X2293277Y2099879*
Y2101004*
X2293004Y2102879*
X2292458Y2104004*
X2291640Y2104379*
X2291095*
X2320504Y2096504D02*
X2332504D01*
Y2108504*
X2320504*
Y2096504*
X2326504Y2102504D02*
Y2108504D01*
X2353140Y2104379D02*
X2355322Y2100629D01*
Y2096504*
X2357504Y2104379D02*
X2355322Y2100629D01*
X2359958Y2104379D02*
Y2096504D01*
Y2104379D02*
X2363504D01*
X2359958Y2100629D02*
X2362140D01*
X2359958Y2096504D02*
X2363504D01*
X2369777Y2103254D02*
X2369231Y2104004D01*
X2368413Y2104379*
X2367322*
X2366504Y2104004*
X2365958Y2103254*
Y2102504*
X2366231Y2101754*
X2366504Y2101379*
X2367049Y2101004*
X2368686Y2100254*
X2369231Y2099879*
X2369504Y2099504*
X2369777Y2098754*
Y2097629*
X2369231Y2096879*
X2368413Y2096504*
X2367322*
X2366504Y2096879*
X2365958Y2097629*
X2407549Y2103254D02*
Y2096504D01*
X2405095Y2099879D02*
X2410004D01*
X2417368Y2105879D02*
X2412458Y2093879D01*
X2419822Y2099879D02*
X2424731D01*
X2428822Y2104379D02*
X2428004Y2104004D01*
X2427458Y2102879*
X2427186Y2101004*
Y2099879*
X2427458Y2098004*
X2428004Y2096879*
X2428822Y2096504*
X2429368*
X2430186Y2096879*
X2430731Y2098004*
X2431004Y2099879*
Y2101004*
X2430731Y2102879*
X2430186Y2104004*
X2429368Y2104379*
X2428822*
X2433731Y2097254D02*
X2433458Y2096879D01*
X2433731Y2096504*
X2434004Y2096879*
X2433731Y2097254*
X2436458Y2102879D02*
X2437004Y2103254D01*
X2437822Y2104379*
Y2096504*
X2196140Y2080379D02*
X2195322Y2080004D01*
X2194777Y2078879*
X2194504Y2077004*
Y2075879*
X2194777Y2074004*
X2195322Y2072879*
X2196140Y2072504*
X2196686*
X2197504Y2072879*
X2198049Y2074004*
X2198322Y2075879*
Y2077004*
X2198049Y2078879*
X2197504Y2080004*
X2196686Y2080379*
X2196140*
X2201049Y2073254D02*
X2200777Y2072879D01*
X2201049Y2072504*
X2201322Y2072879*
X2201049Y2073254*
X2207595Y2080379D02*
X2204868Y2072504D01*
X2203777Y2080379D02*
X2207595D01*
X2287822Y2078504D02*
Y2078879D01*
X2288095Y2079629*
X2288368Y2080004*
X2288913Y2080379*
X2290004*
X2290549Y2080004*
X2290822Y2079629*
X2291095Y2078879*
Y2078129*
X2290822Y2077379*
X2290277Y2076254*
X2287549Y2072504*
X2291368*
X2320504D02*
X2332504D01*
X2320504Y2084504*
X2332504*
X2320504Y2072504*
X2353140Y2080379D02*
X2355322Y2076629D01*
Y2072504*
X2357504Y2080379D02*
X2355322Y2076629D01*
X2359958Y2080379D02*
Y2072504D01*
Y2080379D02*
X2363504D01*
X2359958Y2076629D02*
X2362140D01*
X2359958Y2072504D02*
X2363504D01*
X2369777Y2079254D02*
X2369231Y2080004D01*
X2368413Y2080379*
X2367322*
X2366504Y2080004*
X2365958Y2079254*
Y2078504*
X2366231Y2077754*
X2366504Y2077379*
X2367049Y2077004*
X2368686Y2076254*
X2369231Y2075879*
X2369504Y2075504*
X2369777Y2074754*
Y2073629*
X2369231Y2072879*
X2368413Y2072504*
X2367322*
X2366504Y2072879*
X2365958Y2073629*
X2407549Y2079254D02*
Y2072504D01*
X2405095Y2075879D02*
X2410004D01*
X2417368Y2081879D02*
X2412458Y2069879D01*
X2419822Y2075879D02*
X2424731D01*
X2428822Y2080379D02*
X2428004Y2080004D01*
X2427458Y2078879*
X2427186Y2077004*
Y2075879*
X2427458Y2074004*
X2428004Y2072879*
X2428822Y2072504*
X2429368*
X2430186Y2072879*
X2430731Y2074004*
X2431004Y2075879*
Y2077004*
X2430731Y2078879*
X2430186Y2080004*
X2429368Y2080379*
X2428822*
X2433731Y2073254D02*
X2433458Y2072879D01*
X2433731Y2072504*
X2434004Y2072879*
X2433731Y2073254*
X2436458Y2078879D02*
X2437004Y2079254D01*
X2437822Y2080379*
Y2072504*
X2194504Y2054879D02*
X2195049Y2055254D01*
X2195868Y2056379*
Y2048504*
X2287822Y2054504D02*
Y2054879D01*
X2288095Y2055629*
X2288368Y2056004*
X2288913Y2056379*
X2290004*
X2290549Y2056004*
X2290822Y2055629*
X2291095Y2054879*
Y2054129*
X2290822Y2053379*
X2290277Y2052254*
X2287549Y2048504*
X2291368*
X2320504D02*
X2332504Y2060504D01*
Y2048504*
X2320504Y2060504*
Y2048504*
X2356140Y2056379D02*
Y2048504D01*
Y2056379D02*
X2359958Y2048504D01*
Y2056379D02*
Y2048504D01*
X2364049Y2056379D02*
X2363504Y2056004D01*
X2362958Y2055254*
X2362686Y2054504*
X2362413Y2053379*
Y2051504*
X2362686Y2050379*
X2362958Y2049629*
X2363504Y2048879*
X2364049Y2048504*
X2365140*
X2365686Y2048879*
X2366231Y2049629*
X2366504Y2050379*
X2366777Y2051504*
Y2053379*
X2366504Y2054504*
X2366231Y2055254*
X2365686Y2056004*
X2365140Y2056379*
X2364049*
X2407549Y2055254D02*
Y2048504D01*
X2405095Y2051879D02*
X2410004D01*
X2417368Y2057879D02*
X2412458Y2045879D01*
X2419822Y2051879D02*
X2424731D01*
X2428822Y2056379D02*
X2428004Y2056004D01*
X2427458Y2054879*
X2427186Y2053004*
Y2051879*
X2427458Y2050004*
X2428004Y2048879*
X2428822Y2048504*
X2429368*
X2430186Y2048879*
X2430731Y2050004*
X2431004Y2051879*
Y2053004*
X2430731Y2054879*
X2430186Y2056004*
X2429368Y2056379*
X2428822*
X2433731Y2049254D02*
X2433458Y2048879D01*
X2433731Y2048504*
X2434004Y2048879*
X2433731Y2049254*
X2436458Y2054879D02*
X2437004Y2055254D01*
X2437822Y2056379*
Y2048504*
X2194504Y2030879D02*
X2195049Y2031254D01*
X2195868Y2032379*
Y2024504*
X2198595Y2025254D02*
X2198322Y2024879D01*
X2198595Y2024504*
X2198868Y2024879*
X2198595Y2025254*
X2204049Y2032379D02*
X2201322Y2027129D01*
X2205413*
X2204049Y2032379D02*
Y2024504D01*
X2287822Y2030504D02*
Y2030879D01*
X2288095Y2031629*
X2288368Y2032004*
X2288913Y2032379*
X2290004*
X2290549Y2032004*
X2290822Y2031629*
X2291095Y2030879*
Y2030129*
X2290822Y2029379*
X2290277Y2028254*
X2287549Y2024504*
X2291368*
X2320504Y2030504D02*
X2332504D01*
X2326504Y2024504D02*
Y2036504D01*
X2331249Y2039804D02*
X2329504Y2033504D01*
X2331249Y2039804D02*
X2332995Y2033504D01*
X2330158Y2035604D02*
X2332340D01*
X2353140Y2032379D02*
X2355322Y2028629D01*
Y2024504*
X2357504Y2032379D02*
X2355322Y2028629D01*
X2359958Y2032379D02*
Y2024504D01*
Y2032379D02*
X2363504D01*
X2359958Y2028629D02*
X2362140D01*
X2359958Y2024504D02*
X2363504D01*
X2369777Y2031254D02*
X2369231Y2032004D01*
X2368413Y2032379*
X2367322*
X2366504Y2032004*
X2365958Y2031254*
Y2030504*
X2366231Y2029754*
X2366504Y2029379*
X2367049Y2029004*
X2368686Y2028254*
X2369231Y2027879*
X2369504Y2027504*
X2369777Y2026754*
Y2025629*
X2369231Y2024879*
X2368413Y2024504*
X2367322*
X2366504Y2024879*
X2365958Y2025629*
X2407549Y2031254D02*
Y2024504D01*
X2405095Y2027879D02*
X2410004D01*
X2417368Y2033879D02*
X2412458Y2021879D01*
X2419822Y2027879D02*
X2424731D01*
X2428822Y2032379D02*
X2428004Y2032004D01*
X2427458Y2030879*
X2427186Y2029004*
Y2027879*
X2427458Y2026004*
X2428004Y2024879*
X2428822Y2024504*
X2429368*
X2430186Y2024879*
X2430731Y2026004*
X2431004Y2027879*
Y2029004*
X2430731Y2030879*
X2430186Y2032004*
X2429368Y2032379*
X2428822*
X2433731Y2025254D02*
X2433458Y2024879D01*
X2433731Y2024504*
X2434004Y2024879*
X2433731Y2025254*
X2436458Y2030879D02*
X2437004Y2031254D01*
X2437822Y2032379*
Y2024504*
G54D18*
X2038740Y1645709D02*
X2038743D01*
X2038740Y1978780D02*
X2038743D01*
X1953740Y1812244D02*
X1953743D01*
X2123740D02*
X2123743D01*
X1978740Y1900709D02*
X1978743D01*
X1978740Y1910709D02*
X1978743D01*
X1978740Y1960709D02*
X1978743D01*
X2098740D02*
X2098743D01*
X1968504Y1968504D02*
X1968507D01*
X1953531Y1963331D02*
X1953534D01*
X2068740Y1670709D02*
X2068743D01*
X2098740Y1690709D02*
X2098743D01*
X1978740D02*
X1978743D01*
X2018740Y1670709D02*
X2018743D01*
X2123780Y1664496D02*
X2123782D01*
X2108740Y1663386D02*
X2108743D01*
X0Y0D02*
M02*
