%
T1C.016F95S300
X196014Y165551
X196014Y168110
X196014Y170591
X196014Y172631
X196014Y174611
X196014Y177551
X196014Y180551
X196014Y182531
X196014Y185531
X196014Y188591
X196014Y190571
X196014Y193571
X196014Y197411
X200334Y197049
X200391Y195383
X199496Y193456
X199496Y192116
X199377Y184313
X200186Y183624
X199194Y181271
X199374Y180371
X198534Y175991
X198714Y174551
X200809Y173956
X199943Y173892
X200519Y173274
X198830Y168110
X199874Y167071
X199874Y165551
X202314Y167831
X203240Y167951
X201374Y168071
X202310Y168830
X203240Y169017
X201403Y169068
X202314Y170411
X201403Y170591
X201834Y171611
X202021Y172028
X203274Y172031
X202914Y172151
X202929Y172637
X202190Y172665
X202553Y172805
X201564Y173429
X201714Y173831
X202562Y174851
X202794Y175211
X202374Y175224
X203194Y175342
X203213Y175821
X202854Y176190
X202314Y176231
X202606Y176563
X202242Y176598
X202931Y176894
X202613Y177222
X201054Y177791
X201834Y178511
X201474Y179051
X201954Y179951
X201533Y183624
X201534Y184931
X202056Y187270
X203034Y189131
X203102Y189662
X201354Y190031
X203047Y190060
X201696Y190257
X202074Y190691
X203334Y191651
X202134Y192131
X201826Y193164
X203334Y193164
X203515Y197115
X204354Y197111
X205974Y195791
X204534Y193931
X205618Y193780
X204983Y192551
X204414Y192131
X205134Y191831
X204294Y190031
X205014Y190031
X204054Y189311
X204834Y189191
X205074Y188831
X204474Y188771
X205554Y183071
X204234Y179891
X204654Y179771
X205194Y179711
X203626Y179702
X205374Y179351
X205734Y179291
X203994Y179231
X203528Y177985
X205432Y177422
X205011Y177135
X205273Y176806
X205254Y176411
X205254Y175991
X205494Y175511
X204114Y172931
X205616Y172422
X204610Y172394
X204954Y172151
X203694Y172091
X204234Y172091
X205434Y171971
X205374Y168071
X208382Y165672
X207374Y166071
X207413Y168056
X207417Y168574
X208374Y168585
X206214Y173171
X206574Y173471
X207114Y174431
X207594Y174491
X207834Y174851
X207594Y175151
X207954Y175451
X207612Y175720
X207336Y176172
X207293Y176576
X206571Y185522
X207488Y186805
X208309Y188852
X206879Y188944
X206454Y189071
X207619Y190037
X206299Y194449
X208199Y195971
X208194Y197231
X210774Y197231
X211614Y197231
X211614Y194591
X211614Y191651
X211614Y186611
X211614Y182591
X208794Y178691
X211614Y178571
X208674Y177251
X208614Y174491
X211614Y173591
X208703Y172435
X211610Y168611
X211613Y167420
X209828Y165672
X211613Y165672
T2C.02756F197S550
X203033Y185771
X204955Y185771
T3C.03937F197S550
X202985Y195933
X204715Y195933
T4C.04F139S550
X197874Y169071
X197874Y170071
X197874Y171071
X197874Y172071
X197874Y173071
X197874Y174071
X197874Y175071
X197874Y176071
X197874Y177071
X197874Y178071
X197874Y179071
X197874Y180071
X197874Y181071
X197874Y182071
X197874Y183071
X197874Y184071
X197874Y185071
X197874Y186071
X197874Y187071
X197874Y188071
X197874Y189071
X197874Y190071
X197874Y191071
X197874Y192071
X197874Y193071
X197874Y194071
X197874Y195071
X197874Y196071
X201874Y167071
X202874Y167071
X203874Y167071
X204874Y167071
X205874Y167071
X206874Y167071
X209874Y169071
X209874Y170071
X209874Y171071
X209874Y172071
X209874Y173071
X209874Y174071
X209874Y175071
X209874Y176071
X209874Y177071
X209874Y178071
X209874Y179071
X209874Y180071
X209874Y181071
X209874Y182071
X209874Y183071
X209874Y184071
X209874Y185071
X209874Y186071
X209874Y187071
X209874Y188071
X209874Y189071
X209874Y190071
X209874Y191071
X209874Y192071
X209874Y193071
X209874Y194071
X209874Y195071
X209874Y196071
T5C.041F139S550
X199474Y176951
X200474Y176951
X199380Y185731
X200380Y185731
X199380Y186731
X200380Y186731
X199380Y187731
X200380Y187731
X199380Y188731
X200380Y188731
T6C.05512F107S550
X202373Y181871
X204295Y181871
M30
