*
*
G04 PADS Layout (Build Number 2007.42.1) generated Gerber (RS-274-X) file*
G04 PC Version=2.1*
*
%IN "MB913-0127-e.pcb"*%
*
%MOIN*%
*
%FSLAX35Y35*%
*
*
*
*
G04 PC Standard Apertures*
*
*
G04 Thermal Relief Aperture macro.*
%AMTER*
1,1,$1,0,0*
1,0,$1-$2,0,0*
21,0,$3,$4,0,0,45*
21,0,$3,$4,0,0,135*
%
*
*
G04 Annular Aperture macro.*
%AMANN*
1,1,$1,0,0*
1,0,$2,0,0*
%
*
*
G04 Odd Aperture macro.*
%AMODD*
1,1,$1,0,0*
1,0,$1-0.005,0,0*
%
*
*
G04 PC Custom Aperture Macros*
*
*
*
*
*
*
G04 PC Aperture Table*
*
%ADD010R,0.02362X0.02362*%
%ADD011C,0.01*%
%ADD012C,0.008*%
%ADD015C,0.012*%
%ADD017C,0.006*%
%ADD019R,0.035X0.035*%
%ADD021R,0.065X0.065*%
%ADD022C,0.065*%
%ADD024R,0.06X0.06*%
%ADD026C,0.06*%
%ADD027R,0.063X0.063*%
%ADD028C,0.063*%
%ADD032C,0.03*%
%ADD033C,0.039*%
%ADD038C,0.005*%
%ADD039C,0.03937*%
%ADD040C,0.01013*%
%ADD043C,0.00984*%
%ADD044R,0.02X0.02*%
%ADD045R,0.05906X0.05906*%
%ADD046C,0.07874*%
%ADD047C,0.05906*%
%ADD048R,0.05118X0.05118*%
%ADD049R,0.02756X0.02756*%
%ADD050R,0.06299X0.06299*%
%ADD051R,0.26378X0.26378*%
%ADD052R,0.045X0.045*%
%ADD057C,0.00787*%
%ADD061R,0.025X0.025*%
%ADD062R,0.01772X0.01772*%
%ADD063C,0.00551*%
%ADD064C,0.00512*%
*
*
*
*
G04 PC Copper Outlines (0)*
G04 Layer Name MB913-0127-e.pcb - dark (0)*
%LPD*%
*
*
G04 PC Area=_PSI_PAC_JUMPER_000_*
G75*
G36*
G01*
X3170718Y1780740D02*
X3173868D01*
X3175836Y1782709D01*
X3173868Y1784677D01*
X3170718D01*
Y1780740D01*
G37*
G74*
*
*
G04 PC Copper Outlines (1)*
G04 Layer Name MB913-0127-e.pcb - dark (1)*
%LPD*%
*
*
G04 PC Area=_PSI_PAC_JUMPER_001_*
G75*
G36*
G01*
X3174852Y1784677D02*
X3176820Y1782709D01*
X3174852Y1780740D01*
X3180167D01*
Y1784677D01*
X3174852D01*
G37*
G74*
*
*
G04 PC Copper Outlines (2)*
G04 Layer Name MB913-0127-e.pcb - dark (2)*
%LPD*%
*
*
G04 PC Area=_PSI_PAC_JUMPER_000_*
G75*
G36*
G01*
X3251949Y1776350D02*
X3255098D01*
X3257067Y1778319D01*
X3255098Y1780287D01*
X3251949D01*
Y1776350D01*
G37*
G74*
*
*
G04 PC Copper Outlines (3)*
G04 Layer Name MB913-0127-e.pcb - dark (3)*
%LPD*%
*
*
G04 PC Area=_PSI_PAC_JUMPER_001_*
G75*
G36*
G01*
X3256083Y1780287D02*
X3258051Y1778319D01*
X3256083Y1776350D01*
X3261398D01*
Y1780287D01*
X3256083D01*
G37*
G74*
*
*
G04 PC Copper Outlines (4)*
G04 Layer Name MB913-0127-e.pcb - dark (4)*
%LPD*%
*
*
G04 PC Area=_PSI_PAC_JUMPER_000_P324000000*
G75*
G36*
G01*
X3191925Y1746303D02*
X3188776D01*
X3186807Y1744335D01*
X3188776Y1742366D01*
X3191925D01*
Y1746303D01*
G37*
G74*
*
*
G04 PC Copper Outlines (5)*
G04 Layer Name MB913-0127-e.pcb - dark (5)*
%LPD*%
*
*
G04 PC Area=_PSI_PAC_JUMPER_001_P324000000*
G75*
G36*
G01*
X3187791Y1742366D02*
X3185823Y1744335D01*
X3187791Y1746303D01*
X3182476D01*
Y1742366D01*
X3187791D01*
G37*
G74*
*
*
G04 PC Copper Outlines (6)*
G04 Layer Name MB913-0127-e.pcb - dark (6)*
%LPD*%
*
*
G04 PC Area=_PSI_PAC_CASE-A_000_P162000000*
G75*
G36*
G01*
X3194443Y1955609D02*
Y1962409D01*
X3188843D01*
Y1955609D01*
X3194443D01*
G37*
G74*
*
*
G04 PC Copper Outlines (7)*
G04 Layer Name MB913-0127-e.pcb - dark (7)*
%LPD*%
*
*
G04 PC Area=_PSI_PAC_CASE-A_001_P162000000*
G75*
G36*
G01*
X3194443Y1965409D02*
Y1972209D01*
X3188843D01*
Y1965409D01*
X3194443D01*
G37*
G74*
*
*
G04 PC Copper Outlines (8)*
G04 Layer Name MB913-0127-e.pcb - dark (8)*
%LPD*%
*
*
G04 PC Area=_PSI_PAC_CASE-A_000_P162000000*
G75*
G36*
G01*
X3250843Y1959209D02*
Y1966009D01*
X3245243D01*
Y1959209D01*
X3250843D01*
G37*
G74*
*
*
G04 PC Copper Outlines (9)*
G04 Layer Name MB913-0127-e.pcb - dark (9)*
%LPD*%
*
*
G04 PC Area=_PSI_PAC_CASE-A_001_P162000000*
G75*
G36*
G01*
X3250843Y1969009D02*
Y1975809D01*
X3245243D01*
Y1969009D01*
X3250843D01*
G37*
G74*
*
*
G04 PC Copper Outlines (10)*
G04 Layer Name MB913-0127-e.pcb - dark (10)*
%LPD*%
*
*
G04 PC Area=_PSI_PAC_CASE-AA_000_P324000000*
G75*
G36*
G01*
X3187943Y1799909D02*
X3181143D01*
Y1794309D01*
X3187943D01*
Y1799909D01*
G37*
G74*
*
*
G04 PC Copper Outlines (11)*
G04 Layer Name MB913-0127-e.pcb - dark (11)*
%LPD*%
*
*
G04 PC Area=_PSI_PAC_CASE-AA_001_P324000000*
G75*
G36*
G01*
X3178143Y1799909D02*
X3171343D01*
Y1794309D01*
X3178143D01*
Y1799909D01*
G37*
G74*
*
*
G04 PC Copper Outlines (12)*
G04 Layer Name MB913-0127-e.pcb - dark (12)*
%LPD*%
*
*
G04 PC Area=Custom_Thermal*
*
G04 PC Custom Flashes*
G04 Layer Name MB913-0127-e.pcb - flashes*
%LPD*%
*
*
G04 PC Circuitry*
G04 Layer Name MB913-0127-e.pcb - circuitry*
%LPD*%
*
G54D10*
G01X3268443Y1961189D02*
Y1959378D01*
X3230709Y1931457D02*
Y1929646D01*
G54D11*
X3234881Y1977874D02*
Y1982550D01*
X3204306*
Y1977835*
X3204481Y1964646D02*
Y1955512D01*
X3234906Y1963740D02*
Y1955630D01*
X3207362Y1946300D02*
X3211506D01*
X3227231Y1946325D02*
X3232481D01*
X3225906Y1943425D02*
X3223906Y1941425D01*
X3227906*
X3225906Y1943425*
X3234843Y1693409D02*
Y1717909D01*
X3259343*
Y1693409*
X3234843*
X3252941Y1705767D02*
G75*
G03X3252941I-5512J0D01*
G01X3181443Y1692809D02*
Y1717309D01*
X3205943*
Y1692809*
X3181443*
X3199541Y1705167D02*
G03X3199541I-5512J0D01*
G01X3213505Y1871359D02*
Y1877459D01*
X3215473Y1871359D02*
Y1877459D01*
X3217442Y1871359D02*
Y1877459D01*
X3219410Y1871359D02*
Y1877459D01*
X3221379Y1871359D02*
Y1877459D01*
X3223347Y1871359D02*
Y1877459D01*
X3225316Y1871359D02*
Y1877459D01*
X3227284Y1871359D02*
Y1877459D01*
X3229253Y1871359D02*
Y1877459D01*
X3231221Y1871359D02*
Y1877459D01*
X3242736Y1882873D02*
X3236636D01*
X3242736Y1884842D02*
X3236636D01*
X3242736Y1886810D02*
X3236636D01*
X3242736Y1888779D02*
X3236636D01*
X3242736Y1890747D02*
X3236636D01*
X3242736Y1892716D02*
X3236636D01*
X3242736Y1894684D02*
X3236636D01*
X3242736Y1896653D02*
X3236636D01*
X3242736Y1898621D02*
X3236636D01*
X3242736Y1900590D02*
X3236636D01*
X3231221Y1906004D02*
Y1912104D01*
X3229253Y1906004D02*
Y1912104D01*
X3227284Y1906004D02*
Y1912104D01*
X3225316Y1906004D02*
Y1912104D01*
X3223347Y1906004D02*
Y1912104D01*
X3221379Y1906004D02*
Y1912104D01*
X3219410Y1906004D02*
Y1912104D01*
X3217442Y1906004D02*
Y1912104D01*
X3215473Y1906004D02*
Y1912104D01*
X3213505Y1906004D02*
Y1912104D01*
X3208090Y1900590D02*
X3201990D01*
X3208090Y1898621D02*
X3201990D01*
X3208090Y1896653D02*
X3201990D01*
X3208090Y1894684D02*
X3201990D01*
X3208090Y1892716D02*
X3201990D01*
X3208090Y1890747D02*
X3201990D01*
X3208090Y1888779D02*
X3201990D01*
X3208090Y1886810D02*
X3201990D01*
X3208090Y1884842D02*
X3201990D01*
X3208090Y1882873D02*
X3201990D01*
X3173474Y1782709D03*
X3177805D03*
X3254705Y1778319D03*
X3259035D03*
X3189169Y1744335D03*
X3184839D03*
X3134843Y1645709D02*
X3304843D01*
Y1978780*
X3134843*
Y1645709*
G54D12*
X3164843Y1965472D02*
Y1685945D01*
X3154843*
Y1965472*
X3164843*
X3274843Y1685945D02*
Y1965472D01*
X3284843*
Y1685945*
X3274843*
X3190000Y1675709D02*
X3259685D01*
Y1665709*
X3190000*
Y1675709*
X3238031Y1781693D02*
Y1745394D01*
X3200709*
Y1781693*
X3238031*
X3235646Y1779449D02*
G03X3235646I-1000J0D01*
G01X3240616Y1785440D02*
G03X3240616I-1994J0D01*
G01X3239771Y1785243D02*
G03X3239771I-913J0D01*
G01X3239803Y1785440D02*
G03X3239803I-1063J0D01*
G01X3239494Y1785322D02*
G03X3239494I-1187J0D01*
G01X3239528Y1785007D02*
G03X3239528I-1024J0D01*
G01X3239290Y1785243D02*
G03X3239290I-668J0D01*
G01X3239803Y1784653D02*
G03X3239803I-1378J0D01*
G01X3240155Y1785125D02*
G03X3240155I-1061J0D01*
G54D15*
G01X3208843Y1874409D02*
G03X3208843I-600J0D01*
G01X3214243Y1882909D02*
G03X3214243I-600J0D01*
G54D17*
G01X3261183Y1789909D02*
X3263663D01*
X3244984Y1817012D02*
X3242504D01*
X3228243Y1805569D02*
Y1803088D01*
X3203643Y1803049D02*
Y1805529D01*
X3183243Y1790569D02*
Y1788088D01*
X3258902Y1965109D02*
X3256422D01*
X3262983Y1879309D02*
X3265463D01*
X3252843Y1787449D02*
Y1789929D01*
X3179433Y1900287D02*
Y1897807D01*
X3197702Y1872109D02*
X3195222D01*
X3233043Y1845169D02*
Y1842688D01*
X3210243Y1842049D02*
Y1844529D01*
X3250028Y1897425D02*
X3252508D01*
X3176043Y1746356D02*
Y1745608D01*
X3176515Y1745135*
X3176023Y1744643*
X3176456Y1744210*
X3176003Y1743757*
X3176417Y1743344*
X3176003Y1742931*
Y1742458*
X3169339Y1670693D02*
X3168591D01*
X3168118Y1670220*
X3167626Y1670713*
X3167193Y1670280*
X3166740Y1670732*
X3166327Y1670319*
X3165913Y1670732*
X3165441*
X3272350Y1671067D02*
X3271602D01*
X3271130Y1670594*
X3270638Y1671087*
X3270205Y1670654*
X3269752Y1671106*
X3269339Y1670693*
X3268925Y1671106*
X3268453*
X3264843Y1769756D02*
Y1769008D01*
X3265315Y1768535*
X3264823Y1768043*
X3265256Y1767610*
X3264803Y1767157*
X3265217Y1766744*
X3264803Y1766331*
Y1765858*
X3188290Y1724509D02*
X3187542D01*
X3187069Y1724036*
X3186577Y1724528*
X3186144Y1724095*
X3185691Y1724548*
X3185278Y1724135*
X3184865Y1724548*
X3184392*
X3225949Y1681476D02*
Y1680728D01*
X3226421Y1680256*
X3225929Y1679764*
X3226362Y1679331*
X3225909Y1678878*
X3226323Y1678465*
X3225909Y1678051*
Y1677579*
X3190772Y1924146D02*
X3191520D01*
X3191992Y1924618*
X3192484Y1924126*
X3192917Y1924559*
X3193370Y1924106*
X3193783Y1924520*
X3194197Y1924106*
X3194669*
X3210586Y1879905D02*
Y1903405D01*
X3234086*
Y1879905*
X3210586*
X3246530Y1884909D02*
X3244955D01*
X3246530Y1894709D02*
X3244955D01*
X3233643Y1915796D02*
Y1914221D01*
X3223443Y1915896D02*
Y1914321D01*
X3213743Y1915796D02*
Y1914221D01*
X3198355Y1896609D02*
X3199930D01*
X3198255Y1886809D02*
X3199830D01*
X3211243Y1867621D02*
Y1869196D01*
X3219643Y1867621D02*
Y1869196D01*
X3229343Y1867721D02*
Y1869296D01*
X3190531Y1893492D02*
Y1851917D01*
X3168957*
Y1868098*
X3170413*
Y1876957*
X3169035*
Y1893492*
X3190531*
X3186443Y1782709D02*
X3186943Y1783209D01*
X3187443Y1782709*
X3187943Y1783209*
X3188443Y1782709*
X3225949Y1688965D02*
Y1688217D01*
X3226421Y1687744*
X3225929Y1687252*
X3226362Y1686819*
X3225909Y1686366*
X3226323Y1685953*
X3225909Y1685539*
Y1685067*
X3241657Y1803563D02*
X3242406D01*
X3242878Y1804035*
X3243370Y1803543*
X3243803Y1803976*
X3244256Y1803524*
X3244669Y1803937*
X3245083Y1803524*
X3245555*
X3252843Y1885369D02*
Y1882888D01*
X3191343Y1764009D02*
Y1775009D01*
X3170343*
Y1764009*
X3191343*
X3173343D02*
X3170343Y1767009D01*
X3172343Y1764009D02*
X3170343Y1766009D01*
X3170843Y1765009D02*
X3171843Y1764009D01*
X3171343D02*
X3170843Y1764509D01*
X3184983Y1753909D02*
X3187463D01*
X3178383D02*
X3180863D01*
X3175090Y1724509D02*
X3174342D01*
X3173869Y1724036*
X3173377Y1724528*
X3172944Y1724095*
X3172491Y1724548*
X3172078Y1724135*
X3171665Y1724548*
X3171192*
X3278206Y1972047D02*
G03X3278206I-2222J0D01*
G01X3245917Y1725618D02*
Y1723138D01*
X3216243Y1802261D02*
Y1803009D01*
X3215770Y1803482*
X3216262Y1803974*
X3215829Y1804407*
X3216282Y1804860*
X3215869Y1805273*
X3216282Y1805687*
Y1806159*
X3227443Y1809709D02*
X3228443D01*
X3229443Y1809909*
X3230443Y1810209*
X3231343Y1810509*
X3232243Y1811009*
X3233043Y1811609*
X3233843Y1812309*
X3234443Y1813009*
X3235043Y1813909*
X3235543Y1814709*
X3235943Y1815709*
X3236243Y1816609*
X3236443Y1817609*
Y1818709*
Y1819709*
X3236243Y1820709*
X3235943Y1821609*
X3235543Y1822609*
X3235043Y1823409*
X3234443Y1824309*
X3233843Y1825009*
X3233043Y1825709*
X3232243Y1826309*
X3231343Y1826809*
X3230443Y1827109*
X3229443Y1827409*
X3228443Y1827609*
X3227443Y1827709*
X3201443D02*
X3200443Y1827609D01*
X3199443Y1827409*
X3198443Y1827109*
X3197543Y1826809*
X3196643Y1826309*
X3195843Y1825709*
X3195043Y1825009*
X3194443Y1824309*
X3193843Y1823409*
X3193343Y1822609*
X3192943Y1821609*
X3192643Y1820709*
X3192543Y1819709*
X3192443Y1818709*
X3192543Y1817609*
X3192643Y1816609*
X3192943Y1815709*
X3193343Y1814709*
X3193843Y1813909*
X3194443Y1813009*
X3195043Y1812309*
X3195843Y1811609*
X3196643Y1811009*
X3197543Y1810509*
X3198443Y1810209*
X3199443Y1809909*
X3200443Y1809709*
X3201443*
Y1809693D02*
X3228443D01*
X3200443Y1827646D02*
X3228443D01*
X3218443Y1818709D02*
X3220443D01*
X3218443Y1813209D02*
Y1824209D01*
X3212943D02*
X3215943D01*
X3212943Y1813209D02*
Y1824209D01*
Y1813209D02*
X3215943D01*
Y1824209*
X3210443Y1813209D02*
Y1824209D01*
X3208443Y1818709D02*
X3210443D01*
X3209260D02*
G03X3209260I-4424J0D01*
G01X3210742D02*
G03X3210742I-5906J0D01*
G01X3229954D02*
G03X3229954I-5905J0D01*
G01X3228531D02*
G03X3228531I-4482J0D01*
G01X3187443Y1953409D02*
X3195843D01*
Y1973209*
X3187443*
Y1953409*
Y1954609D02*
X3195843D01*
X3243843Y1957009D02*
X3252243D01*
Y1976809*
X3243843*
Y1957009*
Y1958209D02*
X3252243D01*
X3190143Y1792909D02*
Y1801309D01*
X3170343*
Y1792909*
X3190143*
X3188943D02*
Y1801309D01*
X3208043Y1866709D02*
X3207043D01*
X3206043Y1866509*
X3205043Y1866209*
X3204143Y1865909*
X3203243Y1865409*
X3202443Y1864809*
X3201643Y1864109*
X3201043Y1863409*
X3200443Y1862509*
X3199943Y1861709*
X3199543Y1860709*
X3199243Y1859809*
X3199043Y1858809*
Y1857709*
Y1856709*
X3199243Y1855709*
X3199543Y1854809*
X3199943Y1853809*
X3200443Y1853009*
X3201043Y1852109*
X3201643Y1851409*
X3202443Y1850709*
X3203243Y1850109*
X3204143Y1849609*
X3205043Y1849309*
X3206043Y1849009*
X3207043Y1848809*
X3208043Y1848709*
X3234043D02*
X3235043Y1848809D01*
X3236043Y1849009*
X3237043Y1849309*
X3237943Y1849609*
X3238843Y1850109*
X3239643Y1850709*
X3240443Y1851409*
X3241043Y1852109*
X3241643Y1853009*
X3242143Y1853809*
X3242543Y1854809*
X3242843Y1855709*
X3242943Y1856709*
X3243043Y1857709*
X3242943Y1858809*
X3242843Y1859809*
X3242543Y1860709*
X3242143Y1861709*
X3241643Y1862509*
X3241043Y1863409*
X3240443Y1864109*
X3239643Y1864809*
X3238843Y1865409*
X3237943Y1865909*
X3237043Y1866209*
X3236043Y1866509*
X3235043Y1866709*
X3234043*
Y1866862D02*
X3207043D01*
X3235043Y1848555D02*
X3207043D01*
X3217043Y1857709D02*
X3215043D01*
X3217043Y1863209D02*
Y1852209D01*
X3222543D02*
X3219543D01*
X3222543Y1863209D02*
Y1852209D01*
Y1863209D02*
X3219543D01*
Y1852209*
X3225043Y1863209D02*
Y1852209D01*
X3227043Y1857709D02*
X3225043D01*
X3178383Y1724509D02*
X3180863D01*
X3251962Y1797935D02*
Y1796361D01*
X3266923*
Y1797935*
Y1804628D02*
Y1819589D01*
X3251962Y1804235D02*
Y1819589D01*
Y1825888D02*
Y1827857D01*
X3266923*
Y1826282*
X3258261Y1806203D02*
Y1809746D01*
X3260230*
Y1806203*
X3258261*
X3257080D02*
Y1809746D01*
X3261411Y1806203D02*
Y1809746D01*
X3257080Y1807975D02*
X3255112D01*
X3261411D02*
X3263576D01*
X3255112D02*
Y1804431D01*
X3263576Y1807975D02*
Y1804431D01*
X3265443Y1972370D02*
Y1956909D01*
X3271443*
Y1972370*
X3265443*
Y1973309D02*
Y1956909D01*
X3271443*
Y1973309*
X3265443*
X3269702Y1965244D02*
X3266907D01*
X3269506Y1963787D02*
X3268443Y1964850D01*
X3267084Y1963492*
X3269702*
X3269378Y1963817*
X3268403Y1966189D02*
Y1965756D01*
X3268364Y1963157D02*
Y1962685D01*
X3227709Y1942638D02*
Y1927176D01*
X3233709*
Y1942638*
X3227709*
Y1943576D02*
Y1927176D01*
X3233709*
Y1943576*
X3227709*
X3231969Y1935512D02*
X3229173D01*
X3231772Y1934055D02*
X3230709Y1935118D01*
X3229350Y1933760*
X3231969*
X3231644Y1934085*
X3230669Y1936457D02*
Y1936024D01*
X3230630Y1933425D02*
Y1932953D01*
X3190123Y1731419D02*
Y1718619D01*
X3198123*
Y1731419*
X3190123*
X3191247Y1725091D02*
X3192192D01*
X3192724Y1724560*
X3193294Y1725131*
X3193806Y1724619*
X3194377Y1725190*
X3194987Y1724580*
X3195361Y1724954*
X3196365*
X3175943Y1750309D02*
Y1756409D01*
X3171343*
Y1753359*
X3175943Y1750859D02*
Y1747809D01*
X3171343*
Y1754509*
X3174643Y1752109D02*
X3172643D01*
X3170543Y1750309D02*
Y1756409D01*
X3165943*
Y1753359*
X3170543Y1750859D02*
Y1747809D01*
X3165943*
Y1754509*
X3169243Y1752109D02*
X3167243D01*
X3211090Y1935709D02*
X3210342D01*
X3209869Y1935236*
X3209377Y1935728*
X3208944Y1935295*
X3208491Y1935748*
X3208078Y1935335*
X3207665Y1935748*
X3207192*
X3267897Y1791321D02*
X3267783Y1791634D01*
X3267556Y1791946*
X3267329Y1792102*
X3266874*
X3266647Y1791946*
X3266420Y1791634*
X3266306Y1791321*
X3266193Y1790852*
Y1790071*
X3266306Y1789602*
X3266420Y1789290*
X3266647Y1788977*
X3266874Y1788821*
X3267329*
X3267556Y1788977*
X3267783Y1789290*
X3267897Y1789602*
X3268920Y1791477D02*
X3269147Y1791634D01*
X3269488Y1792102*
Y1788821*
X3272102Y1792102D02*
X3270965Y1788821D01*
X3270511Y1792102D02*
X3272102D01*
X3243043Y1827106D02*
X3242929Y1827418D01*
X3242702Y1827731*
X3242474Y1827887*
X3242020*
X3241793Y1827731*
X3241565Y1827418*
X3241452Y1827106*
X3241338Y1826637*
Y1825856*
X3241452Y1825387*
X3241565Y1825074*
X3241793Y1824762*
X3242020Y1824606*
X3242474*
X3242702Y1824762*
X3242929Y1825074*
X3243043Y1825387*
X3244065Y1827262D02*
X3244293Y1827418D01*
X3244633Y1827887*
X3244633D02*
Y1824606D01*
X3245656Y1827262D02*
X3245883Y1827418D01*
X3245883D02*
X3246224Y1827887D01*
Y1824606*
X3235752Y1810394D02*
X3235638Y1810706D01*
X3235411Y1811019*
X3235184Y1811175*
X3234729*
X3234502Y1811019*
X3234275Y1810706*
X3234161Y1810394*
X3234047Y1809925*
Y1809144*
X3234161Y1808675*
X3234275Y1808362*
X3234502Y1808050*
X3234729Y1807894*
X3235184*
X3235411Y1808050*
X3235638Y1808362*
X3235752Y1808675*
X3236775Y1810550D02*
X3237002Y1810706D01*
X3237343Y1811175*
Y1807894*
X3238593Y1811175D02*
X3239843D01*
X3239161Y1809925*
X3239502*
X3239729Y1809769*
X3239843Y1809612*
X3239956Y1809144*
Y1808831*
X3239843Y1808362*
X3239615Y1808050*
X3239275Y1807894*
X3238934*
X3238593Y1808050*
X3238479Y1808206*
X3238365Y1808519*
X3204704Y1799402D02*
X3204590Y1799715D01*
X3204363Y1800027*
X3204136Y1800184*
X3203681*
X3203454Y1800027*
X3203227Y1799715*
X3203113Y1799402*
X3202999Y1798934*
Y1798152*
X3203113Y1797684*
X3203227Y1797371*
X3203454Y1797059*
X3203681Y1796902*
X3204136*
X3204363Y1797059*
X3204590Y1797371*
X3204704Y1797684*
X3205727Y1799559D02*
X3205954Y1799715D01*
X3206295Y1800184*
Y1796902*
X3207431Y1799402D02*
Y1799559D01*
X3207545Y1799871*
X3207658Y1800027*
X3207886Y1800184*
X3208340*
X3208568Y1800027*
X3208681Y1799871*
X3208795Y1799559*
Y1799246*
X3208681Y1798934*
X3208454Y1798465*
X3207318Y1796902*
X3208908*
X3172571Y1791185D02*
X3172457Y1791498D01*
X3172230Y1791810*
X3172003Y1791966*
X3171548*
X3171321Y1791810*
X3171093Y1791498*
X3170980Y1791185*
X3170866Y1790716*
Y1789935*
X3170980Y1789466*
X3171093Y1789154*
X3171321Y1788841*
X3171548Y1788685*
X3172003*
X3172230Y1788841*
X3172457Y1789154*
X3172571Y1789466*
X3173593Y1791341D02*
X3173821Y1791498D01*
X3174162Y1791966*
Y1788685*
X3176662Y1791966D02*
X3175525D01*
X3175412Y1790560*
X3175525Y1790716*
X3175866Y1790873*
X3176207*
X3176548Y1790716*
X3176775Y1790404*
X3176889Y1789935*
X3176775Y1789623*
X3176662Y1789154*
X3176434Y1788841*
X3176093Y1788685*
X3175753*
X3175412Y1788841*
X3175298Y1788998*
X3175184Y1789310*
X3257208Y1957193D02*
X3257095Y1957505D01*
X3256868Y1957818*
X3256640Y1957974*
X3256186*
X3255958Y1957818*
X3255731Y1957505*
X3255618Y1957193*
X3255504Y1956724*
Y1955943*
X3255618Y1955474*
X3255731Y1955162*
X3255958Y1954849*
X3256186Y1954693*
X3256640*
X3256868Y1954849*
X3257095Y1955162*
X3257208Y1955474*
X3258458Y1957974D02*
X3259708D01*
X3259027Y1956724*
X3259368*
X3259595Y1956568*
X3259708Y1956412*
X3259822Y1955943*
Y1955630*
X3259708Y1955162*
X3259481Y1954849*
X3259140Y1954693*
X3258799*
X3258458Y1954849*
X3258345Y1955005*
X3258231Y1955318*
X3264173Y1867268D02*
X3263861Y1867154D01*
X3263548Y1866927*
X3263392Y1866699*
Y1866245*
X3263548Y1866018*
X3263861Y1865790*
X3264173Y1865677*
X3264642Y1865563*
X3265423*
X3265892Y1865677*
X3266204Y1865790*
X3266517Y1866018*
X3266673Y1866245*
Y1866699*
X3266517Y1866927*
X3266204Y1867154*
X3265892Y1867268*
X3263392Y1869881D02*
X3266673Y1868745D01*
X3263392Y1868290D02*
Y1869881D01*
X3241765Y1790402D02*
X3241652Y1790715D01*
X3241424Y1791027*
X3241197Y1791184*
X3240743*
X3240515Y1791027*
X3240288Y1790715*
X3240174Y1790402*
X3240061Y1789934*
Y1789152*
X3240174Y1788684*
X3240288Y1788371*
X3240515Y1788059*
X3240743Y1787902*
X3241197*
X3241424Y1788059*
X3241652Y1788371*
X3241765Y1788684*
X3242788Y1790559D02*
X3243015Y1790715D01*
X3243356Y1791184*
Y1787902*
X3245743Y1790715D02*
X3245629Y1791027D01*
X3245288Y1791184*
X3245061*
X3244720Y1791027*
X3244493Y1790559*
X3244379Y1789777*
Y1788996*
X3244493Y1788371*
X3244720Y1788059*
X3245061Y1787902*
X3245174*
X3245515Y1788059*
X3245743Y1788371*
X3245856Y1788840*
Y1788996*
X3245743Y1789465*
X3245515Y1789777*
X3245174Y1789934*
X3245061*
X3244720Y1789777*
X3244493Y1789465*
X3244379Y1788996*
X3169728Y1899602D02*
X3169615Y1899915D01*
X3169387Y1900227*
X3169160Y1900384*
X3168705*
X3168478Y1900227*
X3168251Y1899915*
X3168137Y1899602*
X3168024Y1899134*
Y1898352*
X3168137Y1897884*
X3168251Y1897571*
X3168478Y1897259*
X3168705Y1897102*
X3169160*
X3169387Y1897259*
X3169615Y1897571*
X3169728Y1897884*
X3171887Y1900384D02*
X3170751Y1898196D01*
X3172455*
X3171887Y1900384D02*
Y1897102D01*
X3194365Y1881602D02*
X3194252Y1881915D01*
X3194024Y1882227*
X3193797Y1882384*
X3193343*
X3193115Y1882227*
X3192888Y1881915*
X3192774Y1881602*
X3192661Y1881134*
Y1880352*
X3192774Y1879884*
X3192888Y1879571*
X3193115Y1879259*
X3193343Y1879102*
X3193797*
X3194024Y1879259*
X3194252Y1879571*
X3194365Y1879884*
X3195956Y1882384D02*
X3195615Y1882227D01*
X3195502Y1881915*
Y1881602*
X3195615Y1881290*
X3195843Y1881134*
X3196297Y1880977*
X3196638Y1880821*
X3196865Y1880509*
X3196979Y1880196*
Y1879727*
X3196865Y1879415*
X3196752Y1879259*
X3196411Y1879102*
X3195956*
X3195615Y1879259*
X3195502Y1879415*
X3195388Y1879727*
Y1880196*
X3195502Y1880509*
X3195729Y1880821*
X3196070Y1880977*
X3196524Y1881134*
X3196752Y1881290*
X3196865Y1881602*
Y1881915*
X3196752Y1882227*
X3196411Y1882384*
X3195956*
X3221965Y1844402D02*
X3221852Y1844715D01*
X3221624Y1845027*
X3221397Y1845184*
X3220943*
X3220715Y1845027*
X3220488Y1844715*
X3220374Y1844402*
X3220261Y1843934*
Y1843152*
X3220374Y1842684*
X3220488Y1842371*
X3220715Y1842059*
X3220943Y1841902*
X3221397*
X3221624Y1842059*
X3221852Y1842371*
X3221965Y1842684*
X3222988Y1844559D02*
X3223215Y1844715D01*
X3223556Y1845184*
Y1841902*
X3225261Y1845184D02*
X3224920Y1845027D01*
X3224693Y1844559*
X3224579Y1843777*
Y1843309*
X3224693Y1842527*
X3224920Y1842059*
X3225261Y1841902*
X3225488*
X3225829Y1842059*
X3226056Y1842527*
X3226170Y1843309*
Y1843777*
X3226056Y1844559*
X3225829Y1845027*
X3225488Y1845184*
X3225261*
X3199165Y1843802D02*
X3199052Y1844115D01*
X3198824Y1844427*
X3198597Y1844584*
X3198143*
X3197915Y1844427*
X3197688Y1844115*
X3197574Y1843802*
X3197461Y1843334*
Y1842552*
X3197574Y1842084*
X3197688Y1841771*
X3197915Y1841459*
X3198143Y1841302*
X3198597*
X3198824Y1841459*
X3199052Y1841771*
X3199165Y1842084*
X3201665Y1843490D02*
X3201552Y1843021D01*
X3201324Y1842709*
X3200983Y1842552*
X3200870*
X3200529Y1842709*
X3200302Y1843021*
X3200188Y1843490*
Y1843646*
X3200302Y1844115*
X3200529Y1844427*
X3200870Y1844584*
X3200983*
X3201324Y1844427*
X3201552Y1844115*
X3201665Y1843490*
Y1842709*
X3201552Y1841927*
X3201324Y1841459*
X3200983Y1841302*
X3200756*
X3200415Y1841459*
X3200302Y1841771*
X3257099Y1896719D02*
X3256985Y1897031D01*
X3256758Y1897344*
X3256531Y1897500*
X3256076*
X3255849Y1897344*
X3255621Y1897031*
X3255508Y1896719*
X3255394Y1896250*
Y1895469*
X3255508Y1895000*
X3255621Y1894688*
X3255849Y1894375*
X3256076Y1894219*
X3256531*
X3256758Y1894375*
X3256985Y1894688*
X3257099Y1895000*
X3259599Y1897500D02*
X3258462D01*
X3258349Y1896094*
X3258462Y1896250*
X3258803Y1896406*
X3259144*
X3259485Y1896250*
X3259712Y1895938*
X3259826Y1895469*
X3259712Y1895156*
X3259599Y1894688*
X3259371Y1894375*
X3259031Y1894219*
X3258690*
X3258349Y1894375*
X3258235Y1894531*
X3258121Y1894844*
X3181898Y1741884D02*
Y1738602D01*
Y1741884D02*
X3182920D01*
X3183261Y1741727*
X3183375Y1741571*
X3183489Y1741259*
Y1740946*
X3183375Y1740634*
X3183261Y1740477*
X3182920Y1740321*
X3181898*
X3182693D02*
X3183489Y1738602D01*
X3184511Y1741259D02*
X3184739Y1741415D01*
X3185079Y1741884*
Y1738602*
X3187579Y1741884D02*
X3186443D01*
X3186329Y1740477*
X3186443Y1740634*
X3186784Y1740790*
X3187125*
X3187466Y1740634*
X3187693Y1740321*
X3187807Y1739852*
X3187693Y1739540*
X3187579Y1739071*
X3187352Y1738759*
X3187011Y1738602*
X3186670*
X3186329Y1738759*
X3186216Y1738915*
X3186102Y1739227*
X3171685Y1676647D02*
Y1673366D01*
Y1676647D02*
X3172708D01*
X3173049Y1676491*
X3173162Y1676335*
X3173276Y1676022*
Y1675710*
X3173162Y1675397*
X3173049Y1675241*
X3172708Y1675085*
X3171685*
X3172480D02*
X3173276Y1673366D01*
X3174412Y1675866D02*
Y1676022D01*
X3174526Y1676335*
X3174640Y1676491*
X3174867Y1676647*
X3175321*
X3175549Y1676491*
X3175662Y1676335*
X3175776Y1676022*
Y1675710*
X3175662Y1675397*
X3175435Y1674929*
X3174299Y1673366*
X3175890*
X3177026Y1675866D02*
Y1676022D01*
X3177140Y1676335*
X3177253Y1676491*
X3177480Y1676647*
X3177935*
X3178162Y1676491*
X3178276Y1676335*
X3178390Y1676022*
Y1675710*
X3178276Y1675397*
X3178049Y1674929*
X3176912Y1673366*
X3178503*
X3265854Y1681391D02*
Y1678110D01*
Y1681391D02*
X3266877D01*
X3267218Y1681235*
X3267332Y1681079*
X3267445Y1680766*
Y1680454*
X3267332Y1680141*
X3267218Y1679985*
X3266877Y1679829*
X3265854*
X3266650D02*
X3267445Y1678110D01*
X3268582Y1680610D02*
Y1680766D01*
X3268695Y1681079*
X3268809Y1681235*
X3269036Y1681391*
X3269491*
X3269718Y1681235*
X3269832Y1681079*
X3269945Y1680766*
Y1680454*
X3269832Y1680141*
X3269604Y1679673*
X3268468Y1678110*
X3270059*
X3271309Y1681391D02*
X3272559D01*
X3271877Y1680141*
X3272218*
X3272445Y1679985*
X3272559Y1679829*
X3272673Y1679360*
Y1679048*
X3272559Y1678579*
X3272332Y1678266*
X3271991Y1678110*
X3271650*
X3271309Y1678266*
X3271195Y1678423*
X3271082Y1678735*
X3252500Y1770608D02*
Y1767327D01*
Y1770608D02*
X3253523D01*
X3253864Y1770452*
X3253977Y1770296*
X3254091Y1769983*
Y1769671*
X3253977Y1769358*
X3253864Y1769202*
X3253523Y1769046*
X3252500*
X3253295D02*
X3254091Y1767327D01*
X3255114Y1769983D02*
X3255341Y1770139D01*
X3255682Y1770608*
Y1767327*
X3256932Y1770608D02*
X3258182D01*
X3257500Y1769358*
X3257841*
X3258068Y1769202*
X3258182Y1769046*
X3258295Y1768577*
Y1768264*
X3258182Y1767796*
X3257955Y1767483*
X3257614Y1767327*
X3257273*
X3256932Y1767483*
X3256818Y1767639*
X3256705Y1767952*
X3183067Y1737974D02*
Y1734693D01*
Y1737974D02*
X3184090D01*
X3184431Y1737818*
X3184544Y1737662*
X3184658Y1737349*
Y1737037*
X3184544Y1736724*
X3184431Y1736568*
X3184090Y1736412*
X3183067*
X3183862D02*
X3184658Y1734693D01*
X3185681Y1737349D02*
X3185908Y1737505D01*
X3186249Y1737974*
Y1734693*
X3187840Y1737974D02*
X3187499Y1737818D01*
X3187385Y1737505*
Y1737193*
X3187499Y1736880*
X3187726Y1736724*
X3188181Y1736568*
X3188521Y1736412*
X3188749Y1736099*
X3188862Y1735787*
Y1735318*
X3188749Y1735005*
X3188635Y1734849*
X3188294Y1734693*
X3187840*
X3187499Y1734849*
X3187385Y1735005*
X3187271Y1735318*
Y1735787*
X3187385Y1736099*
X3187612Y1736412*
X3187953Y1736568*
X3188408Y1736724*
X3188635Y1736880*
X3188749Y1737193*
Y1737505*
X3188635Y1737818*
X3188294Y1737974*
X3187840*
X3213264Y1685399D02*
Y1682118D01*
Y1685399D02*
X3214287D01*
X3214627Y1685243*
X3214741Y1685087*
X3214855Y1684774*
Y1684462*
X3214741Y1684149*
X3214627Y1683993*
X3214287Y1683837*
X3213264*
X3214059D02*
X3214855Y1682118D01*
X3215991Y1684618D02*
Y1684774D01*
X3216105Y1685087*
X3216218Y1685243*
X3216446Y1685399*
X3216900*
X3217127Y1685243*
X3217241Y1685087*
X3217355Y1684774*
Y1684462*
X3217241Y1684149*
X3217014Y1683681*
X3215877Y1682118*
X3217468*
X3218491Y1684774D02*
X3218718Y1684931D01*
X3219059Y1685399*
Y1682118*
X3190382Y1917151D02*
Y1913870D01*
Y1917151D02*
X3191405D01*
X3191746Y1916995*
X3191859Y1916839*
X3191973Y1916526*
Y1916214*
X3191859Y1915901*
X3191746Y1915745*
X3191405Y1915589*
X3190382*
X3191177D02*
X3191973Y1913870D01*
X3194359Y1916683D02*
X3194246Y1916995D01*
X3193905Y1917151*
X3193677*
X3193336Y1916995*
X3193109Y1916526*
X3192996Y1915745*
Y1914964*
X3193109Y1914339*
X3193336Y1914026*
X3193677Y1913870*
X3193791*
X3194132Y1914026*
X3194359Y1914339*
X3194473Y1914808*
Y1914964*
X3194359Y1915433*
X3194132Y1915745*
X3193791Y1915901*
X3193677*
X3193336Y1915745*
X3193109Y1915433*
X3192996Y1914964*
X3201441Y1914293D02*
Y1911949D01*
X3201555Y1911481*
X3201782Y1911168*
X3202123Y1911012*
X3202350*
X3202691Y1911168*
X3202918Y1911481*
X3203032Y1911949*
Y1914293*
X3204168Y1913512D02*
Y1913668D01*
X3204282Y1913981*
X3204395Y1914137*
X3204623Y1914293*
X3205077*
X3205305Y1914137*
X3205418Y1913981*
X3205532Y1913668*
Y1913356*
X3205418Y1913043*
X3205191Y1912574*
X3204055Y1911012*
X3205645*
X3178854Y1847402D02*
X3178740Y1847715D01*
X3178513Y1848027*
X3178286Y1848184*
X3177831*
X3177604Y1848027*
X3177377Y1847715*
X3177263Y1847402*
X3177149Y1846934*
Y1846152*
X3177263Y1845684*
X3177377Y1845371*
X3177604Y1845059*
X3177831Y1844902*
X3178286*
X3178513Y1845059*
X3178740Y1845371*
X3178854Y1845684*
X3179877Y1848184D02*
Y1844902D01*
Y1848184D02*
X3181468Y1844902D01*
Y1848184D02*
Y1844902D01*
X3182604Y1847402D02*
Y1847559D01*
X3182718Y1847871*
X3182831Y1848027*
X3183058Y1848184*
X3183513*
X3183740Y1848027*
X3183854Y1847871*
X3183968Y1847559*
Y1847246*
X3183854Y1846934*
X3183627Y1846465*
X3182490Y1844902*
X3184081*
X3194249Y1784285D02*
Y1781004D01*
X3195612*
X3196635Y1783660D02*
X3196862Y1783817D01*
X3197203Y1784285*
Y1781004*
X3232945Y1689876D02*
Y1686594D01*
Y1689876D02*
X3233968D01*
X3234309Y1689719*
X3234422Y1689563*
X3234536Y1689251*
Y1688938*
X3234422Y1688626*
X3234309Y1688469*
X3233968Y1688313*
X3232945*
X3233740D02*
X3234536Y1686594D01*
X3235672Y1689094D02*
Y1689251D01*
X3235786Y1689563*
X3235899Y1689719*
X3236127Y1689876*
X3236581*
X3236809Y1689719*
X3236922Y1689563*
X3237036Y1689251*
Y1688938*
X3236922Y1688626*
X3236695Y1688157*
X3235559Y1686594*
X3237149*
X3238854Y1689876D02*
X3238513Y1689719D01*
X3238286Y1689251*
X3238172Y1688469*
Y1688001*
X3238286Y1687219*
X3238513Y1686751*
X3238854Y1686594*
X3239081*
X3239422Y1686751*
X3239649Y1687219*
X3239763Y1688001*
Y1688469*
X3239649Y1689251*
X3239422Y1689719*
X3239081Y1689876*
X3238854*
X3156231Y1680784D02*
Y1677502D01*
X3157595*
X3158618Y1680784D02*
Y1677502D01*
Y1680784D02*
X3159413D01*
X3159754Y1680627*
X3159981Y1680315*
X3160095Y1680002*
X3160208Y1679534*
Y1678752*
X3160095Y1678284*
X3159981Y1677971*
X3159754Y1677659*
X3159413Y1677502*
X3158618*
X3161458Y1680784D02*
X3162708D01*
X3162027Y1679534*
X3162368*
X3162595Y1679377*
X3162708Y1679221*
X3162822Y1678752*
Y1678440*
X3162708Y1677971*
X3162481Y1677659*
X3162140Y1677502*
X3161799*
X3161458Y1677659*
X3161345Y1677815*
X3161231Y1678127*
X3173815Y1929006D02*
Y1925724D01*
X3175179*
X3176201Y1929006D02*
Y1925724D01*
Y1929006D02*
X3176997D01*
X3177338Y1928849*
X3177565Y1928537*
X3177679Y1928224*
X3177792Y1927756*
Y1926974*
X3177679Y1926506*
X3177565Y1926193*
X3177338Y1925881*
X3176997Y1925724*
X3176201*
X3178815Y1928381D02*
X3179042Y1928537D01*
X3179383Y1929006*
Y1925724*
X3240913Y1797184D02*
Y1793902D01*
Y1797184D02*
X3241936D01*
X3242277Y1797027*
X3242390Y1796871*
X3242504Y1796559*
Y1796246*
X3242390Y1795934*
X3242277Y1795777*
X3241936Y1795621*
X3240913*
X3241708D02*
X3242504Y1793902D01*
X3243527Y1796559D02*
X3243754Y1796715D01*
X3244095Y1797184*
Y1793902*
X3245231Y1796402D02*
Y1796559D01*
X3245345Y1796871*
X3245458Y1797027*
X3245686Y1797184*
X3246140*
X3246368Y1797027*
X3246481Y1796871*
X3246595Y1796559*
Y1796246*
X3246481Y1795934*
X3246254Y1795465*
X3245118Y1793902*
X3246708*
X3255791Y1890622D02*
X3255678Y1890935D01*
X3255450Y1891247*
X3255223Y1891403*
X3254768*
X3254541Y1891247*
X3254314Y1890935*
X3254200Y1890622*
X3254087Y1890153*
Y1889372*
X3254200Y1888903*
X3254314Y1888591*
X3254541Y1888278*
X3254768Y1888122*
X3255223*
X3255450Y1888278*
X3255678Y1888591*
X3255791Y1888903*
X3258178Y1890935D02*
X3258064Y1891247D01*
X3257723Y1891403*
X3257496*
X3257155Y1891247*
X3256928Y1890778*
X3256814Y1889997*
Y1889216*
X3256928Y1888591*
X3257155Y1888278*
X3257496Y1888122*
X3257609*
X3257950Y1888278*
X3258178Y1888591*
X3258291Y1889060*
Y1889216*
X3258178Y1889685*
X3257950Y1889997*
X3257609Y1890153*
X3257496*
X3257155Y1889997*
X3256928Y1889685*
X3256814Y1889216*
X3157424Y1969984D02*
Y1966702D01*
Y1969984D02*
X3158447D01*
X3158788Y1969827*
X3158902Y1969671*
X3159015Y1969359*
Y1968890*
X3158902Y1968577*
X3158788Y1968421*
X3158447Y1968265*
X3157424*
X3160038Y1969359D02*
X3160265Y1969515D01*
X3160606Y1969984*
Y1966702*
X3278113Y1684384D02*
Y1681102D01*
Y1684384D02*
X3279136D01*
X3279477Y1684227*
X3279590Y1684071*
X3279704Y1683759*
Y1683290*
X3279590Y1682977*
X3279477Y1682821*
X3279136Y1682665*
X3278113*
X3280840Y1683602D02*
Y1683759D01*
X3280954Y1684071*
X3281068Y1684227*
X3281295Y1684384*
X3281749*
X3281977Y1684227*
X3282090Y1684071*
X3282204Y1683759*
Y1683446*
X3282090Y1683134*
X3281863Y1682665*
X3280727Y1681102*
X3282318*
X3183913Y1672384D02*
Y1669102D01*
Y1672384D02*
X3184936D01*
X3185277Y1672227*
X3185390Y1672071*
X3185504Y1671759*
Y1671290*
X3185390Y1670977*
X3185277Y1670821*
X3184936Y1670665*
X3183913*
X3186754Y1672384D02*
X3188004D01*
X3187322Y1671134*
X3187663*
X3187890Y1670977*
X3188004Y1670821*
X3188118Y1670352*
Y1670040*
X3188004Y1669571*
X3187777Y1669259*
X3187436Y1669102*
X3187095*
X3186754Y1669259*
X3186640Y1669415*
X3186527Y1669727*
X3212724Y1733474D02*
Y1731130D01*
X3212838Y1730662*
X3213065Y1730349*
X3213406Y1730193*
X3213634*
X3213974Y1730349*
X3214202Y1730662*
X3214315Y1731130*
Y1733474*
X3215565D02*
X3216815D01*
X3216134Y1732224*
X3216474*
X3216702Y1732068*
X3216815Y1731912*
X3216929Y1731443*
Y1731130*
X3216815Y1730662*
X3216588Y1730349*
X3216247Y1730193*
X3215906*
X3215565Y1730349*
X3215452Y1730505*
X3215338Y1730818*
X3167874Y1787856D02*
X3167647Y1788168D01*
X3167306Y1788325*
X3166852*
X3166511Y1788168*
X3166283Y1787856*
Y1787543*
X3166397Y1787231*
X3166511Y1787075*
X3166738Y1786918*
X3167420Y1786606*
X3167647Y1786450*
X3167761Y1786293*
X3167874Y1785981*
Y1785512*
X3167647Y1785200*
X3167306Y1785043*
X3166852*
X3166511Y1785200*
X3166283Y1785512*
X3168897Y1788325D02*
Y1785043D01*
Y1788325D02*
X3169920D01*
X3170261Y1788168*
X3170374Y1788012*
X3170488Y1787700*
Y1787387*
X3170374Y1787075*
X3170261Y1786918*
X3169920Y1786762*
X3168897D02*
X3169920D01*
X3170261Y1786606*
X3170374Y1786450*
X3170488Y1786137*
Y1785668*
X3170374Y1785356*
X3170261Y1785200*
X3169920Y1785043*
X3168897*
X3171511Y1787700D02*
X3171738Y1787856D01*
X3172079Y1788325*
Y1785043*
X3283673Y1675179D02*
Y1671898D01*
X3285037*
X3286060Y1675179D02*
Y1671898D01*
Y1675179D02*
X3286855D01*
X3287196Y1675023*
X3287423Y1674710*
X3287537Y1674398*
X3287651Y1673929*
X3287651D02*
Y1673148D01*
X3287651D02*
X3287537Y1672679D01*
X3287423Y1672366*
X3287196Y1672054*
X3286855Y1671898*
X3286060*
X3289810Y1675179D02*
X3288673Y1672991D01*
X3290378*
X3289810Y1675179D02*
Y1671898D01*
X3227043Y1923990D02*
Y1920709D01*
X3228406*
X3229429Y1923990D02*
Y1920709D01*
Y1923990D02*
X3230224D01*
X3230565Y1923834*
X3230793Y1923521*
X3230906Y1923209*
X3231020Y1922740*
Y1921959*
X3230906Y1921490*
X3230793Y1921177*
X3230565Y1920865*
X3230224Y1920709*
X3229429*
X3232156Y1923209D02*
Y1923365D01*
X3232270Y1923677*
X3232383Y1923834*
X3232611Y1923990*
X3233065*
X3233293Y1923834*
X3233406Y1923677*
X3233520Y1923365*
Y1923052*
X3233406Y1922740*
X3233179Y1922271*
X3232043Y1920709*
X3233633*
X3171881Y1779184D02*
Y1776684D01*
X3171768Y1776215*
X3171654Y1776059*
X3171427Y1775902*
X3171199*
X3170972Y1776059*
X3170858Y1776215*
X3170745Y1776684*
Y1776996*
X3172904Y1779184D02*
Y1775902D01*
Y1779184D02*
X3173927D01*
X3174268Y1779027*
X3174381Y1778871*
X3174495Y1778559*
Y1778090*
X3174381Y1777777*
X3174268Y1777621*
X3173927Y1777465*
X3172904*
X3175518Y1778559D02*
X3175745Y1778715D01*
X3176086Y1779184*
Y1775902*
X3185897Y1762654D02*
X3185784Y1762966D01*
X3185557Y1763279*
X3185329Y1763435*
X3184875*
X3184647Y1763279*
X3184420Y1762966*
X3184307Y1762654*
X3184193Y1762185*
Y1761404*
X3184307Y1760935*
X3184420Y1760622*
X3184647Y1760310*
X3184875Y1760154*
X3185329*
X3185557Y1760310*
X3185784Y1760622*
X3185897Y1760935*
X3187034Y1762654D02*
Y1762810D01*
X3187147Y1763122*
X3187261Y1763279*
X3187488Y1763435*
X3187943*
X3188170Y1763279*
X3188284Y1763122*
X3188397Y1762810*
Y1762497*
X3188284Y1762185*
X3188057Y1761716*
X3186920Y1760154*
X3188511*
X3189534Y1762810D02*
X3189761Y1762966D01*
X3190102Y1763435*
Y1760154*
X3178108Y1762802D02*
X3177995Y1763115D01*
X3177768Y1763427*
X3177540Y1763584*
X3177086*
X3176858Y1763427*
X3176631Y1763115*
X3176518Y1762802*
X3176404Y1762334*
Y1761552*
X3176518Y1761084*
X3176631Y1760771*
X3176858Y1760459*
X3177086Y1760302*
X3177540*
X3177768Y1760459*
X3177995Y1760771*
X3178108Y1761084*
X3179245Y1762802D02*
Y1762959D01*
X3179358Y1763271*
X3179472Y1763427*
X3179699Y1763584*
X3180154*
X3180381Y1763427*
X3180495Y1763271*
X3180608Y1762959*
Y1762646*
X3180495Y1762334*
X3180268Y1761865*
X3179131Y1760302*
X3180722*
X3182427Y1763584D02*
X3182086Y1763427D01*
X3181858Y1762959*
X3181745Y1762177*
Y1761709*
X3181858Y1760927*
X3182086Y1760459*
X3182427Y1760302*
X3182654*
X3182995Y1760459*
X3183222Y1760927*
X3183336Y1761709*
Y1762177*
X3183222Y1762959*
X3182995Y1763427*
X3182654Y1763584*
X3182427*
X3165768Y1721384D02*
X3169049D01*
X3165768D02*
Y1722406D01*
X3165924Y1722747*
X3166080Y1722861*
X3166393Y1722975*
X3166705*
X3167018Y1722861*
X3167174Y1722747*
X3167330Y1722406*
Y1721384*
Y1722179D02*
X3169049Y1722975D01*
X3166393Y1723997D02*
X3166236Y1724225D01*
X3165768Y1724565*
X3169049*
X3165768Y1727179D02*
X3169049Y1726043D01*
X3165768Y1725588D02*
Y1727179D01*
X3279913Y1972984D02*
Y1969702D01*
X3279118Y1972984D02*
X3280708D01*
X3281731D02*
Y1969702D01*
Y1972984D02*
X3282754D01*
X3283095Y1972827*
X3283208Y1972671*
X3283322Y1972359*
Y1971890*
X3283208Y1971577*
X3283095Y1971421*
X3282754Y1971265*
X3281731*
X3284345Y1972359D02*
X3284572Y1972515D01*
X3284913Y1972984*
Y1969702*
X3254018Y1725002D02*
X3253904Y1725315D01*
X3253677Y1725627*
X3253449Y1725784*
X3252995*
X3252768Y1725627*
X3252540Y1725315*
X3252427Y1725002*
X3252313Y1724534*
Y1723752*
X3252427Y1723284*
X3252540Y1722971*
X3252768Y1722659*
X3252995Y1722502*
X3253449*
X3253677Y1722659*
X3253904Y1722971*
X3254018Y1723284*
X3255154Y1725002D02*
Y1725159D01*
X3255268Y1725471*
X3255381Y1725627*
X3255608Y1725784*
X3256063*
X3256290Y1725627*
X3256404Y1725471*
X3256518Y1725159*
Y1724846*
X3256404Y1724534*
X3256177Y1724065*
X3255040Y1722502*
X3256631*
X3257881Y1725784D02*
X3259131D01*
X3258449Y1724534*
X3258790*
X3259018Y1724377*
X3259131Y1724221*
X3259245Y1723752*
Y1723440*
X3259131Y1722971*
X3258904Y1722659*
X3258563Y1722502*
X3258222*
X3257881Y1722659*
X3257768Y1722815*
X3257654Y1723127*
X3253858Y1774163D02*
X3253631Y1774476D01*
X3253290Y1774632*
X3252835*
X3252494Y1774476*
X3252267Y1774163*
Y1773851*
X3252381Y1773538*
X3252494Y1773382*
X3252722Y1773226*
X3253403Y1772913*
X3253631Y1772757*
X3253744Y1772601*
X3253858Y1772288*
Y1771819*
X3253631Y1771507*
X3253290Y1771351*
X3252835*
X3252494Y1771507*
X3252267Y1771819*
X3254881Y1774632D02*
Y1771351D01*
Y1774632D02*
X3255903D01*
X3256244Y1774476*
X3256358Y1774319*
X3256472Y1774007*
Y1773694*
X3256358Y1773382*
X3256244Y1773226*
X3255903Y1773069*
X3254881D02*
X3255903D01*
X3256244Y1772913*
X3256358Y1772757*
X3256472Y1772444*
Y1771976*
X3256358Y1771663*
X3256244Y1771507*
X3255903Y1771351*
X3254881*
X3257608Y1773851D02*
Y1774007D01*
X3257722Y1774319*
X3257835Y1774476*
X3258062Y1774632*
X3258517*
X3258744Y1774476*
X3258858Y1774319*
X3258972Y1774007*
Y1773694*
X3258858Y1773382*
X3258631Y1772913*
X3257494Y1771351*
X3259085*
X3210313Y1800184D02*
Y1796902D01*
Y1800184D02*
X3211336D01*
X3211677Y1800027*
X3211790Y1799871*
X3211904Y1799559*
Y1799246*
X3211790Y1798934*
X3211677Y1798777*
X3211336Y1798621*
X3210313*
X3211108D02*
X3211904Y1796902D01*
X3212927Y1799559D02*
X3213154Y1799715D01*
X3213495Y1800184*
Y1796902*
X3214518Y1799559D02*
X3214745Y1799715D01*
X3215086Y1800184*
Y1796902*
X3200365Y1941602D02*
X3200252Y1941915D01*
X3200024Y1942227*
X3199797Y1942384*
X3199343*
X3199115Y1942227*
X3198888Y1941915*
X3198774Y1941602*
X3198661Y1941134*
Y1940352*
X3198774Y1939884*
X3198888Y1939571*
X3199115Y1939259*
X3199343Y1939102*
X3199797*
X3200024Y1939259*
X3200252Y1939571*
X3200365Y1939884*
X3201388Y1942384D02*
Y1939102D01*
Y1942384D02*
X3202979Y1939102D01*
Y1942384D02*
Y1939102D01*
X3204002Y1941759D02*
X3204229Y1941915D01*
X3204570Y1942384*
Y1939102*
X3194755Y1745141D02*
X3194528Y1745453D01*
X3194187Y1745610*
X3193733*
X3193392Y1745453*
X3193164Y1745141*
Y1744828*
X3193278Y1744516*
X3193392Y1744360*
X3193619Y1744203*
X3194301Y1743891*
X3194528Y1743735*
X3194642Y1743578*
X3194755Y1743266*
Y1742797*
X3194528Y1742485*
X3194187Y1742328*
X3193733*
X3193392Y1742485*
X3193164Y1742797*
X3195778Y1745610D02*
Y1742328D01*
Y1745610D02*
X3196801D01*
X3197142Y1745453*
X3197255Y1745297*
X3197369Y1744985*
Y1744672*
X3197255Y1744360*
X3197142Y1744203*
X3196801Y1744047*
X3195778D02*
X3196801D01*
X3197142Y1743891*
X3197255Y1743735*
X3197369Y1743422*
Y1742953*
X3197255Y1742641*
X3197142Y1742485*
X3196801Y1742328*
X3195778*
X3198619Y1745610D02*
X3199869D01*
X3199187Y1744360*
X3199528*
X3199755Y1744203*
X3199869Y1744047*
X3199983Y1743578*
Y1743266*
X3199869Y1742797*
X3199642Y1742485*
X3199301Y1742328*
X3198960*
X3198619Y1742485*
X3198505Y1742641*
X3198392Y1742953*
X3186313Y1819984D02*
X3187904Y1816702D01*
Y1819984D02*
X3186313Y1816702D01*
X3189040Y1819202D02*
Y1819359D01*
X3189154Y1819671*
X3189268Y1819827*
X3189495Y1819984*
X3189949*
X3190177Y1819827*
X3190290Y1819671*
X3190404Y1819359*
Y1819046*
X3190290Y1818734*
X3190063Y1818265*
X3188927Y1816702*
X3190518*
X3180362Y1955705D02*
X3180248Y1956017D01*
X3180021Y1956330*
X3179794Y1956486*
X3179339*
X3179112Y1956330*
X3178885Y1956017*
X3178771Y1955705*
X3178657Y1955236*
Y1954455*
X3178771Y1953986*
X3178885Y1953673*
X3179112Y1953361*
X3179339Y1953205*
X3179794*
X3180021Y1953361*
X3180248Y1953673*
X3180362Y1953986*
X3181385Y1955861D02*
X3181612Y1956017D01*
X3181953Y1956486*
Y1953205*
X3255161Y1974002D02*
X3255047Y1974315D01*
X3254820Y1974627*
X3254593Y1974784*
X3254138*
X3253911Y1974627*
X3253683Y1974315*
X3253570Y1974002*
X3253456Y1973534*
Y1972752*
X3253570Y1972284*
X3253683Y1971971*
X3253911Y1971659*
X3254138Y1971502*
X3254593*
X3254820Y1971659*
X3255047Y1971971*
X3255161Y1972284*
X3256297Y1974002D02*
Y1974159D01*
X3256411Y1974471*
X3256524Y1974627*
X3256752Y1974784*
X3257206*
X3257433Y1974627*
X3257547Y1974471*
X3257661Y1974159*
Y1973846*
X3257547Y1973534*
X3257320Y1973065*
X3256183Y1971502*
X3257774*
X3193165Y1798802D02*
X3193052Y1799115D01*
X3192824Y1799427*
X3192597Y1799584*
X3192143*
X3191915Y1799427*
X3191688Y1799115*
X3191574Y1798802*
X3191461Y1798334*
Y1797552*
X3191574Y1797084*
X3191688Y1796771*
X3191915Y1796459*
X3192143Y1796302*
X3192597*
X3192824Y1796459*
X3193052Y1796771*
X3193165Y1797084*
X3194188Y1798959D02*
X3194415Y1799115D01*
X3194756Y1799584*
Y1796302*
X3196915Y1799584D02*
X3195779Y1797396D01*
X3197483*
X3196915Y1799584D02*
Y1796302D01*
X3192913Y1858984D02*
X3194504Y1855702D01*
Y1858984D02*
X3192913Y1855702D01*
X3195527Y1858359D02*
X3195754Y1858515D01*
X3196095Y1858984*
Y1855702*
X3178904Y1733402D02*
X3178790Y1733715D01*
X3178563Y1734027*
X3178336Y1734184*
X3177881*
X3177654Y1734027*
X3177427Y1733715*
X3177313Y1733402*
X3177199Y1732934*
Y1732152*
X3177313Y1731684*
X3177427Y1731371*
X3177654Y1731059*
X3177881Y1730902*
X3178336*
X3178563Y1731059*
X3178790Y1731371*
X3178904Y1731684*
X3180040Y1733402D02*
Y1733559D01*
X3180154Y1733871*
X3180268Y1734027*
X3180495Y1734184*
X3180949*
X3181177Y1734027*
X3181290Y1733871*
X3181404Y1733559*
Y1733246*
X3181290Y1732934*
X3181063Y1732465*
X3179927Y1730902*
X3181518*
X3182654Y1733402D02*
Y1733559D01*
X3182768Y1733871*
X3182881Y1734027*
X3183108Y1734184*
X3183563*
X3183790Y1734027*
X3183904Y1733871*
X3184018Y1733559*
Y1733246*
X3183904Y1732934*
X3183677Y1732465*
X3182540Y1730902*
X3184131*
X3269024Y1812784D02*
X3270615Y1809502D01*
Y1812784D02*
X3269024Y1809502D01*
X3271865Y1812784D02*
X3273115D01*
X3272433Y1811534*
X3272774*
X3273002Y1811377*
X3273115Y1811221*
X3273229Y1810752*
Y1810440*
X3273115Y1809971*
X3272888Y1809659*
X3272547Y1809502*
X3272206*
X3271865Y1809659*
X3271752Y1809815*
X3271638Y1810127*
X3261449Y1969766D02*
Y1966484D01*
Y1969766D02*
X3262244D01*
X3262244D02*
X3262585Y1969609D01*
X3262812Y1969297*
X3262926Y1968984*
X3263040Y1968516*
X3263040D02*
Y1967734D01*
X3262926Y1967266*
X3262926D02*
X3262812Y1966953D01*
X3262585Y1966641*
X3262585D02*
X3262244Y1966484D01*
X3261449*
X3264062Y1969141D02*
X3264290Y1969297D01*
X3264631Y1969766*
X3264631D02*
Y1966484D01*
X3234843Y1943790D02*
Y1940509D01*
Y1943790D02*
X3235638D01*
X3235979Y1943634*
X3236206Y1943321*
X3236320Y1943009*
X3236433Y1942540*
Y1941759*
X3236320Y1941290*
X3236206Y1940977*
X3235979Y1940665*
X3235638Y1940509*
X3234843*
X3237570Y1943009D02*
Y1943165D01*
X3237683Y1943477*
X3237797Y1943634*
X3238024Y1943790*
X3238479*
X3238706Y1943634*
X3238820Y1943477*
X3238933Y1943165*
Y1942852*
X3238820Y1942540*
X3238593Y1942071*
X3237456Y1940509*
X3239047*
X3260713Y1907584D02*
Y1905240D01*
X3260827Y1904771*
X3261054Y1904459*
X3261395Y1904302*
X3261622*
X3261963Y1904459*
X3262190Y1904771*
X3262304Y1905240*
Y1907584*
X3263327Y1906959D02*
X3263554Y1907115D01*
X3263895Y1907584*
Y1904302*
X3258146Y1690919D02*
Y1687638D01*
Y1690919D02*
X3259168D01*
X3259509Y1690763*
X3259623Y1690607*
X3259737Y1690294*
Y1689982*
X3259623Y1689669*
X3259509Y1689513*
X3259168Y1689357*
X3258146D02*
X3259168D01*
X3259509Y1689200*
X3259623Y1689044*
X3259737Y1688732*
Y1688263*
X3259623Y1687950*
X3259509Y1687794*
X3259168Y1687638*
X3258146*
X3260873Y1690138D02*
Y1690294D01*
X3260987Y1690607*
X3261100Y1690763*
X3261327Y1690919*
X3261782*
X3262009Y1690763*
X3262123Y1690607*
X3262237Y1690294*
Y1689982*
X3262123Y1689669*
X3261896Y1689200*
X3260759Y1687638*
X3262350*
X3178693Y1688210D02*
Y1684929D01*
Y1688210D02*
X3179716D01*
X3180057Y1688054*
X3180170Y1687898*
X3180284Y1687585*
Y1687273*
X3180170Y1686960*
X3180057Y1686804*
X3179716Y1686648*
X3178693D02*
X3179716D01*
X3180057Y1686492*
X3180170Y1686335*
X3180284Y1686023*
Y1685554*
X3180170Y1685242*
X3180057Y1685085*
X3179716Y1684929*
X3178693*
X3181307Y1687585D02*
X3181534Y1687742D01*
X3181875Y1688210*
Y1684929*
X3199512Y1735159D02*
Y1731878D01*
Y1735159D02*
X3200535D01*
X3200875Y1735003*
X3200989Y1734847*
X3201103Y1734534*
Y1734222*
X3200989Y1733909*
X3200875Y1733753*
X3200535Y1733597*
X3199512*
X3200307D02*
X3201103Y1731878D01*
X3202125Y1734534D02*
X3202353Y1734690D01*
X3202694Y1735159*
Y1731878*
X3205194Y1734065D02*
X3205080Y1733597D01*
X3204853Y1733284*
X3204512Y1733128*
X3204398*
X3204057Y1733284*
X3203830Y1733597*
X3203716Y1734065*
Y1734222*
X3203830Y1734690*
X3204057Y1735003*
X3204398Y1735159*
X3204512*
X3204853Y1735003*
X3205080Y1734690*
X3205194Y1734065*
Y1733284*
X3205080Y1732503*
X3204853Y1732034*
X3204512Y1731878*
X3204285*
X3203944Y1732034*
X3203830Y1732347*
X3172943Y1759213D02*
X3172630Y1759100D01*
X3172318Y1758872*
X3172161Y1758645*
Y1758190*
X3172318Y1757963*
X3172630Y1757736*
X3172943Y1757622*
X3173411Y1757509*
X3174193*
X3174661Y1757622*
X3174974Y1757736*
X3175286Y1757963*
X3175443Y1758190*
Y1758645*
X3175286Y1758872*
X3174974Y1759100*
X3174661Y1759213*
X3172786Y1760236D02*
X3172630Y1760463D01*
X3172161Y1760804*
X3175443*
X3173255Y1763304D02*
X3173724Y1763190D01*
X3174036Y1762963*
X3174193Y1762622*
Y1762509*
X3174036Y1762168*
X3173724Y1761940*
X3173255Y1761827*
X3173099*
X3172630Y1761940*
X3172318Y1762168*
X3172161Y1762509*
Y1762622*
X3172318Y1762963*
X3172630Y1763190*
X3173255Y1763304*
X3174036*
X3174818Y1763190*
X3175286Y1762963*
X3175443Y1762622*
Y1762395*
X3175286Y1762054*
X3174974Y1761940*
X3168349Y1758975D02*
X3168036Y1758861D01*
X3167724Y1758634*
X3167568Y1758406*
Y1757952*
X3167724Y1757725*
X3168036Y1757497*
X3168349Y1757384*
X3168818Y1757270*
X3169599*
X3170068Y1757384*
X3170380Y1757497*
X3170693Y1757725*
X3170849Y1757952*
Y1758406*
X3170693Y1758634*
X3170380Y1758861*
X3170068Y1758975*
X3168193Y1759997D02*
X3168036Y1760225D01*
X3167568Y1760565*
X3170849*
X3167568Y1762156D02*
X3167724Y1761815D01*
X3168036Y1761702*
X3168349*
X3168661Y1761815*
X3168818Y1762043*
X3168974Y1762497*
X3169130Y1762838*
X3169443Y1763065*
X3169755Y1763179*
X3170224*
X3170536Y1763065*
X3170693Y1762952*
X3170849Y1762611*
Y1762156*
X3170693Y1761815*
X3170536Y1761702*
X3170224Y1761588*
X3169755*
X3169443Y1761702*
X3169130Y1761929*
X3168974Y1762270*
X3168818Y1762725*
X3168661Y1762952*
X3168349Y1763065*
X3168036*
X3167724Y1762952*
X3167568Y1762611*
Y1762156*
X3182421Y1910486D02*
Y1907205D01*
Y1910486D02*
X3183444D01*
X3183785Y1910330*
X3183899Y1910173*
X3184012Y1909861*
Y1909548*
X3183899Y1909236*
X3183785Y1909080*
X3183444Y1908923*
X3182421*
X3183217D02*
X3184012Y1907205D01*
X3186626Y1910486D02*
X3185489Y1907205D01*
X3185035Y1910486D02*
X3186626D01*
X3170713Y1736584D02*
Y1733302D01*
Y1736584D02*
X3171736D01*
X3172077Y1736427*
X3172190Y1736271*
X3172304Y1735959*
Y1735646*
X3172190Y1735334*
X3172077Y1735177*
X3171736Y1735021*
X3170713*
X3171508D02*
X3172304Y1733302D01*
X3173327Y1735959D02*
X3173554Y1736115D01*
X3173895Y1736584*
Y1733302*
X3176281Y1736115D02*
X3176168Y1736427D01*
X3175827Y1736584*
X3175599*
X3175258Y1736427*
X3175031Y1735959*
X3174918Y1735177*
Y1734396*
X3175031Y1733771*
X3175258Y1733459*
X3175599Y1733302*
X3175713*
X3176054Y1733459*
X3176281Y1733771*
X3176395Y1734240*
Y1734396*
X3176281Y1734865*
X3176054Y1735177*
X3175713Y1735334*
X3175599*
X3175258Y1735177*
X3175031Y1734865*
X3174918Y1734396*
X3261370Y1759984D02*
Y1756702D01*
Y1759984D02*
X3262393D01*
X3262733Y1759827*
X3262847Y1759671*
X3262961Y1759359*
Y1759046*
X3262847Y1758734*
X3262733Y1758577*
X3262393Y1758421*
X3261370*
X3262165D02*
X3262961Y1756702D01*
X3263983Y1759359D02*
X3264211Y1759515D01*
X3264552Y1759984*
Y1756702*
X3266711Y1759984D02*
X3265574Y1757796D01*
X3267279*
X3266711Y1759984D02*
Y1756702D01*
X3240143Y1929315D02*
X3243424D01*
X3240143D02*
Y1930338D01*
X3240299Y1930679*
X3240456Y1930792*
X3240768Y1930906*
X3241081*
X3241393Y1930792*
X3241549Y1930679*
X3241706Y1930338*
Y1929315*
Y1930110D02*
X3243424Y1930906D01*
X3240143Y1933406D02*
Y1932269D01*
X3241549Y1932156*
X3241393Y1932269*
X3241237Y1932610*
Y1932951*
X3241393Y1933292*
X3241706Y1933519*
X3242174Y1933633*
X3242487Y1933519*
X3242956Y1933406*
X3243268Y1933179*
X3243424Y1932838*
Y1932497*
X3243268Y1932156*
X3243112Y1932042*
X3242799Y1931929*
X3211955Y1924165D02*
X3215236D01*
X3211955D02*
Y1925188D01*
X3212111Y1925529*
X3212267Y1925643*
X3212580Y1925756*
X3212892*
X3213205Y1925643*
X3213361Y1925529*
X3213517Y1925188*
Y1924165*
Y1924961D02*
X3215236Y1925756D01*
X3212736Y1926893D02*
X3212580D01*
X3212267Y1927006*
X3212111Y1927120*
X3211955Y1927347*
Y1927802*
X3212111Y1928029*
X3212267Y1928143*
X3212580Y1928256*
X3212892*
X3213205Y1928143*
X3213674Y1927915*
X3215236Y1926779*
Y1928370*
X3221849Y1924272D02*
X3225130D01*
X3221849D02*
Y1925294D01*
X3222005Y1925635*
X3222161Y1925749*
X3222474Y1925863*
X3222786*
X3223099Y1925749*
X3223255Y1925635*
X3223411Y1925294*
Y1924272*
Y1925067D02*
X3225130Y1925863D01*
X3221849Y1928022D02*
X3224036Y1926885D01*
Y1928590*
X3221849Y1928022D02*
X3225130D01*
X3216746Y1924165D02*
X3220028D01*
X3216746D02*
Y1925188D01*
X3216903Y1925529*
X3217059Y1925643*
X3217371Y1925756*
X3217684*
X3217996Y1925643*
X3218153Y1925529*
X3218309Y1925188*
Y1924165*
Y1924961D02*
X3220028Y1925756D01*
X3216746Y1927006D02*
Y1928256D01*
X3217996Y1927574*
Y1927915*
X3218153Y1928143*
X3218309Y1928256*
X3218778Y1928370*
X3219090*
X3219559Y1928256*
X3219871Y1928029*
X3220028Y1927688*
Y1927347*
X3219871Y1927006*
X3219715Y1926893*
X3219403Y1926779*
X3258168Y1865472D02*
X3261449D01*
X3258168D02*
Y1866495D01*
X3258324Y1866836*
X3258480Y1866950*
X3258793Y1867063*
X3259105*
X3259418Y1866950*
X3259574Y1866836*
X3259730Y1866495*
Y1865472*
Y1866268D02*
X3261449Y1867063D01*
X3258793Y1868086D02*
X3258636Y1868313D01*
X3258168Y1868654*
X3261449*
X3258168Y1870359D02*
X3258324Y1870018D01*
X3258793Y1869790*
X3259574Y1869677*
X3260043*
X3260824Y1869790*
X3261293Y1870018*
X3261449Y1870359*
Y1870586*
X3261293Y1870927*
X3260824Y1871154*
X3260043Y1871268*
X3259574*
X3258793Y1871154*
X3258324Y1870927*
X3258168Y1870586*
Y1870359*
X3241318Y1878184D02*
Y1874902D01*
Y1878184D02*
X3242340D01*
X3242681Y1878027*
X3242795Y1877871*
X3242908Y1877559*
Y1877246*
X3242795Y1876934*
X3242681Y1876777*
X3242340Y1876621*
X3241318*
X3242113D02*
X3242908Y1874902D01*
X3245408Y1877090D02*
X3245295Y1876621D01*
X3245068Y1876309*
X3244727Y1876152*
X3244613*
X3244272Y1876309*
X3244045Y1876621*
X3243931Y1877090*
Y1877246*
X3244045Y1877715*
X3244272Y1878027*
X3244613Y1878184*
X3244727*
X3245068Y1878027*
X3245295Y1877715*
X3245408Y1877090*
Y1876309*
X3245295Y1875527*
X3245068Y1875059*
X3244727Y1874902*
X3244499*
X3244158Y1875059*
X3244045Y1875371*
X3241406Y1873384D02*
Y1870102D01*
Y1873384D02*
X3242429D01*
X3242770Y1873227*
X3242883Y1873071*
X3242997Y1872759*
Y1872446*
X3242883Y1872134*
X3242770Y1871977*
X3242429Y1871821*
X3241406*
X3242202D02*
X3242997Y1870102D01*
X3244588Y1873384D02*
X3244247Y1873227D01*
X3244133Y1872915*
Y1872602*
X3244247Y1872290*
X3244474Y1872134*
X3244929Y1871977*
X3245270Y1871821*
X3245497Y1871509*
X3245611Y1871196*
Y1870727*
X3245497Y1870415*
X3245383Y1870259*
X3245043Y1870102*
X3244588*
X3244247Y1870259*
X3244133Y1870415*
X3244020Y1870727*
Y1871196*
X3244133Y1871509*
X3244361Y1871821*
X3244702Y1871977*
X3245156Y1872134*
X3245383Y1872290*
X3245497Y1872602*
Y1872915*
X3245383Y1873227*
X3245043Y1873384*
X3244588*
X3207168Y1924272D02*
X3210449D01*
X3207168D02*
Y1925294D01*
X3207324Y1925635*
X3207480Y1925749*
X3207793Y1925863*
X3208105*
X3208418Y1925749*
X3208574Y1925635*
X3208730Y1925294*
Y1924272*
Y1925067D02*
X3210449Y1925863D01*
X3207793Y1926885D02*
X3207636Y1927113D01*
X3207168Y1927453*
X3210449*
G54D19*
X3262193Y1792909D02*
X3262693D01*
X3262193Y1786909D02*
X3262693D01*
X3243974Y1814012D02*
X3243474D01*
X3243974Y1820012D02*
X3243474D01*
X3231243Y1804559D02*
Y1804059D01*
X3225243Y1804559D02*
Y1804059D01*
X3200643D02*
Y1804559D01*
X3206643Y1804059D02*
Y1804559D01*
X3186243Y1789559D02*
Y1789059D01*
X3180243Y1789559D02*
Y1789059D01*
X3257893Y1962109D02*
X3257393D01*
X3257893Y1968109D02*
X3257393D01*
X3263993Y1882309D02*
X3264493D01*
X3263993Y1876309D02*
X3264493D01*
X3249843Y1788459D02*
Y1788959D01*
X3255843Y1788459D02*
Y1788959D01*
X3182433Y1899278D02*
Y1898778D01*
X3176433Y1899278D02*
Y1898778D01*
X3196693Y1869109D02*
X3196193D01*
X3196693Y1875109D02*
X3196193D01*
X3236043Y1844159D02*
Y1843659D01*
X3230043Y1844159D02*
Y1843659D01*
X3207243Y1843059D02*
Y1843559D01*
X3213243Y1843059D02*
Y1843559D01*
X3251037Y1900425D02*
X3251537D01*
X3251037Y1894425D02*
X3251537D01*
X3179043Y1744559D02*
Y1744059D01*
X3173043Y1744559D02*
Y1744059D01*
X3167541Y1667693D02*
X3167041D01*
X3167541Y1673693D02*
X3167041D01*
X3270553Y1668067D02*
X3270053D01*
X3270553Y1674067D02*
X3270053D01*
X3267843Y1767959D02*
Y1767459D01*
X3261843Y1767959D02*
Y1767459D01*
X3186493Y1721509D02*
X3185993D01*
X3186493Y1727509D02*
X3185993D01*
X3228949Y1679679D02*
Y1679179D01*
X3222949Y1679679D02*
Y1679179D01*
X3192569Y1927146D02*
X3193069D01*
X3192569Y1921146D02*
X3193069D01*
X3184443Y1782459D02*
Y1782959D01*
X3190443Y1782459D02*
Y1782959D01*
X3228949Y1687167D02*
Y1686667D01*
X3222949Y1687167D02*
Y1686667D01*
X3160053Y1667709D02*
X3159553D01*
X3160053Y1673709D02*
X3159553D01*
X3183026Y1927146D02*
X3183526D01*
X3183026Y1921146D02*
X3183526D01*
X3243455Y1806563D02*
X3243955D01*
X3243455Y1800563D02*
X3243955D01*
X3255843Y1884359D02*
Y1883859D01*
X3249843Y1884359D02*
Y1883859D01*
X3279911Y1668067D02*
X3279411D01*
X3279911Y1674067D02*
X3279411D01*
X3237057Y1925177D02*
X3237557D01*
X3237057Y1919177D02*
X3237557D01*
X3185993Y1756909D02*
X3186493D01*
X3185993Y1750909D02*
X3186493D01*
X3179393Y1756909D02*
X3179893D01*
X3179393Y1750909D02*
X3179893D01*
X3173293Y1721509D02*
X3172793D01*
X3173293Y1727509D02*
X3172793D01*
X3248917Y1724608D02*
Y1724108D01*
X3242917Y1724608D02*
Y1724108D01*
X3213243Y1804059D02*
Y1804559D01*
X3219243Y1804059D02*
Y1804559D01*
X3179393Y1727509D02*
X3179893D01*
X3179393Y1721509D02*
X3179893D01*
X3209293Y1932709D02*
X3208793D01*
X3209293Y1938709D02*
X3208793D01*
G54D21*
X3175843Y1769509D03*
G54D22*
X3185843D03*
G54D24*
X3159843Y1960709D03*
X3279843Y1690709D03*
X3199843Y1670709D03*
X3263593Y1696909D02*
X3266093D01*
X3227766D02*
X3230266D01*
X3263593Y1714626D02*
X3266093D01*
X3227766D02*
X3230266D01*
X3210193Y1696309D02*
X3212693D01*
X3174366D02*
X3176866D01*
X3210193Y1714026D02*
X3212693D01*
X3174366D02*
X3176866D01*
G54D26*
X3159843Y1950709D03*
Y1940709D03*
Y1930709D03*
Y1920709D03*
Y1910709D03*
Y1900709D03*
Y1890709D03*
Y1880709D03*
Y1870709D03*
Y1860709D03*
Y1850709D03*
Y1840709D03*
Y1830709D03*
Y1820709D03*
Y1810709D03*
Y1800709D03*
Y1790709D03*
Y1780709D03*
Y1770709D03*
Y1760709D03*
Y1750709D03*
Y1740709D03*
Y1730709D03*
Y1720709D03*
Y1710709D03*
Y1700709D03*
Y1690709D03*
X3279843Y1700709D03*
Y1710709D03*
Y1720709D03*
Y1730709D03*
Y1740709D03*
Y1750709D03*
Y1760709D03*
Y1770709D03*
Y1780709D03*
Y1790709D03*
Y1800709D03*
Y1810709D03*
Y1820709D03*
Y1830709D03*
Y1840709D03*
Y1850709D03*
Y1860709D03*
Y1870709D03*
Y1880709D03*
Y1890709D03*
Y1900709D03*
Y1910709D03*
Y1920709D03*
Y1930709D03*
Y1940709D03*
Y1950709D03*
Y1960709D03*
X3209843Y1670709D03*
X3219843D03*
X3229843D03*
X3239843D03*
X3249843D03*
G54D27*
X3174902Y1887311D03*
G54D28*
X3184902D03*
X3174902Y1877311D03*
X3184902D03*
X3174902Y1867311D03*
X3184902D03*
X3174902Y1857311D03*
X3184902D03*
G54D32*
X3275984Y1972047D03*
X3191643Y1959009D03*
Y1968809D03*
X3248043Y1962609D03*
Y1972409D03*
X3184543Y1797109D03*
X3174743D03*
G54D33*
X3289843Y1663386D03*
X3149606Y1968504D03*
G54D38*
X3259443Y1795709D02*
X3265443D01*
Y1784109*
X3259443*
Y1795709*
X3246724Y1811212D02*
X3240724D01*
Y1822812*
X3246724*
Y1811212*
X3234043Y1807309D02*
Y1801309D01*
X3222443*
Y1807309*
X3234043*
X3197843Y1801309D02*
Y1807309D01*
X3209443*
Y1801309*
X3197843*
X3189043Y1792309D02*
Y1786309D01*
X3177443*
Y1792309*
X3189043*
X3260643Y1959309D02*
X3254643D01*
Y1970909*
X3260643*
Y1959309*
X3261243Y1885109D02*
X3267243D01*
Y1873509*
X3261243*
Y1885109*
X3247043Y1785709D02*
Y1791709D01*
X3258643*
Y1785709*
X3247043*
X3185233Y1902028D02*
Y1896028D01*
X3173633*
Y1902028*
X3185233*
X3199443Y1866309D02*
X3193443D01*
Y1877909*
X3199443*
Y1866309*
X3238843Y1846909D02*
Y1840909D01*
X3227243*
Y1846909*
X3238843*
X3204443Y1840309D02*
Y1846309D01*
X3216043*
Y1840309*
X3204443*
X3248287Y1903225D02*
X3254287D01*
Y1891625*
X3248287*
Y1903225*
X3181843Y1747309D02*
Y1741309D01*
X3170243*
Y1747309*
X3181843*
X3170291Y1664893D02*
X3164291D01*
Y1676493*
X3170291*
Y1664893*
X3273303Y1665267D02*
X3267303D01*
Y1676867*
X3273303*
Y1665267*
X3270643Y1770709D02*
Y1764709D01*
X3259043*
Y1770709*
X3270643*
X3189243Y1718709D02*
X3183243D01*
Y1730309*
X3189243*
Y1718709*
X3231749Y1682429D02*
Y1676429D01*
X3220149*
Y1682429*
X3231749*
X3189819Y1929946D02*
X3195819D01*
Y1918346*
X3189819*
Y1929946*
X3181643Y1779709D02*
Y1785709D01*
X3193243*
Y1779709*
X3181643*
X3231749Y1689917D02*
Y1683917D01*
X3220149*
Y1689917*
X3231749*
X3162803Y1664909D02*
X3156803D01*
Y1676509*
X3162803*
Y1664909*
X3154724Y1671496D02*
X3156299D01*
X3153937D02*
X3155118D01*
X3154134Y1669331*
X3156102*
X3155118Y1671496*
Y1672874*
Y1669331D02*
Y1667559D01*
X3180276Y1929946D02*
X3186276D01*
Y1918346*
X3180276*
Y1929946*
X3188354Y1923358D02*
X3186780D01*
X3189142D02*
X3187961D01*
X3188945Y1925524*
X3186976*
X3187961Y1923358*
Y1921980*
Y1925524D02*
Y1927295D01*
X3240705Y1809363D02*
X3246705D01*
Y1797763*
X3240705*
Y1809363*
X3258643Y1887109D02*
Y1881109D01*
X3247043*
Y1887109*
X3258643*
X3282661Y1665267D02*
X3276661D01*
Y1676867*
X3282661*
Y1665267*
X3274583Y1671854D02*
X3276157D01*
X3273795D02*
X3274976D01*
X3273992Y1669689*
X3275961*
X3274976Y1671854*
Y1673232*
Y1669689D02*
Y1667917D01*
X3234307Y1927977D02*
X3240307D01*
Y1916377*
X3234307*
Y1927977*
X3242386Y1921390D02*
X3240811D01*
X3243173D02*
X3241992D01*
X3242976Y1923555*
X3241008*
X3241992Y1921390*
Y1920012*
Y1923555D02*
Y1925327D01*
X3183243Y1759709D02*
X3189243D01*
Y1748109*
X3183243*
Y1759709*
X3176643D02*
X3182643D01*
Y1748109*
X3176643*
Y1759709*
X3176043Y1718709D02*
X3170043D01*
Y1730309*
X3176043*
Y1718709*
X3251717Y1727358D02*
Y1721358D01*
X3240117*
Y1727358*
X3251717*
X3210443Y1801309D02*
Y1807309D01*
X3222043*
Y1801309*
X3210443*
X3176643Y1730309D02*
X3182643D01*
Y1718709*
X3176643*
Y1730309*
X3272537Y1969367D02*
X3274582D01*
X3234803Y1939635D02*
X3236849D01*
X3212043Y1929909D02*
X3206043D01*
Y1941509*
X3212043*
Y1929909*
G54D39*
X3228256Y1959325D03*
X3210956D03*
G54D40*
X3211536Y1871365D02*
Y1877452D01*
X3233190Y1871365D02*
Y1877452D01*
X3242730Y1880905D02*
X3236642D01*
X3242730Y1902558D02*
X3236642D01*
X3233190Y1906011D02*
Y1912098D01*
X3211537Y1906011D02*
Y1912098D01*
X3208084Y1902558D02*
X3201996D01*
X3208084Y1880905D02*
X3201996D01*
G54D43*
X3234213Y1788484D02*
Y1783563D01*
X3232244Y1788484D02*
Y1783563D01*
X3230276Y1788484D02*
Y1783563D01*
X3228307Y1788484D02*
Y1783563D01*
X3226339Y1788484D02*
Y1783563D01*
X3224370Y1788484D02*
Y1783563D01*
X3222402Y1788484D02*
Y1783563D01*
X3220433Y1788484D02*
Y1783563D01*
X3218465Y1788484D02*
Y1783563D01*
X3216496Y1788484D02*
Y1783563D01*
X3214528Y1788484D02*
Y1783563D01*
X3212559Y1788484D02*
Y1783563D01*
X3210591Y1788484D02*
Y1783563D01*
X3208622Y1788484D02*
Y1783563D01*
X3206654Y1788484D02*
Y1783563D01*
X3204685Y1788484D02*
Y1783563D01*
X3199232Y1778150D02*
X3194311D01*
X3199232Y1776181D02*
X3194311D01*
X3199232Y1774213D02*
X3194311D01*
X3199232Y1772244D02*
X3194311D01*
X3199232Y1770276D02*
X3194311D01*
X3199232Y1768307D02*
X3194311D01*
X3199232Y1766339D02*
X3194311D01*
X3199232Y1764370D02*
X3194311D01*
X3199232Y1762402D02*
X3194311D01*
X3199232Y1760433D02*
X3194311D01*
X3199232Y1758465D02*
X3194311D01*
X3199232Y1756496D02*
X3194311D01*
X3199232Y1754528D02*
X3194311D01*
X3199232Y1752559D02*
X3194311D01*
X3199232Y1750591D02*
X3194311D01*
X3199232Y1748622D02*
X3194311D01*
X3204685Y1743209D02*
Y1738287D01*
X3206654Y1743209D02*
Y1738287D01*
X3208622Y1743209D02*
Y1738287D01*
X3210591Y1743209D02*
Y1738287D01*
X3212559Y1743209D02*
Y1738287D01*
X3214528Y1743209D02*
Y1738287D01*
X3216496Y1743209D02*
Y1738287D01*
X3218465Y1743209D02*
Y1738287D01*
X3220433Y1743209D02*
Y1738287D01*
X3222402Y1743209D02*
Y1738287D01*
X3224370Y1743209D02*
Y1738287D01*
X3226339Y1743209D02*
Y1738287D01*
X3228307Y1743209D02*
Y1738287D01*
X3230276Y1743209D02*
Y1738287D01*
X3232244Y1743209D02*
Y1738287D01*
X3234213Y1743209D02*
Y1738287D01*
X3244547Y1748622D02*
X3239626D01*
X3244547Y1750591D02*
X3239626D01*
X3244547Y1752559D02*
X3239626D01*
X3244547Y1754528D02*
X3239626D01*
X3244547Y1756496D02*
X3239626D01*
X3244547Y1758465D02*
X3239626D01*
X3244547Y1760433D02*
X3239626D01*
X3244547Y1762402D02*
X3239626D01*
X3244547Y1764370D02*
X3239626D01*
X3244547Y1766339D02*
X3239626D01*
X3244547Y1768307D02*
X3239626D01*
X3244547Y1770276D02*
X3239626D01*
X3244547Y1772244D02*
X3239626D01*
X3244547Y1774213D02*
X3239626D01*
X3244547Y1776181D02*
X3239626D01*
X3244547Y1778150D02*
X3239626D01*
G54D44*
X3225906Y1945425D02*
Y1951425D01*
X3222756Y1945425D02*
Y1951425D01*
X3219606Y1945425D02*
Y1951425D01*
X3216456Y1945425D02*
Y1951425D01*
X3213306Y1945425D02*
Y1951425D01*
G54D45*
X3203071Y1947403D02*
Y1951497D01*
X3236535Y1947403D02*
Y1951497D01*
Y1969128D02*
Y1973222D01*
X3203071Y1969103D02*
Y1973197D01*
G54D46*
X3204836Y1818709D03*
X3224049D03*
G54D47*
X3230649Y1857709D03*
X3211436D03*
G54D48*
X3267120Y1801282D02*
X3264364D01*
X3267120Y1822935D02*
X3264364D01*
X3254521D02*
X3251765D01*
X3254521Y1801282D02*
X3251765D01*
G54D49*
X3268443Y1969417D02*
Y1968000D01*
X3230709Y1939685D02*
Y1938268D01*
G54D50*
X3267453Y1951732D02*
Y1946220D01*
X3249343Y1951732D02*
Y1946220D01*
G54D51*
X3258398Y1922795D03*
G54D52*
X3194543Y1721509D02*
X3193543D01*
X3194543Y1728509D02*
X3193543D01*
G54D57*
X3244343Y1910157D02*
Y1940630D01*
X3272413*
Y1909646*
G54D61*
X3173643Y1754109D03*
Y1750109D03*
X3168243Y1754109D03*
Y1750109D03*
G54D62*
X3182567Y1904567D02*
Y1905157D01*
X3186110Y1904567D02*
Y1905157D01*
X3171871Y1738613D02*
Y1739204D01*
X3175414Y1738613D02*
Y1739204D01*
X3261871Y1762013D02*
Y1762604D01*
X3265414Y1762013D02*
Y1762604D01*
X3237538Y1930337D02*
X3236947D01*
X3237538Y1933880D02*
X3236947D01*
X3214738Y1936337D02*
X3214147D01*
X3214738Y1939880D02*
X3214147D01*
X3223138Y1936337D02*
X3222547D01*
X3223138Y1939880D02*
X3222547D01*
X3218938Y1936337D02*
X3218347D01*
X3218938Y1939880D02*
X3218347D01*
X3259138Y1875137D02*
X3258547D01*
X3259138Y1878680D02*
X3258547D01*
X3250471Y1876613D02*
Y1877204D01*
X3254014Y1876613D02*
Y1877204D01*
X3250471Y1872413D02*
Y1873004D01*
X3254014Y1872413D02*
Y1873004D01*
G54D63*
X3184437Y1903661D02*
Y1904094D01*
X3184122Y1904409*
X3184476Y1904764*
X3184161Y1905079*
X3184476Y1905394*
Y1905945*
X3173741Y1737708D02*
Y1738141D01*
X3173426Y1738456*
X3173780Y1738810*
X3173465Y1739125*
X3173780Y1739440*
Y1739991*
X3263741Y1761108D02*
Y1761541D01*
X3263426Y1761856*
X3263780Y1762210*
X3263465Y1762525*
X3263780Y1762840*
Y1763391*
X3238443Y1932207D02*
X3238010D01*
X3237695Y1931892*
X3237341Y1932246*
X3237026Y1931931*
X3236711Y1932246*
X3236160*
X3215643Y1938207D02*
X3215210D01*
X3214895Y1937892*
X3214541Y1938246*
X3214226Y1937931*
X3213911Y1938246*
X3213360*
X3224043Y1938207D02*
X3223610D01*
X3223295Y1937892*
X3222941Y1938246*
X3222626Y1937931*
X3222311Y1938246*
X3221760*
X3219843Y1938207D02*
X3219410D01*
X3219095Y1937892*
X3218741Y1938246*
X3218426Y1937931*
X3218111Y1938246*
X3217560*
X3260043Y1877007D02*
X3259610D01*
X3259295Y1876692*
X3258941Y1877046*
X3258626Y1876731*
X3258311Y1877046*
X3257760*
X3252341Y1875708D02*
Y1876141D01*
X3252026Y1876456*
X3252380Y1876810*
X3252065Y1877125*
X3252380Y1877440*
Y1877991*
X3252341Y1871508D02*
Y1871941D01*
X3252026Y1872256*
X3252380Y1872610*
X3252065Y1872925*
X3252380Y1873240*
Y1873791*
G54D64*
X3180677Y1903209D02*
Y1906634D01*
X3187567*
Y1903209*
X3180677*
X3169981Y1737255D02*
Y1740680D01*
X3176871*
Y1737255*
X3169981*
X3259981Y1760655D02*
Y1764080D01*
X3266871*
Y1760655*
X3259981*
X3238896Y1928447D02*
X3235471D01*
Y1935337*
X3238896*
Y1928447*
X3216096Y1934447D02*
X3212671D01*
Y1941337*
X3216096*
Y1934447*
X3224496D02*
X3221071D01*
Y1941337*
X3224496*
Y1934447*
X3220296D02*
X3216871D01*
Y1941337*
X3220296*
Y1934447*
X3260496Y1873247D02*
X3257071D01*
Y1880137*
X3260496*
Y1873247*
X3248581Y1875255D02*
Y1878680D01*
X3255471*
Y1875255*
X3248581*
Y1871055D02*
Y1874480D01*
X3255471*
Y1871055*
X3248581*
G74*
X0Y0D02*
M02*
