*
*
G04 PADS Layout (Build Number 2007.42.1) generated Gerber (RS-274-X) file*
G04 PC Version=2.1*
*
%IN "MB913-0127-e.pcb"*%
*
%MOIN*%
*
%FSLAX35Y35*%
*
*
*
*
G04 PC Standard Apertures*
*
*
G04 Thermal Relief Aperture macro.*
%AMTER*
1,1,$1,0,0*
1,0,$1-$2,0,0*
21,0,$3,$4,0,0,45*
21,0,$3,$4,0,0,135*
%
*
*
G04 Annular Aperture macro.*
%AMANN*
1,1,$1,0,0*
1,0,$2,0,0*
%
*
*
G04 Odd Aperture macro.*
%AMODD*
1,1,$1,0,0*
1,0,$1-0.005,0,0*
%
*
*
G04 PC Custom Aperture Macros*
*
*
*
*
*
*
G04 PC Aperture Table*
*
%ADD011C,0.01*%
%ADD012C,0.008*%
%ADD015C,0.012*%
%ADD017C,0.006*%
%ADD038C,0.005*%
%ADD043C,0.00984*%
%ADD057C,0.00787*%
%ADD059C,0.00591*%
%ADD060C,0.00799*%
%ADD063C,0.00551*%
%ADD064C,0.00512*%
*
*
*
*
G04 PC Copper Outlines (0)*
G04 Layer Name MB913-0127-e.pcb - dark (0)*
%LPD*%
*
*
G04 PC Area=Custom_Thermal*
*
G04 PC Custom Flashes*
G04 Layer Name MB913-0127-e.pcb - flashes*
%LPD*%
*
*
G04 PC Circuitry*
G04 Layer Name MB913-0127-e.pcb - circuitry*
%LPD*%
*
G54D11*
G01X2053778Y1977874D02*
Y1982550D01*
X2023203*
Y1977835*
X2023378Y1964646D02*
Y1955512D01*
X2053803Y1963740D02*
Y1955630D01*
X2026260Y1946300D02*
X2030403D01*
X2046128Y1946325D02*
X2051378D01*
X2044803Y1943425D02*
X2042803Y1941425D01*
X2046803*
X2044803Y1943425*
X2053740Y1693409D02*
Y1717909D01*
X2078240*
Y1693409*
X2053740*
X2071839Y1705767D02*
G75*
G03X2071839I-5512J0D01*
G01X2000340Y1692809D02*
Y1717309D01*
X2024840*
Y1692809*
X2000340*
X2018439Y1705167D02*
G03X2018439I-5512J0D01*
G01X1953740Y1645709D02*
X2123740D01*
Y1978780*
X1953740*
Y1645709*
G54D12*
X1983740Y1965472D02*
Y1685945D01*
X1973740*
Y1965472*
X1983740*
X2093740Y1685945D02*
Y1965472D01*
X2103740*
Y1685945*
X2093740*
X2008898Y1675709D02*
X2078583D01*
Y1665709*
X2008898*
Y1675709*
X2056929Y1781693D02*
Y1745394D01*
X2019606*
Y1781693*
X2056929*
X2054543Y1779449D02*
G03X2054543I-1000J0D01*
G01X2059513Y1785440D02*
G03X2059513I-1993J0D01*
G01X2058669Y1785243D02*
G03X2058669I-913J0D01*
G01X2058701Y1785440D02*
G03X2058701I-1063J0D01*
G01X2058392Y1785322D02*
G03X2058392I-1187J0D01*
G01X2058425Y1785007D02*
G03X2058425I-1023J0D01*
G01X2058188Y1785243D02*
G03X2058188I-668J0D01*
G01X2058701Y1784653D02*
G03X2058701I-1378J0D01*
G01X2059052Y1785125D02*
G03X2059052I-1060J0D01*
G54D15*
G01X2027740Y1874409D02*
G03X2027740I-600J0D01*
G01X2033140Y1882909D02*
G03X2033140I-600J0D01*
G54D17*
G01X2080080Y1789909D02*
X2082561D01*
X2063882Y1817012D02*
X2061402D01*
X2047140Y1805569D02*
Y1803088D01*
X2022540Y1803049D02*
Y1805529D01*
X2002140Y1790569D02*
Y1788088D01*
X2077800Y1965109D02*
X2075320D01*
X2081880Y1879309D02*
X2084361D01*
X2071740Y1787449D02*
Y1789929D01*
X1998331Y1900287D02*
Y1897807D01*
X2016600Y1872109D02*
X2014120D01*
X2051940Y1845169D02*
Y1842688D01*
X2029140Y1842049D02*
Y1844529D01*
X2068925Y1897425D02*
X2071406D01*
X1994940Y1746356D02*
Y1745608D01*
X1995413Y1745135*
X1994920Y1744643*
X1995354Y1744210*
X1994901Y1743757*
X1995314Y1743344*
X1994901Y1742931*
Y1742458*
X1988236Y1670693D02*
X1987488D01*
X1987016Y1670220*
X1986524Y1670713*
X1986091Y1670280*
X1985638Y1670732*
X1985224Y1670319*
X1984811Y1670732*
X1984339*
X2091248Y1671067D02*
X2090500D01*
X2090028Y1670594*
X2089535Y1671087*
X2089102Y1670654*
X2088650Y1671106*
X2088236Y1670693*
X2087823Y1671106*
X2087350*
X2083740Y1769756D02*
Y1769008D01*
X2084213Y1768535*
X2083720Y1768043*
X2084154Y1767610*
X2083701Y1767157*
X2084114Y1766744*
X2083701Y1766331*
Y1765858*
X2007187Y1724509D02*
X2006439D01*
X2005967Y1724036*
X2005475Y1724528*
X2005042Y1724095*
X2004589Y1724548*
X2004176Y1724135*
X2003762Y1724548*
X2003290*
X2044846Y1681476D02*
Y1680728D01*
X2045319Y1680256*
X2044827Y1679764*
X2045260Y1679331*
X2044807Y1678878*
X2045220Y1678465*
X2044807Y1678051*
Y1677579*
X2009669Y1924146D02*
X2010417D01*
X2010890Y1924618*
X2011382Y1924126*
X2011815Y1924559*
X2012268Y1924106*
X2012681Y1924520*
X2013094Y1924106*
X2013567*
X2029483Y1879905D02*
Y1903405D01*
X2052983*
Y1879905*
X2029483*
X2065428Y1884909D02*
X2063853D01*
X2065428Y1894709D02*
X2063853D01*
X2052540Y1915796D02*
Y1914221D01*
X2042340Y1915896D02*
Y1914321D01*
X2032640Y1915796D02*
Y1914221D01*
X2017253Y1896609D02*
X2018828D01*
X2017153Y1886809D02*
X2018728D01*
X2030140Y1867621D02*
Y1869196D01*
X2038540Y1867621D02*
Y1869196D01*
X2048240Y1867721D02*
Y1869296D01*
X2009429Y1893492D02*
Y1851917D01*
X1987854*
Y1868098*
X1989311*
Y1876957*
X1987933*
Y1893492*
X2009429*
X2005340Y1782709D02*
X2005840Y1783209D01*
X2006340Y1782709*
X2006840Y1783209*
X2007340Y1782709*
X2044846Y1688965D02*
Y1688217D01*
X2045319Y1687744*
X2044827Y1687252*
X2045260Y1686819*
X2044807Y1686366*
X2045220Y1685953*
X2044807Y1685539*
Y1685067*
X2060555Y1803563D02*
X2061303D01*
X2061776Y1804035*
X2062268Y1803543*
X2062701Y1803976*
X2063154Y1803524*
X2063567Y1803937*
X2063980Y1803524*
X2064453*
X2071740Y1885369D02*
Y1882888D01*
X2010240Y1764009D02*
Y1775009D01*
X1989240*
Y1764009*
X2010240*
X1992240D02*
X1989240Y1767009D01*
X1991240Y1764009D02*
X1989240Y1766009D01*
X1989740Y1765009D02*
X1990740Y1764009D01*
X1990240D02*
X1989740Y1764509D01*
X2003880Y1753909D02*
X2006361D01*
X1997280D02*
X1999761D01*
X1993987Y1724509D02*
X1993239D01*
X1992767Y1724036*
X1992275Y1724528*
X1991842Y1724095*
X1991389Y1724548*
X1990976Y1724135*
X1990562Y1724548*
X1990090*
X2097103Y1972047D02*
G03X2097103I-2221J0D01*
G01X2064815Y1725618D02*
Y1723138D01*
X2035140Y1802261D02*
Y1803009D01*
X2034668Y1803482*
X2035160Y1803974*
X2034727Y1804407*
X2035180Y1804860*
X2034766Y1805273*
X2035180Y1805687*
Y1806159*
X2046340Y1809709D02*
X2047340D01*
X2048340Y1809909*
X2049340Y1810209*
X2050240Y1810509*
X2051140Y1811009*
X2051940Y1811609*
X2052740Y1812309*
X2053340Y1813009*
X2053940Y1813909*
X2054440Y1814709*
X2054840Y1815709*
X2055140Y1816609*
X2055340Y1817609*
Y1818709*
Y1819709*
X2055140Y1820709*
X2054840Y1821609*
X2054440Y1822609*
X2053940Y1823409*
X2053340Y1824309*
X2052740Y1825009*
X2051940Y1825709*
X2051140Y1826309*
X2050240Y1826809*
X2049340Y1827109*
X2048340Y1827409*
X2047340Y1827609*
X2046340Y1827709*
X2020340D02*
X2019340Y1827609D01*
X2018340Y1827409*
X2017340Y1827109*
X2016440Y1826809*
X2015540Y1826309*
X2014740Y1825709*
X2013940Y1825009*
X2013340Y1824309*
X2012740Y1823409*
X2012240Y1822609*
X2011840Y1821609*
X2011540Y1820709*
X2011440Y1819709*
X2011340Y1818709*
X2011440Y1817609*
X2011540Y1816609*
X2011840Y1815709*
X2012240Y1814709*
X2012740Y1813909*
X2013340Y1813009*
X2013940Y1812309*
X2014740Y1811609*
X2015540Y1811009*
X2016440Y1810509*
X2017340Y1810209*
X2018340Y1809909*
X2019340Y1809709*
X2020340*
Y1809693D02*
X2047340D01*
X2019340Y1827646D02*
X2047340D01*
X2037340Y1818709D02*
X2039340D01*
X2037340Y1813209D02*
Y1824209D01*
X2031840D02*
X2034840D01*
X2031840Y1813209D02*
Y1824209D01*
Y1813209D02*
X2034840D01*
Y1824209*
X2029340Y1813209D02*
Y1824209D01*
X2027340Y1818709D02*
X2029340D01*
X2028158D02*
G03X2028158I-4424J0D01*
G01X2029639D02*
G03X2029639I-5905J0D01*
G01X2048852D02*
G03X2048852I-5906J0D01*
G01X2047429D02*
G03X2047429I-4483J0D01*
G01X2006340Y1953409D02*
X2014740D01*
Y1973209*
X2006340*
Y1953409*
Y1954609D02*
X2014740D01*
X2062740Y1957009D02*
X2071140D01*
Y1976809*
X2062740*
Y1957009*
Y1958209D02*
X2071140D01*
X2009040Y1792909D02*
Y1801309D01*
X1989240*
Y1792909*
X2009040*
X2007840D02*
Y1801309D01*
X2026940Y1866709D02*
X2025940D01*
X2024940Y1866509*
X2023940Y1866209*
X2023040Y1865909*
X2022140Y1865409*
X2021340Y1864809*
X2020540Y1864109*
X2019940Y1863409*
X2019340Y1862509*
X2018840Y1861709*
X2018440Y1860709*
X2018140Y1859809*
X2017940Y1858809*
Y1857709*
Y1856709*
X2018140Y1855709*
X2018440Y1854809*
X2018840Y1853809*
X2019340Y1853009*
X2019940Y1852109*
X2020540Y1851409*
X2021340Y1850709*
X2022140Y1850109*
X2023040Y1849609*
X2023940Y1849309*
X2024940Y1849009*
X2025940Y1848809*
X2026940Y1848709*
X2052940D02*
X2053940Y1848809D01*
X2054940Y1849009*
X2055940Y1849309*
X2056840Y1849609*
X2057740Y1850109*
X2058540Y1850709*
X2059340Y1851409*
X2059940Y1852109*
X2060540Y1853009*
X2061040Y1853809*
X2061440Y1854809*
X2061740Y1855709*
X2061840Y1856709*
X2061940Y1857709*
X2061840Y1858809*
X2061740Y1859809*
X2061440Y1860709*
X2061040Y1861709*
X2060540Y1862509*
X2059940Y1863409*
X2059340Y1864109*
X2058540Y1864809*
X2057740Y1865409*
X2056840Y1865909*
X2055940Y1866209*
X2054940Y1866509*
X2053940Y1866709*
X2052940*
Y1866862D02*
X2025940D01*
X2053940Y1848555D02*
X2025940D01*
X2035940Y1857709D02*
X2033940D01*
X2035940Y1863209D02*
Y1852209D01*
X2041440D02*
X2038440D01*
X2041440Y1863209D02*
Y1852209D01*
Y1863209D02*
X2038440D01*
Y1852209*
X2043940Y1863209D02*
Y1852209D01*
X2045940Y1857709D02*
X2043940D01*
X1997280Y1724509D02*
X1999761D01*
X2070860Y1797935D02*
Y1796361D01*
X2085820*
Y1797935*
Y1804628D02*
Y1819589D01*
X2070860Y1804235D02*
Y1819589D01*
Y1825888D02*
Y1827857D01*
X2085820*
Y1826282*
X2077159Y1806203D02*
Y1809746D01*
X2079128*
Y1806203*
X2077159*
X2075978D02*
Y1809746D01*
X2080309Y1806203D02*
Y1809746D01*
X2075978Y1807975D02*
X2074009D01*
X2080309D02*
X2082474D01*
X2074009D02*
Y1804431D01*
X2082474Y1807975D02*
Y1804431D01*
X2084340Y1972370D02*
Y1956909D01*
X2090340*
Y1972370*
X2084340*
Y1973309D02*
Y1956909D01*
X2090340*
Y1973309*
X2084340*
X2088600Y1965244D02*
X2085805D01*
X2088403Y1963787D02*
X2087340Y1964850D01*
X2085982Y1963492*
X2088600*
X2088275Y1963817*
X2087301Y1966189D02*
Y1965756D01*
X2087261Y1963157D02*
Y1962685D01*
X2046606Y1942638D02*
Y1927176D01*
X2052606*
Y1942638*
X2046606*
Y1943576D02*
Y1927176D01*
X2052606*
Y1943576*
X2046606*
X2050866Y1935512D02*
X2048071D01*
X2050669Y1934055D02*
X2049606Y1935118D01*
X2048248Y1933760*
X2050866*
X2050541Y1934085*
X2049567Y1936457D02*
Y1936024D01*
X2049528Y1933425D02*
Y1932953D01*
X2009020Y1731419D02*
Y1718619D01*
X2017020*
Y1731419*
X2009020*
X2010145Y1725091D02*
X2011090D01*
X2011621Y1724560*
X2012192Y1725131*
X2012704Y1724619*
X2013275Y1725190*
X2013885Y1724580*
X2014259Y1724954*
X2015263*
X1994840Y1750309D02*
Y1756409D01*
X1990240*
Y1753359*
X1994840Y1750859D02*
Y1747809D01*
X1990240*
Y1754509*
X1993540Y1752109D02*
X1991540D01*
X1989440Y1750309D02*
Y1756409D01*
X1984840*
Y1753359*
X1989440Y1750859D02*
Y1747809D01*
X1984840*
Y1754509*
X1988140Y1752109D02*
X1986140D01*
X2029987Y1935709D02*
X2029239D01*
X2028767Y1935236*
X2028275Y1935728*
X2027842Y1935295*
X2027389Y1935748*
X2026976Y1935335*
X2026562Y1935748*
X2026090*
X2086795Y1791321D02*
X2086681Y1791634D01*
X2086454Y1791946*
X2086227Y1792102*
X2085772*
X2085545Y1791946*
X2085317Y1791634*
X2085204Y1791321*
X2085090Y1790852*
Y1790071*
X2085204Y1789602*
X2085317Y1789290*
X2085545Y1788977*
X2085772Y1788821*
X2086227*
X2086454Y1788977*
X2086681Y1789290*
X2086795Y1789602*
X2087817Y1791477D02*
X2088045Y1791634D01*
X2088386Y1792102*
Y1788821*
X2090999Y1792102D02*
X2089863Y1788821D01*
X2089408Y1792102D02*
X2090999D01*
X2061940Y1827106D02*
X2061827Y1827418D01*
X2061599Y1827731*
X2061372Y1827887*
X2060918*
X2060918D02*
X2060690Y1827731D01*
X2060463Y1827418*
X2060349Y1827106*
X2060236Y1826637*
Y1825856*
X2060349Y1825387*
X2060463Y1825074*
X2060690Y1824762*
X2060918Y1824606*
X2060918D02*
X2061372D01*
X2061599Y1824762*
X2061827Y1825074*
X2061940Y1825387*
X2062963Y1827262D02*
X2063190Y1827418D01*
X2063531Y1827887*
Y1824606*
X2064554Y1827262D02*
X2064781Y1827418D01*
X2065122Y1827887*
Y1824606*
X2054649Y1810394D02*
X2054536Y1810706D01*
X2054309Y1811019*
X2054081Y1811175*
X2053627*
X2053399Y1811019*
X2053172Y1810706*
X2053059Y1810394*
X2052945Y1809925*
Y1809144*
X2053059Y1808675*
X2053172Y1808362*
X2053399Y1808050*
X2053627Y1807894*
X2054081*
X2054309Y1808050*
X2054536Y1808362*
X2054649Y1808675*
X2055672Y1810550D02*
X2055899Y1810706D01*
X2056240Y1811175*
Y1807894*
X2057490Y1811175D02*
X2058740D01*
X2058059Y1809925*
X2058399*
X2058627Y1809769*
X2058740Y1809612*
X2058854Y1809144*
Y1808831*
X2058740Y1808362*
X2058513Y1808050*
X2058172Y1807894*
X2057831*
X2057490Y1808050*
X2057377Y1808206*
X2057263Y1808519*
X2023602Y1799402D02*
X2023488Y1799715D01*
X2023261Y1800027*
X2023033Y1800184*
X2022579*
X2022352Y1800027*
X2022124Y1799715*
X2022011Y1799402*
X2021897Y1798934*
Y1798152*
X2022011Y1797684*
X2022124Y1797371*
X2022352Y1797059*
X2022579Y1796902*
X2023033*
X2023261Y1797059*
X2023488Y1797371*
X2023602Y1797684*
X2024624Y1799559D02*
X2024852Y1799715D01*
X2025192Y1800184*
Y1796902*
X2026329Y1799402D02*
Y1799559D01*
X2026442Y1799871*
X2026556Y1800027*
X2026783Y1800184*
X2027238*
X2027465Y1800027*
X2027579Y1799871*
X2027692Y1799559*
Y1799246*
X2027579Y1798934*
X2027352Y1798465*
X2026215Y1796902*
X2027806*
X1991468Y1791185D02*
X1991355Y1791498D01*
X1991127Y1791810*
X1990900Y1791966*
X1990446*
X1990218Y1791810*
X1989991Y1791498*
X1989877Y1791185*
X1989764Y1790716*
Y1789935*
X1989877Y1789466*
X1989991Y1789154*
X1990218Y1788841*
X1990446Y1788685*
X1990900*
X1991127Y1788841*
X1991355Y1789154*
X1991468Y1789466*
X1992491Y1791341D02*
X1992718Y1791498D01*
X1993059Y1791966*
Y1788685*
X1995559Y1791966D02*
X1994423D01*
X1994309Y1790560*
X1994423Y1790716*
X1994764Y1790873*
X1995105*
X1995446Y1790716*
X1995673Y1790404*
X1995787Y1789935*
X1995673Y1789623*
X1995559Y1789154*
X1995332Y1788841*
X1994991Y1788685*
X1994650*
X1994309Y1788841*
X1994196Y1788998*
X1994082Y1789310*
X2076106Y1957193D02*
X2075992Y1957505D01*
X2075765Y1957818*
X2075538Y1957974*
X2075083*
X2074856Y1957818*
X2074629Y1957505*
X2074515Y1957193*
X2074402Y1956724*
Y1955943*
X2074515Y1955474*
X2074629Y1955162*
X2074856Y1954849*
X2075083Y1954693*
X2075538*
X2075765Y1954849*
X2075992Y1955162*
X2076106Y1955474*
X2077356Y1957974D02*
X2078606D01*
X2077924Y1956724*
X2078265*
X2078492Y1956568*
X2078606Y1956412*
X2078720Y1955943*
Y1955630*
X2078606Y1955162*
X2078379Y1954849*
X2078038Y1954693*
X2077697*
X2077356Y1954849*
X2077242Y1955005*
X2077129Y1955318*
X2083071Y1867268D02*
X2082758Y1867154D01*
X2082446Y1866927*
X2082290Y1866699*
Y1866245*
X2082446Y1866018*
X2082758Y1865790*
X2083071Y1865677*
X2083540Y1865563*
X2084321*
X2084790Y1865677*
X2085102Y1865790*
X2085415Y1866018*
X2085571Y1866245*
Y1866699*
X2085415Y1866927*
X2085102Y1867154*
X2084790Y1867268*
X2082290Y1869881D02*
X2085571Y1868745D01*
X2082290Y1868290D02*
Y1869881D01*
X2060663Y1790402D02*
X2060549Y1790715D01*
X2060322Y1791027*
X2060095Y1791184*
X2059640*
X2059413Y1791027*
X2059186Y1790715*
X2059072Y1790402*
X2058958Y1789934*
Y1789152*
X2059072Y1788684*
X2059186Y1788371*
X2059413Y1788059*
X2059640Y1787902*
X2060095*
X2060322Y1788059*
X2060549Y1788371*
X2060663Y1788684*
X2061686Y1790559D02*
X2061913Y1790715D01*
X2062254Y1791184*
Y1787902*
X2064640Y1790715D02*
X2064527Y1791027D01*
X2064186Y1791184*
X2063958*
X2063617Y1791027*
X2063390Y1790559*
X2063277Y1789777*
Y1788996*
X2063390Y1788371*
X2063617Y1788059*
X2063958Y1787902*
X2064072*
X2064413Y1788059*
X2064640Y1788371*
X2064754Y1788840*
Y1788996*
X2064640Y1789465*
X2064413Y1789777*
X2064072Y1789934*
X2063958*
X2063617Y1789777*
X2063390Y1789465*
X2063277Y1788996*
X1988626Y1899602D02*
X1988512Y1899915D01*
X1988285Y1900227*
X1988058Y1900384*
X1987603*
X1987376Y1900227*
X1987149Y1899915*
X1987035Y1899602*
X1986921Y1899134*
Y1898352*
X1987035Y1897884*
X1987149Y1897571*
X1987376Y1897259*
X1987603Y1897102*
X1988058*
X1988285Y1897259*
X1988512Y1897571*
X1988626Y1897884*
X1990785Y1900384D02*
X1989649Y1898196D01*
X1991353*
X1990785Y1900384D02*
Y1897102D01*
X2013263Y1881602D02*
X2013149Y1881915D01*
X2012922Y1882227*
X2012695Y1882384*
X2012240*
X2012013Y1882227*
X2011786Y1881915*
X2011672Y1881602*
X2011558Y1881134*
Y1880352*
X2011672Y1879884*
X2011786Y1879571*
X2012013Y1879259*
X2012240Y1879102*
X2012695*
X2012922Y1879259*
X2013149Y1879571*
X2013263Y1879884*
X2014854Y1882384D02*
X2014513Y1882227D01*
X2014399Y1881915*
Y1881602*
X2014513Y1881290*
X2014740Y1881134*
X2015195Y1880977*
X2015536Y1880821*
X2015763Y1880509*
X2015877Y1880196*
Y1879727*
X2015763Y1879415*
X2015649Y1879259*
X2015308Y1879102*
X2014854*
X2014513Y1879259*
X2014399Y1879415*
X2014286Y1879727*
Y1880196*
X2014399Y1880509*
X2014627Y1880821*
X2014967Y1880977*
X2015422Y1881134*
X2015649Y1881290*
X2015763Y1881602*
Y1881915*
X2015649Y1882227*
X2015308Y1882384*
X2014854*
X2040863Y1844402D02*
X2040749Y1844715D01*
X2040522Y1845027*
X2040295Y1845184*
X2039840*
X2039613Y1845027*
X2039386Y1844715*
X2039272Y1844402*
X2039158Y1843934*
Y1843152*
X2039272Y1842684*
X2039386Y1842371*
X2039613Y1842059*
X2039840Y1841902*
X2040295*
X2040522Y1842059*
X2040749Y1842371*
X2040863Y1842684*
X2041886Y1844559D02*
X2042113Y1844715D01*
X2042454Y1845184*
Y1841902*
X2044158Y1845184D02*
X2043817Y1845027D01*
X2043590Y1844559*
X2043477Y1843777*
Y1843309*
X2043590Y1842527*
X2043817Y1842059*
X2044158Y1841902*
X2044386*
X2044727Y1842059*
X2044954Y1842527*
X2045067Y1843309*
Y1843777*
X2044954Y1844559*
X2044727Y1845027*
X2044386Y1845184*
X2044158*
X2018063Y1843802D02*
X2017949Y1844115D01*
X2017722Y1844427*
X2017495Y1844584*
X2017040*
X2016813Y1844427*
X2016586Y1844115*
X2016472Y1843802*
X2016358Y1843334*
Y1842552*
X2016472Y1842084*
X2016586Y1841771*
X2016813Y1841459*
X2017040Y1841302*
X2017495*
X2017722Y1841459*
X2017949Y1841771*
X2018063Y1842084*
X2020563Y1843490D02*
X2020449Y1843021D01*
X2020222Y1842709*
X2019881Y1842552*
X2019767*
X2019427Y1842709*
X2019199Y1843021*
X2019086Y1843490*
Y1843646*
X2019199Y1844115*
X2019427Y1844427*
X2019767Y1844584*
X2019881*
X2020222Y1844427*
X2020449Y1844115*
X2020563Y1843490*
Y1842709*
X2020449Y1841927*
X2020222Y1841459*
X2019881Y1841302*
X2019654*
X2019313Y1841459*
X2019199Y1841771*
X2075996Y1896719D02*
X2075883Y1897031D01*
X2075655Y1897344*
X2075428Y1897500*
X2074974*
X2074746Y1897344*
X2074519Y1897031*
X2074405Y1896719*
X2074292Y1896250*
Y1895469*
X2074405Y1895000*
X2074519Y1894688*
X2074746Y1894375*
X2074974Y1894219*
X2075428*
X2075655Y1894375*
X2075883Y1894688*
X2075996Y1895000*
X2078496Y1897500D02*
X2077360D01*
X2077246Y1896094*
X2077360Y1896250*
X2077701Y1896406*
X2078042*
X2078383Y1896250*
X2078610Y1895938*
X2078724Y1895469*
X2078610Y1895156*
X2078496Y1894688*
X2078269Y1894375*
X2077928Y1894219*
X2077587*
X2077246Y1894375*
X2077133Y1894531*
X2077019Y1894844*
X2000795Y1741884D02*
Y1738602D01*
Y1741884D02*
X2001818D01*
X2002159Y1741727*
X2002273Y1741571*
X2002386Y1741259*
Y1740946*
X2002273Y1740634*
X2002159Y1740477*
X2001818Y1740321*
X2000795*
X2001591D02*
X2002386Y1738602D01*
X2003409Y1741259D02*
X2003636Y1741415D01*
X2003977Y1741884*
Y1738602*
X2006477Y1741884D02*
X2005341D01*
X2005227Y1740477*
X2005341Y1740634*
X2005682Y1740790*
X2006023*
X2006363Y1740634*
X2006591Y1740321*
X2006704Y1739852*
X2006591Y1739540*
X2006477Y1739071*
X2006250Y1738759*
X2005909Y1738602*
X2005568*
X2005227Y1738759*
X2005113Y1738915*
X2005000Y1739227*
X1990583Y1676647D02*
Y1673366D01*
Y1676647D02*
X1991605D01*
X1991946Y1676491*
X1992060Y1676335*
X1992174Y1676022*
Y1675710*
X1992060Y1675397*
X1991946Y1675241*
X1991605Y1675085*
X1990583*
X1991378D02*
X1992174Y1673366D01*
X1993310Y1675866D02*
Y1676022D01*
X1993424Y1676335*
X1993537Y1676491*
X1993764Y1676647*
X1994219*
X1994446Y1676491*
X1994560Y1676335*
X1994674Y1676022*
Y1675710*
X1994560Y1675397*
X1994333Y1674929*
X1993196Y1673366*
X1994787*
X1995924Y1675866D02*
Y1676022D01*
X1996037Y1676335*
X1996151Y1676491*
X1996378Y1676647*
X1996833*
X1997060Y1676491*
X1997174Y1676335*
X1997287Y1676022*
Y1675710*
X1997174Y1675397*
X1996946Y1674929*
X1995810Y1673366*
X1997401*
X2084752Y1681391D02*
Y1678110D01*
Y1681391D02*
X2085775D01*
X2086116Y1681235*
X2086229Y1681079*
X2086343Y1680766*
Y1680454*
X2086229Y1680141*
X2086116Y1679985*
X2085775Y1679829*
X2084752*
X2085547D02*
X2086343Y1678110D01*
X2087479Y1680610D02*
Y1680766D01*
X2087593Y1681079*
X2087707Y1681235*
X2087934Y1681391*
X2088388*
X2088616Y1681235*
X2088729Y1681079*
X2088843Y1680766*
Y1680454*
X2088729Y1680141*
X2088502Y1679673*
X2087366Y1678110*
X2088957*
X2090207Y1681391D02*
X2091457D01*
X2090775Y1680141*
X2091116*
X2091343Y1679985*
X2091457Y1679829*
X2091570Y1679360*
Y1679048*
X2091457Y1678579*
X2091229Y1678266*
X2090888Y1678110*
X2090547*
X2090207Y1678266*
X2090093Y1678423*
X2089979Y1678735*
X2071398Y1770608D02*
Y1767327D01*
Y1770608D02*
X2072420D01*
X2072761Y1770452*
X2072875Y1770296*
X2072989Y1769983*
Y1769671*
X2072875Y1769358*
X2072761Y1769202*
X2072420Y1769046*
X2071398*
X2072193D02*
X2072989Y1767327D01*
X2074011Y1769983D02*
X2074239Y1770139D01*
X2074579Y1770608*
Y1767327*
X2075829Y1770608D02*
X2077079D01*
X2076398Y1769358*
X2076739*
X2076966Y1769202*
X2077079Y1769046*
X2077193Y1768577*
Y1768264*
X2077079Y1767796*
X2076852Y1767483*
X2076511Y1767327*
X2076170*
X2075829Y1767483*
X2075716Y1767639*
X2075602Y1767952*
X2001965Y1737974D02*
Y1734693D01*
Y1737974D02*
X2002987D01*
X2003328Y1737818*
X2003442Y1737662*
X2003555Y1737349*
Y1737037*
X2003442Y1736724*
X2003328Y1736568*
X2002987Y1736412*
X2001965*
X2002760D02*
X2003555Y1734693D01*
X2004578Y1737349D02*
X2004805Y1737505D01*
X2005146Y1737974*
Y1734693*
X2006737Y1737974D02*
X2006396Y1737818D01*
X2006283Y1737505*
Y1737193*
X2006396Y1736880*
X2006624Y1736724*
X2007078Y1736568*
X2007419Y1736412*
X2007646Y1736099*
X2007760Y1735787*
Y1735318*
X2007646Y1735005*
X2007533Y1734849*
X2007192Y1734693*
X2006737*
X2006396Y1734849*
X2006283Y1735005*
X2006169Y1735318*
Y1735787*
X2006283Y1736099*
X2006510Y1736412*
X2006851Y1736568*
X2007305Y1736724*
X2007533Y1736880*
X2007646Y1737193*
Y1737505*
X2007533Y1737818*
X2007192Y1737974*
X2006737*
X2032161Y1685399D02*
Y1682118D01*
Y1685399D02*
X2033184D01*
X2033525Y1685243*
X2033639Y1685087*
X2033752Y1684774*
Y1684462*
X2033639Y1684149*
X2033525Y1683993*
X2033184Y1683837*
X2032161*
X2032957D02*
X2033752Y1682118D01*
X2034889Y1684618D02*
Y1684774D01*
X2035002Y1685087*
X2035116Y1685243*
X2035343Y1685399*
X2035798*
X2036025Y1685243*
X2036139Y1685087*
X2036252Y1684774*
Y1684462*
X2036139Y1684149*
X2035911Y1683681*
X2034775Y1682118*
X2036366*
X2037389Y1684774D02*
X2037616Y1684931D01*
X2037957Y1685399*
Y1682118*
X2009280Y1917151D02*
Y1913870D01*
Y1917151D02*
X2010302D01*
X2010643Y1916995*
X2010757Y1916839*
X2010870Y1916526*
Y1916214*
X2010757Y1915901*
X2010643Y1915745*
X2010302Y1915589*
X2009280*
X2010075D02*
X2010870Y1913870D01*
X2013257Y1916683D02*
X2013143Y1916995D01*
X2012802Y1917151*
X2012575*
X2012234Y1916995*
X2012007Y1916526*
X2011893Y1915745*
Y1914964*
X2012007Y1914339*
X2012234Y1914026*
X2012575Y1913870*
X2012689*
X2013030Y1914026*
X2013257Y1914339*
X2013370Y1914808*
Y1914964*
X2013257Y1915433*
X2013030Y1915745*
X2012689Y1915901*
X2012575*
X2012234Y1915745*
X2012007Y1915433*
X2011893Y1914964*
X2020339Y1914293D02*
Y1911949D01*
X2020452Y1911481*
X2020679Y1911168*
X2021020Y1911012*
X2021248*
X2021589Y1911168*
X2021816Y1911481*
X2021929Y1911949*
Y1914293*
X2023066Y1913512D02*
Y1913668D01*
X2023179Y1913981*
X2023293Y1914137*
X2023520Y1914293*
X2023975*
X2024202Y1914137*
X2024316Y1913981*
X2024429Y1913668*
Y1913356*
X2024316Y1913043*
X2024089Y1912574*
X2022952Y1911012*
X2024543*
X1997752Y1847402D02*
X1997638Y1847715D01*
X1997411Y1848027*
X1997183Y1848184*
X1996729*
X1996502Y1848027*
X1996274Y1847715*
X1996161Y1847402*
X1996047Y1846934*
Y1846152*
X1996161Y1845684*
X1996274Y1845371*
X1996502Y1845059*
X1996729Y1844902*
X1997183*
X1997411Y1845059*
X1997638Y1845371*
X1997752Y1845684*
X1998774Y1848184D02*
Y1844902D01*
Y1848184D02*
X2000365Y1844902D01*
Y1848184D02*
Y1844902D01*
X2001502Y1847402D02*
Y1847559D01*
X2001615Y1847871*
X2001729Y1848027*
X2001956Y1848184*
X2002411*
X2002638Y1848027*
X2002752Y1847871*
X2002865Y1847559*
Y1847246*
X2002752Y1846934*
X2002524Y1846465*
X2001388Y1844902*
X2002979*
X2013146Y1784285D02*
Y1781004D01*
X2014510*
X2015533Y1783660D02*
X2015760Y1783817D01*
X2016101Y1784285*
Y1781004*
X2051843Y1689876D02*
Y1686594D01*
Y1689876D02*
X2052865D01*
X2053206Y1689719*
X2053320Y1689563*
X2053433Y1689251*
Y1688938*
X2053320Y1688626*
X2053206Y1688469*
X2052865Y1688313*
X2051843*
X2052638D02*
X2053433Y1686594D01*
X2054570Y1689094D02*
Y1689251D01*
X2054683Y1689563*
X2054797Y1689719*
X2055024Y1689876*
X2055479*
X2055706Y1689719*
X2055820Y1689563*
X2055933Y1689251*
Y1688938*
X2055820Y1688626*
X2055593Y1688157*
X2054456Y1686594*
X2056047*
X2057752Y1689876D02*
X2057411Y1689719D01*
X2057183Y1689251*
X2057070Y1688469*
Y1688001*
X2057183Y1687219*
X2057411Y1686751*
X2057752Y1686594*
X2057979*
X2058320Y1686751*
X2058547Y1687219*
X2058661Y1688001*
Y1688469*
X2058547Y1689251*
X2058320Y1689719*
X2057979Y1689876*
X2057752*
X1975129Y1680784D02*
Y1677502D01*
X1976492*
X1977515Y1680784D02*
Y1677502D01*
Y1680784D02*
X1978311D01*
X1978652Y1680627*
X1978879Y1680315*
X1978992Y1680002*
X1979106Y1679534*
Y1678752*
X1978992Y1678284*
X1978879Y1677971*
X1978652Y1677659*
X1978311Y1677502*
X1977515*
X1980356Y1680784D02*
X1981606D01*
X1980924Y1679534*
X1981265*
X1981492Y1679377*
X1981606Y1679221*
X1981720Y1678752*
Y1678440*
X1981606Y1677971*
X1981379Y1677659*
X1981038Y1677502*
X1980697*
X1980356Y1677659*
X1980242Y1677815*
X1980129Y1678127*
X1992713Y1929006D02*
Y1925724D01*
X1994076*
X1995099Y1929006D02*
Y1925724D01*
Y1929006D02*
X1995894D01*
X1996235Y1928849*
X1996463Y1928537*
X1996576Y1928224*
X1996690Y1927756*
Y1926974*
X1996576Y1926506*
X1996463Y1926193*
X1996235Y1925881*
X1995894Y1925724*
X1995099*
X1997713Y1928381D02*
X1997940Y1928537D01*
X1998281Y1929006*
Y1925724*
X2059811Y1797184D02*
Y1793902D01*
Y1797184D02*
X2060833D01*
X2061174Y1797027*
X2061288Y1796871*
X2061402Y1796559*
Y1796246*
X2061288Y1795934*
X2061174Y1795777*
X2060833Y1795621*
X2059811*
X2060606D02*
X2061402Y1793902D01*
X2062424Y1796559D02*
X2062652Y1796715D01*
X2062992Y1797184*
Y1793902*
X2064129Y1796402D02*
Y1796559D01*
X2064242Y1796871*
X2064356Y1797027*
X2064583Y1797184*
X2065038*
X2065265Y1797027*
X2065379Y1796871*
X2065492Y1796559*
Y1796246*
X2065379Y1795934*
X2065152Y1795465*
X2064015Y1793902*
X2065606*
X2074689Y1890622D02*
X2074575Y1890935D01*
X2074348Y1891247*
X2074121Y1891403*
X2073666*
X2073439Y1891247*
X2073212Y1890935*
X2073098Y1890622*
X2072984Y1890153*
Y1889372*
X2073098Y1888903*
X2073212Y1888591*
X2073439Y1888278*
X2073666Y1888122*
X2074121*
X2074348Y1888278*
X2074575Y1888591*
X2074689Y1888903*
X2077075Y1890935D02*
X2076962Y1891247D01*
X2076621Y1891403*
X2076393*
X2076052Y1891247*
X2075825Y1890778*
X2075712Y1889997*
Y1889216*
X2075825Y1888591*
X2076052Y1888278*
X2076393Y1888122*
X2076507*
X2076848Y1888278*
X2077075Y1888591*
X2077189Y1889060*
Y1889216*
X2077075Y1889685*
X2076848Y1889997*
X2076507Y1890153*
X2076393*
X2076052Y1889997*
X2075825Y1889685*
X2075712Y1889216*
X1976322Y1969984D02*
Y1966702D01*
Y1969984D02*
X1977345D01*
X1977686Y1969827*
X1977799Y1969671*
X1977913Y1969359*
Y1968890*
X1977799Y1968577*
X1977686Y1968421*
X1977345Y1968265*
X1976322*
X1978936Y1969359D02*
X1979163Y1969515D01*
X1979504Y1969984*
Y1966702*
X2097011Y1684384D02*
Y1681102D01*
Y1684384D02*
X2098033D01*
X2098374Y1684227*
X2098488Y1684071*
X2098602Y1683759*
Y1683290*
X2098488Y1682977*
X2098374Y1682821*
X2098033Y1682665*
X2097011*
X2099738Y1683602D02*
Y1683759D01*
X2099852Y1684071*
X2099965Y1684227*
X2100192Y1684384*
X2100647*
X2100874Y1684227*
X2100988Y1684071*
X2101102Y1683759*
Y1683446*
X2100988Y1683134*
X2100761Y1682665*
X2099624Y1681102*
X2101215*
X2002811Y1672384D02*
Y1669102D01*
Y1672384D02*
X2003833D01*
X2004174Y1672227*
X2004288Y1672071*
X2004402Y1671759*
Y1671290*
X2004288Y1670977*
X2004174Y1670821*
X2003833Y1670665*
X2002811*
X2005652Y1672384D02*
X2006902D01*
X2006220Y1671134*
X2006561*
X2006788Y1670977*
X2006902Y1670821*
X2007015Y1670352*
Y1670040*
X2006902Y1669571*
X2006674Y1669259*
X2006333Y1669102*
X2005992*
X2005652Y1669259*
X2005538Y1669415*
X2005424Y1669727*
X2031622Y1733474D02*
Y1731130D01*
X2031736Y1730662*
X2031963Y1730349*
X2032304Y1730193*
X2032531*
X2032872Y1730349*
X2033099Y1730662*
X2033213Y1731130*
Y1733474*
X2034463D02*
X2035713D01*
X2035031Y1732224*
X2035372*
X2035599Y1732068*
X2035713Y1731912*
X2035827Y1731443*
Y1731130*
X2035713Y1730662*
X2035486Y1730349*
X2035145Y1730193*
X2034804*
X2034463Y1730349*
X2034349Y1730505*
X2034236Y1730818*
X1986772Y1787856D02*
X1986545Y1788168D01*
X1986204Y1788325*
X1985749*
X1985408Y1788168*
X1985181Y1787856*
Y1787543*
X1985295Y1787231*
X1985408Y1787075*
X1985636Y1786918*
X1986317Y1786606*
X1986545Y1786450*
X1986658Y1786293*
X1986772Y1785981*
Y1785512*
X1986545Y1785200*
X1986204Y1785043*
X1985749*
X1985408Y1785200*
X1985181Y1785512*
X1987795Y1788325D02*
Y1785043D01*
Y1788325D02*
X1988817D01*
X1989158Y1788168*
X1989272Y1788012*
X1989386Y1787700*
Y1787387*
X1989272Y1787075*
X1989158Y1786918*
X1988817Y1786762*
X1987795D02*
X1988817D01*
X1989158Y1786606*
X1989272Y1786450*
X1989386Y1786137*
Y1785668*
X1989272Y1785356*
X1989158Y1785200*
X1988817Y1785043*
X1987795*
X1990408Y1787700D02*
X1990636Y1787856D01*
X1990977Y1788325*
Y1785043*
X2102571Y1675179D02*
Y1671898D01*
X2103935*
X2104957Y1675179D02*
Y1671898D01*
Y1675179D02*
X2105753D01*
X2106094Y1675023*
X2106321Y1674710*
X2106435Y1674398*
X2106435D02*
X2106548Y1673929D01*
Y1673148*
X2106435Y1672679*
X2106435D02*
X2106321Y1672366D01*
X2106094Y1672054*
X2105753Y1671898*
X2104957*
X2108707Y1675179D02*
X2107571Y1672991D01*
X2109275*
X2108707Y1675179D02*
Y1671898D01*
X2045940Y1923990D02*
Y1920709D01*
X2047304*
X2048327Y1923990D02*
Y1920709D01*
Y1923990D02*
X2049122D01*
X2049463Y1923834*
X2049690Y1923521*
X2049804Y1923209*
X2049917Y1922740*
Y1921959*
X2049804Y1921490*
X2049690Y1921177*
X2049463Y1920865*
X2049122Y1920709*
X2048327*
X2051054Y1923209D02*
Y1923365D01*
X2051167Y1923677*
X2051281Y1923834*
X2051508Y1923990*
X2051963*
X2052190Y1923834*
X2052304Y1923677*
X2052417Y1923365*
Y1923052*
X2052304Y1922740*
X2052077Y1922271*
X2050940Y1920709*
X2052531*
X1990779Y1779184D02*
Y1776684D01*
X1990665Y1776215*
X1990552Y1776059*
X1990324Y1775902*
X1990097*
X1989870Y1776059*
X1989756Y1776215*
X1989642Y1776684*
Y1776996*
X1991802Y1779184D02*
Y1775902D01*
Y1779184D02*
X1992824D01*
X1993165Y1779027*
X1993279Y1778871*
X1993392Y1778559*
Y1778090*
X1993279Y1777777*
X1993165Y1777621*
X1992824Y1777465*
X1991802*
X1994415Y1778559D02*
X1994642Y1778715D01*
X1994983Y1779184*
Y1775902*
X2004795Y1762654D02*
X2004681Y1762966D01*
X2004454Y1763279*
X2004227Y1763435*
X2003772*
X2003545Y1763279*
X2003318Y1762966*
X2003204Y1762654*
X2003091Y1762185*
Y1761404*
X2003204Y1760935*
X2003318Y1760622*
X2003545Y1760310*
X2003772Y1760154*
X2004227*
X2004454Y1760310*
X2004681Y1760622*
X2004795Y1760935*
X2005931Y1762654D02*
Y1762810D01*
X2006045Y1763122*
X2006159Y1763279*
X2006386Y1763435*
X2006841*
X2007068Y1763279*
X2007181Y1763122*
X2007295Y1762810*
Y1762497*
X2007181Y1762185*
X2006954Y1761716*
X2005818Y1760154*
X2007409*
X2008431Y1762810D02*
X2008659Y1762966D01*
X2009000Y1763435*
Y1760154*
X1997006Y1762802D02*
X1996892Y1763115D01*
X1996665Y1763427*
X1996438Y1763584*
X1995983*
X1995756Y1763427*
X1995529Y1763115*
X1995415Y1762802*
X1995302Y1762334*
Y1761552*
X1995415Y1761084*
X1995529Y1760771*
X1995756Y1760459*
X1995983Y1760302*
X1996438*
X1996665Y1760459*
X1996892Y1760771*
X1997006Y1761084*
X1998142Y1762802D02*
Y1762959D01*
X1998256Y1763271*
X1998370Y1763427*
X1998597Y1763584*
X1999052*
X1999279Y1763427*
X1999392Y1763271*
X1999506Y1762959*
Y1762646*
X1999392Y1762334*
X1999165Y1761865*
X1998029Y1760302*
X1999620*
X2001324Y1763584D02*
X2000983Y1763427D01*
X2000756Y1762959*
X2000642Y1762177*
Y1761709*
X2000756Y1760927*
X2000983Y1760459*
X2001324Y1760302*
X2001552*
X2001892Y1760459*
X2002120Y1760927*
X2002233Y1761709*
Y1762177*
X2002120Y1762959*
X2001892Y1763427*
X2001552Y1763584*
X2001324*
X1984665Y1721384D02*
X1987946D01*
X1984665D02*
Y1722406D01*
X1984821Y1722747*
X1984978Y1722861*
X1985290Y1722975*
X1985603*
X1985915Y1722861*
X1986071Y1722747*
X1986228Y1722406*
Y1721384*
Y1722179D02*
X1987946Y1722975D01*
X1985290Y1723997D02*
X1985134Y1724225D01*
X1984665Y1724565*
X1987946*
X1984665Y1727179D02*
X1987946Y1726043D01*
X1984665Y1725588D02*
Y1727179D01*
X2098811Y1972984D02*
Y1969702D01*
X2098015Y1972984D02*
X2099606D01*
X2100629D02*
Y1969702D01*
Y1972984D02*
X2101652D01*
X2101992Y1972827*
X2102106Y1972671*
X2102220Y1972359*
Y1971890*
X2102106Y1971577*
X2101992Y1971421*
X2101652Y1971265*
X2100629*
X2103242Y1972359D02*
X2103470Y1972515D01*
X2103811Y1972984*
Y1969702*
X2072915Y1725002D02*
X2072802Y1725315D01*
X2072574Y1725627*
X2072347Y1725784*
X2071892*
X2071665Y1725627*
X2071438Y1725315*
X2071324Y1725002*
X2071211Y1724534*
Y1723752*
X2071324Y1723284*
X2071438Y1722971*
X2071665Y1722659*
X2071892Y1722502*
X2072347*
X2072574Y1722659*
X2072802Y1722971*
X2072915Y1723284*
X2074052Y1725002D02*
Y1725159D01*
X2074165Y1725471*
X2074279Y1725627*
X2074506Y1725784*
X2074961*
X2075188Y1725627*
X2075302Y1725471*
X2075415Y1725159*
Y1724846*
X2075302Y1724534*
X2075074Y1724065*
X2073938Y1722502*
X2075529*
X2076779Y1725784D02*
X2078029D01*
X2077347Y1724534*
X2077688*
X2077915Y1724377*
X2078029Y1724221*
X2078142Y1723752*
Y1723440*
X2078029Y1722971*
X2077802Y1722659*
X2077461Y1722502*
X2077120*
X2076779Y1722659*
X2076665Y1722815*
X2076552Y1723127*
X2072756Y1774163D02*
X2072528Y1774476D01*
X2072187Y1774632*
X2071733*
X2071392Y1774476*
X2071165Y1774163*
Y1773851*
X2071278Y1773538*
X2071392Y1773382*
X2071619Y1773226*
X2072301Y1772913*
X2072528Y1772757*
X2072642Y1772601*
X2072756Y1772288*
Y1771819*
X2072528Y1771507*
X2072187Y1771351*
X2071733*
X2071392Y1771507*
X2071165Y1771819*
X2073778Y1774632D02*
Y1771351D01*
Y1774632D02*
X2074801D01*
X2075142Y1774476*
X2075256Y1774319*
X2075369Y1774007*
Y1773694*
X2075256Y1773382*
X2075142Y1773226*
X2074801Y1773069*
X2073778D02*
X2074801D01*
X2075142Y1772913*
X2075256Y1772757*
X2075369Y1772444*
Y1771976*
X2075256Y1771663*
X2075142Y1771507*
X2074801Y1771351*
X2073778*
X2076506Y1773851D02*
Y1774007D01*
X2076619Y1774319*
X2076733Y1774476*
X2076960Y1774632*
X2077415*
X2077642Y1774476*
X2077756Y1774319*
X2077869Y1774007*
Y1773694*
X2077756Y1773382*
X2077528Y1772913*
X2076392Y1771351*
X2077983*
X2029211Y1800184D02*
Y1796902D01*
Y1800184D02*
X2030233D01*
X2030574Y1800027*
X2030688Y1799871*
X2030802Y1799559*
Y1799246*
X2030688Y1798934*
X2030574Y1798777*
X2030233Y1798621*
X2029211*
X2030006D02*
X2030802Y1796902D01*
X2031824Y1799559D02*
X2032052Y1799715D01*
X2032392Y1800184*
Y1796902*
X2033415Y1799559D02*
X2033642Y1799715D01*
X2033983Y1800184*
Y1796902*
X2019263Y1941602D02*
X2019149Y1941915D01*
X2018922Y1942227*
X2018695Y1942384*
X2018240*
X2018013Y1942227*
X2017786Y1941915*
X2017672Y1941602*
X2017558Y1941134*
Y1940352*
X2017672Y1939884*
X2017786Y1939571*
X2018013Y1939259*
X2018240Y1939102*
X2018695*
X2018922Y1939259*
X2019149Y1939571*
X2019263Y1939884*
X2020286Y1942384D02*
Y1939102D01*
Y1942384D02*
X2021877Y1939102D01*
Y1942384D02*
Y1939102D01*
X2022899Y1941759D02*
X2023127Y1941915D01*
X2023467Y1942384*
Y1939102*
X2013653Y1745141D02*
X2013426Y1745453D01*
X2013085Y1745610*
X2012630*
X2012289Y1745453*
X2012062Y1745141*
Y1744828*
X2012176Y1744516*
X2012289Y1744360*
X2012517Y1744203*
X2013198Y1743891*
X2013426Y1743735*
X2013539Y1743578*
X2013653Y1743266*
Y1742797*
X2013426Y1742485*
X2013085Y1742328*
X2012630*
X2012289Y1742485*
X2012062Y1742797*
X2014676Y1745610D02*
Y1742328D01*
Y1745610D02*
X2015698D01*
X2016039Y1745453*
X2016153Y1745297*
X2016267Y1744985*
Y1744672*
X2016153Y1744360*
X2016039Y1744203*
X2015698Y1744047*
X2014676D02*
X2015698D01*
X2016039Y1743891*
X2016153Y1743735*
X2016267Y1743422*
Y1742953*
X2016153Y1742641*
X2016039Y1742485*
X2015698Y1742328*
X2014676*
X2017517Y1745610D02*
X2018767D01*
X2018085Y1744360*
X2018426*
X2018653Y1744203*
X2018767Y1744047*
X2018880Y1743578*
Y1743266*
X2018767Y1742797*
X2018539Y1742485*
X2018198Y1742328*
X2017858*
X2017517Y1742485*
X2017403Y1742641*
X2017289Y1742953*
X2005211Y1819984D02*
X2006802Y1816702D01*
Y1819984D02*
X2005211Y1816702D01*
X2007938Y1819202D02*
Y1819359D01*
X2008052Y1819671*
X2008165Y1819827*
X2008392Y1819984*
X2008847*
X2009074Y1819827*
X2009188Y1819671*
X2009302Y1819359*
Y1819046*
X2009188Y1818734*
X2008961Y1818265*
X2007824Y1816702*
X2009415*
X1999260Y1955705D02*
X1999146Y1956017D01*
X1998919Y1956330*
X1998691Y1956486*
X1998237*
X1998010Y1956330*
X1997782Y1956017*
X1997669Y1955705*
X1997555Y1955236*
Y1954455*
X1997669Y1953986*
X1997782Y1953673*
X1998010Y1953361*
X1998237Y1953205*
X1998691*
X1998919Y1953361*
X1999146Y1953673*
X1999260Y1953986*
X2000282Y1955861D02*
X2000510Y1956017D01*
X2000851Y1956486*
Y1953205*
X2074058Y1974002D02*
X2073945Y1974315D01*
X2073717Y1974627*
X2073490Y1974784*
X2073036*
X2072808Y1974627*
X2072581Y1974315*
X2072467Y1974002*
X2072354Y1973534*
Y1972752*
X2072467Y1972284*
X2072581Y1971971*
X2072808Y1971659*
X2073036Y1971502*
X2073490*
X2073717Y1971659*
X2073945Y1971971*
X2074058Y1972284*
X2075195Y1974002D02*
Y1974159D01*
X2075308Y1974471*
X2075422Y1974627*
X2075649Y1974784*
X2076104*
X2076331Y1974627*
X2076445Y1974471*
X2076558Y1974159*
Y1973846*
X2076445Y1973534*
X2076217Y1973065*
X2075081Y1971502*
X2076672*
X2012063Y1798802D02*
X2011949Y1799115D01*
X2011722Y1799427*
X2011495Y1799584*
X2011040*
X2010813Y1799427*
X2010586Y1799115*
X2010472Y1798802*
X2010358Y1798334*
Y1797552*
X2010472Y1797084*
X2010586Y1796771*
X2010813Y1796459*
X2011040Y1796302*
X2011495*
X2011722Y1796459*
X2011949Y1796771*
X2012063Y1797084*
X2013086Y1798959D02*
X2013313Y1799115D01*
X2013654Y1799584*
Y1796302*
X2015813Y1799584D02*
X2014677Y1797396D01*
X2016381*
X2015813Y1799584D02*
Y1796302D01*
X2011811Y1858984D02*
X2013402Y1855702D01*
Y1858984D02*
X2011811Y1855702D01*
X2014424Y1858359D02*
X2014652Y1858515D01*
X2014992Y1858984*
Y1855702*
X1997802Y1733402D02*
X1997688Y1733715D01*
X1997461Y1734027*
X1997233Y1734184*
X1996779*
X1996552Y1734027*
X1996324Y1733715*
X1996211Y1733402*
X1996097Y1732934*
Y1732152*
X1996211Y1731684*
X1996324Y1731371*
X1996552Y1731059*
X1996779Y1730902*
X1997233*
X1997461Y1731059*
X1997688Y1731371*
X1997802Y1731684*
X1998938Y1733402D02*
Y1733559D01*
X1999052Y1733871*
X1999165Y1734027*
X1999392Y1734184*
X1999847*
X2000074Y1734027*
X2000188Y1733871*
X2000302Y1733559*
Y1733246*
X2000188Y1732934*
X1999961Y1732465*
X1998824Y1730902*
X2000415*
X2001552Y1733402D02*
Y1733559D01*
X2001665Y1733871*
X2001779Y1734027*
X2002006Y1734184*
X2002461*
X2002688Y1734027*
X2002802Y1733871*
X2002915Y1733559*
Y1733246*
X2002802Y1732934*
X2002574Y1732465*
X2001438Y1730902*
X2003029*
X2087922Y1812784D02*
X2089513Y1809502D01*
Y1812784D02*
X2087922Y1809502D01*
X2090763Y1812784D02*
X2092013D01*
X2091331Y1811534*
X2091672*
X2091899Y1811377*
X2092013Y1811221*
X2092127Y1810752*
Y1810440*
X2092013Y1809971*
X2091786Y1809659*
X2091445Y1809502*
X2091104*
X2090763Y1809659*
X2090649Y1809815*
X2090536Y1810127*
X2080346Y1969766D02*
Y1966484D01*
Y1969766D02*
X2081142D01*
X2081142D02*
X2081483Y1969609D01*
X2081710Y1969297*
X2081824Y1968984*
X2081937Y1968516*
X2081937D02*
Y1967734D01*
X2081824Y1967266*
X2081824D02*
X2081710Y1966953D01*
X2081483Y1966641*
X2081483D02*
X2081142Y1966484D01*
X2080346*
X2082960Y1969141D02*
X2083187Y1969297D01*
X2083528Y1969766*
X2083528D02*
Y1966484D01*
X2053740Y1943790D02*
Y1940509D01*
Y1943790D02*
X2054536D01*
X2054877Y1943634*
X2055104Y1943321*
X2055217Y1943009*
X2055331Y1942540*
Y1941759*
X2055217Y1941290*
X2055104Y1940977*
X2054877Y1940665*
X2054536Y1940509*
X2053740*
X2056467Y1943009D02*
Y1943165D01*
X2056581Y1943477*
X2056695Y1943634*
X2056922Y1943790*
X2057377*
X2057604Y1943634*
X2057717Y1943477*
X2057831Y1943165*
Y1942852*
X2057717Y1942540*
X2057490Y1942071*
X2056354Y1940509*
X2057945*
X2079611Y1907584D02*
Y1905240D01*
X2079724Y1904771*
X2079952Y1904459*
X2080292Y1904302*
X2080520*
X2080861Y1904459*
X2081088Y1904771*
X2081202Y1905240*
Y1907584*
X2082224Y1906959D02*
X2082452Y1907115D01*
X2082792Y1907584*
Y1904302*
X2077043Y1690919D02*
Y1687638D01*
Y1690919D02*
X2078066D01*
X2078407Y1690763*
X2078521Y1690607*
X2078634Y1690294*
Y1689982*
X2078521Y1689669*
X2078407Y1689513*
X2078066Y1689357*
X2077043D02*
X2078066D01*
X2078407Y1689200*
X2078521Y1689044*
X2078634Y1688732*
Y1688263*
X2078521Y1687950*
X2078407Y1687794*
X2078066Y1687638*
X2077043*
X2079771Y1690138D02*
Y1690294D01*
X2079884Y1690607*
X2079998Y1690763*
X2080225Y1690919*
X2080680*
X2080907Y1690763*
X2081021Y1690607*
X2081134Y1690294*
Y1689982*
X2081021Y1689669*
X2080793Y1689200*
X2079657Y1687638*
X2081248*
X1997591Y1688210D02*
Y1684929D01*
Y1688210D02*
X1998613D01*
X1998954Y1688054*
X1999068Y1687898*
X1999181Y1687585*
Y1687273*
X1999068Y1686960*
X1998954Y1686804*
X1998613Y1686648*
X1997591D02*
X1998613D01*
X1998954Y1686492*
X1999068Y1686335*
X1999181Y1686023*
Y1685554*
X1999068Y1685242*
X1998954Y1685085*
X1998613Y1684929*
X1997591*
X2000204Y1687585D02*
X2000431Y1687742D01*
X2000772Y1688210*
Y1684929*
X2018409Y1735159D02*
Y1731878D01*
Y1735159D02*
X2019432D01*
X2019773Y1735003*
X2019887Y1734847*
X2020000Y1734534*
Y1734222*
X2019887Y1733909*
X2019773Y1733753*
X2019432Y1733597*
X2018409*
X2019205D02*
X2020000Y1731878D01*
X2021023Y1734534D02*
X2021250Y1734690D01*
X2021591Y1735159*
Y1731878*
X2024091Y1734065D02*
X2023978Y1733597D01*
X2023750Y1733284*
X2023409Y1733128*
X2023296*
X2022955Y1733284*
X2022728Y1733597*
X2022614Y1734065*
Y1734222*
X2022728Y1734690*
X2022955Y1735003*
X2023296Y1735159*
X2023409*
X2023750Y1735003*
X2023978Y1734690*
X2024091Y1734065*
Y1733284*
X2023978Y1732503*
X2023750Y1732034*
X2023409Y1731878*
X2023182*
X2022841Y1732034*
X2022728Y1732347*
X1991840Y1759213D02*
X1991528Y1759100D01*
X1991215Y1758872*
X1991059Y1758645*
Y1758190*
X1991215Y1757963*
X1991528Y1757736*
X1991840Y1757622*
X1992309Y1757509*
X1993090*
X1993559Y1757622*
X1993871Y1757736*
X1994184Y1757963*
X1994340Y1758190*
Y1758645*
X1994184Y1758872*
X1993871Y1759100*
X1993559Y1759213*
X1991684Y1760236D02*
X1991528Y1760463D01*
X1991059Y1760804*
X1994340*
X1992153Y1763304D02*
X1992621Y1763190D01*
X1992934Y1762963*
X1993090Y1762622*
Y1762509*
X1992934Y1762168*
X1992621Y1761940*
X1992153Y1761827*
X1991996*
X1991528Y1761940*
X1991215Y1762168*
X1991059Y1762509*
Y1762622*
X1991215Y1762963*
X1991528Y1763190*
X1992153Y1763304*
X1992934*
X1993715Y1763190*
X1994184Y1762963*
X1994340Y1762622*
Y1762395*
X1994184Y1762054*
X1993871Y1761940*
X1987246Y1758975D02*
X1986934Y1758861D01*
X1986621Y1758634*
X1986465Y1758406*
Y1757952*
X1986621Y1757725*
X1986934Y1757497*
X1987246Y1757384*
X1987715Y1757270*
X1988496*
X1988965Y1757384*
X1989278Y1757497*
X1989590Y1757725*
X1989746Y1757952*
Y1758406*
X1989590Y1758634*
X1989278Y1758861*
X1988965Y1758975*
X1987090Y1759997D02*
X1986934Y1760225D01*
X1986465Y1760565*
X1989746*
X1986465Y1762156D02*
X1986621Y1761815D01*
X1986934Y1761702*
X1987246*
X1987559Y1761815*
X1987715Y1762043*
X1987871Y1762497*
X1988028Y1762838*
X1988340Y1763065*
X1988653Y1763179*
X1989121*
X1989434Y1763065*
X1989590Y1762952*
X1989746Y1762611*
Y1762156*
X1989590Y1761815*
X1989434Y1761702*
X1989121Y1761588*
X1988653*
X1988340Y1761702*
X1988028Y1761929*
X1987871Y1762270*
X1987715Y1762725*
X1987559Y1762952*
X1987246Y1763065*
X1986934*
X1986621Y1762952*
X1986465Y1762611*
Y1762156*
X2001319Y1910486D02*
Y1907205D01*
Y1910486D02*
X2002342D01*
X2002683Y1910330*
X2002796Y1910173*
X2002910Y1909861*
Y1909548*
X2002796Y1909236*
X2002683Y1909080*
X2002342Y1908923*
X2001319*
X2002114D02*
X2002910Y1907205D01*
X2005523Y1910486D02*
X2004387Y1907205D01*
X2003933Y1910486D02*
X2005523D01*
X1989611Y1736584D02*
Y1733302D01*
Y1736584D02*
X1990633D01*
X1990974Y1736427*
X1991088Y1736271*
X1991202Y1735959*
Y1735646*
X1991088Y1735334*
X1990974Y1735177*
X1990633Y1735021*
X1989611*
X1990406D02*
X1991202Y1733302D01*
X1992224Y1735959D02*
X1992452Y1736115D01*
X1992792Y1736584*
Y1733302*
X1995179Y1736115D02*
X1995065Y1736427D01*
X1994724Y1736584*
X1994497*
X1994156Y1736427*
X1993929Y1735959*
X1993815Y1735177*
Y1734396*
X1993929Y1733771*
X1994156Y1733459*
X1994497Y1733302*
X1994611*
X1994952Y1733459*
X1995179Y1733771*
X1995292Y1734240*
Y1734396*
X1995179Y1734865*
X1994952Y1735177*
X1994611Y1735334*
X1994497*
X1994156Y1735177*
X1993929Y1734865*
X1993815Y1734396*
X2080267Y1759984D02*
Y1756702D01*
Y1759984D02*
X2081290D01*
X2081631Y1759827*
X2081745Y1759671*
X2081858Y1759359*
Y1759046*
X2081745Y1758734*
X2081631Y1758577*
X2081290Y1758421*
X2080267*
X2081063D02*
X2081858Y1756702D01*
X2082881Y1759359D02*
X2083108Y1759515D01*
X2083449Y1759984*
Y1756702*
X2085608Y1759984D02*
X2084472Y1757796D01*
X2086177*
X2085608Y1759984D02*
Y1756702D01*
X2059041Y1929315D02*
X2062322D01*
X2059041D02*
Y1930338D01*
X2059197Y1930679*
X2059353Y1930792*
X2059666Y1930906*
X2059978*
X2060291Y1930792*
X2060447Y1930679*
X2060603Y1930338*
Y1929315*
Y1930110D02*
X2062322Y1930906D01*
X2059041Y1933406D02*
Y1932269D01*
X2060447Y1932156*
X2060291Y1932269*
X2060134Y1932610*
Y1932951*
X2060291Y1933292*
X2060603Y1933519*
X2061072Y1933633*
X2061384Y1933519*
X2061853Y1933406*
X2062166Y1933179*
X2062322Y1932838*
Y1932497*
X2062166Y1932156*
X2062009Y1932042*
X2061697Y1931929*
X2030853Y1924165D02*
X2034134D01*
X2030853D02*
Y1925188D01*
X2031009Y1925529*
X2031165Y1925643*
X2031478Y1925756*
X2031790*
X2032103Y1925643*
X2032259Y1925529*
X2032415Y1925188*
Y1924165*
Y1924961D02*
X2034134Y1925756D01*
X2031634Y1926893D02*
X2031478D01*
X2031165Y1927006*
X2031009Y1927120*
X2030853Y1927347*
Y1927802*
X2031009Y1928029*
X2031165Y1928143*
X2031478Y1928256*
X2031790*
X2032103Y1928143*
X2032571Y1927915*
X2034134Y1926779*
Y1928370*
X2040746Y1924272D02*
X2044028D01*
X2040746D02*
Y1925294D01*
X2040903Y1925635*
X2041059Y1925749*
X2041371Y1925863*
X2041684*
X2041996Y1925749*
X2042153Y1925635*
X2042309Y1925294*
Y1924272*
Y1925067D02*
X2044028Y1925863D01*
X2040746Y1928022D02*
X2042934Y1926885D01*
Y1928590*
X2040746Y1928022D02*
X2044028D01*
X2035644Y1924165D02*
X2038925D01*
X2035644D02*
Y1925188D01*
X2035800Y1925529*
X2035956Y1925643*
X2036269Y1925756*
X2036581*
X2036894Y1925643*
X2037050Y1925529*
X2037206Y1925188*
Y1924165*
Y1924961D02*
X2038925Y1925756D01*
X2035644Y1927006D02*
Y1928256D01*
X2036894Y1927574*
Y1927915*
X2037050Y1928143*
X2037206Y1928256*
X2037675Y1928370*
X2037988*
X2038456Y1928256*
X2038769Y1928029*
X2038925Y1927688*
Y1927347*
X2038769Y1927006*
X2038613Y1926893*
X2038300Y1926779*
X2077065Y1865472D02*
X2080346D01*
X2077065D02*
Y1866495D01*
X2077221Y1866836*
X2077378Y1866950*
X2077690Y1867063*
X2078003*
X2078315Y1866950*
X2078471Y1866836*
X2078628Y1866495*
Y1865472*
Y1866268D02*
X2080346Y1867063D01*
X2077690Y1868086D02*
X2077534Y1868313D01*
X2077065Y1868654*
X2080346*
X2077065Y1870359D02*
X2077221Y1870018D01*
X2077690Y1869790*
X2078471Y1869677*
X2078940*
X2079721Y1869790*
X2080190Y1870018*
X2080346Y1870359*
Y1870586*
X2080190Y1870927*
X2079721Y1871154*
X2078940Y1871268*
X2078471*
X2077690Y1871154*
X2077221Y1870927*
X2077065Y1870586*
Y1870359*
X2060215Y1878184D02*
Y1874902D01*
Y1878184D02*
X2061238D01*
X2061579Y1878027*
X2061692Y1877871*
X2061806Y1877559*
Y1877246*
X2061692Y1876934*
X2061579Y1876777*
X2061238Y1876621*
X2060215*
X2061011D02*
X2061806Y1874902D01*
X2064306Y1877090D02*
X2064192Y1876621D01*
X2063965Y1876309*
X2063624Y1876152*
X2063511*
X2063170Y1876309*
X2062942Y1876621*
X2062829Y1877090*
Y1877246*
X2062942Y1877715*
X2063170Y1878027*
X2063511Y1878184*
X2063624*
X2063965Y1878027*
X2064192Y1877715*
X2064306Y1877090*
Y1876309*
X2064192Y1875527*
X2063965Y1875059*
X2063624Y1874902*
X2063397*
X2063056Y1875059*
X2062942Y1875371*
X2060304Y1873384D02*
Y1870102D01*
Y1873384D02*
X2061327D01*
X2061667Y1873227*
X2061781Y1873071*
X2061895Y1872759*
Y1872446*
X2061781Y1872134*
X2061667Y1871977*
X2061327Y1871821*
X2060304*
X2061099D02*
X2061895Y1870102D01*
X2063486Y1873384D02*
X2063145Y1873227D01*
X2063031Y1872915*
Y1872602*
X2063145Y1872290*
X2063372Y1872134*
X2063827Y1871977*
X2064167Y1871821*
X2064395Y1871509*
X2064508Y1871196*
Y1870727*
X2064395Y1870415*
X2064281Y1870259*
X2063940Y1870102*
X2063486*
X2063145Y1870259*
X2063031Y1870415*
X2062917Y1870727*
Y1871196*
X2063031Y1871509*
X2063258Y1871821*
X2063599Y1871977*
X2064054Y1872134*
X2064281Y1872290*
X2064395Y1872602*
Y1872915*
X2064281Y1873227*
X2063940Y1873384*
X2063486*
X2026065Y1924272D02*
X2029346D01*
X2026065D02*
Y1925294D01*
X2026221Y1925635*
X2026378Y1925749*
X2026690Y1925863*
X2027003*
X2027315Y1925749*
X2027471Y1925635*
X2027628Y1925294*
Y1924272*
Y1925067D02*
X2029346Y1925863D01*
X2026690Y1926885D02*
X2026534Y1927113D01*
X2026065Y1927453*
X2029346*
X2017395Y1936420D02*
Y1937120D01*
X2017185Y1937820*
X2016765Y1938450*
X2016205Y1938940*
X2015505Y1939290*
X2014805Y1939360*
X2014105Y1939290*
X2013405Y1938940*
X2012845Y1938450*
X2012425Y1937820*
X2012215Y1937120*
Y1936420*
X2012425Y1935720*
X2012845Y1935090*
X2013405Y1934600*
X2014105Y1934250*
X2014805Y1934180*
X2015505Y1934250*
X2016205Y1934600*
X2016765Y1935090*
X2017185Y1935720*
X2017395Y1936420*
X2013895Y1935370D02*
Y1938170D01*
X2015155*
X2015295*
X2015575Y1938030*
X2015715Y1937890*
X2015855Y1937610*
Y1937330*
X2015715Y1937050*
X2015575Y1936910*
X2015295Y1936770*
X2013895*
X2006545Y1933550D02*
X2003045D01*
X2009275Y1946150*
X2012775*
X2006545Y1933550*
X2003144Y1933750D02*
X2006644D01*
X2003392Y1934250D02*
X2006892D01*
X2003639Y1934750D02*
X2007139D01*
X2003886Y1935250D02*
X2007386D01*
X2004133Y1935750D02*
X2007633D01*
X2004380Y1936250D02*
X2007880D01*
X2004628Y1936750D02*
X2008128D01*
X2004875Y1937250D02*
X2008375D01*
X2005122Y1937750D02*
X2008622D01*
X2005369Y1938250D02*
X2008869D01*
X2005617Y1938750D02*
X2009117D01*
X2005864Y1939250D02*
X2009364D01*
X2006111Y1939750D02*
X2009611D01*
X2006358Y1940250D02*
X2009858D01*
X2006605Y1940750D02*
X2010105D01*
X2006853Y1941250D02*
X2010353D01*
X2007100Y1941750D02*
X2010600D01*
X2007347Y1942250D02*
X2010847D01*
X2007594Y1942750D02*
X2011094D01*
X2007842Y1943250D02*
X2011342D01*
X2008089Y1943750D02*
X2011589D01*
X2008336Y1944250D02*
X2011836D01*
X2008583Y1944750D02*
X2012083D01*
X2008830Y1945250D02*
X2012330D01*
X2009078Y1945750D02*
X2012578D01*
X1996815Y1933550D02*
X1999195D01*
X2005635Y1946150*
X1995765*
X1995345Y1946010*
X1995135Y1945800*
X1994995Y1945590*
X1994925Y1945380*
X1994855Y1945030*
X1994925Y1944680*
X1994995Y1944470*
X1995275Y1944050*
X1999545Y1939150*
X1999755Y1938730*
X1999895Y1938380*
X2000035Y1937750*
Y1937260*
X1999965Y1936770*
X1999825Y1936280*
X1999615Y1935790*
X1999405Y1935370*
X1998705Y1934670*
X1998215Y1934320*
X1997795Y1934110*
X1997095Y1933830*
X1996815Y1933550*
X1997015Y1933750D02*
X1999298D01*
X1998075Y1934250D02*
X1999553D01*
X1998785Y1934750D02*
X1999809D01*
X1999285Y1935250D02*
X2000064D01*
X1999595Y1935750D02*
X2000320D01*
X1999813Y1936250D02*
X2000575D01*
X1999960Y1936750D02*
X2000831D01*
X2000034Y1937250D02*
X2001087D01*
X2000035Y1937750D02*
X2001342D01*
X1999924Y1938250D02*
X2001598D01*
X1999745Y1938750D02*
X2001853D01*
X1999458Y1939250D02*
X2002109D01*
X1999023Y1939750D02*
X2002364D01*
X1998587Y1940250D02*
X2002620D01*
X1998151Y1940750D02*
X2002875D01*
X1997715Y1941250D02*
X2003131D01*
X1997280Y1941750D02*
X2003387D01*
X1996844Y1942250D02*
X2003642D01*
X1996408Y1942750D02*
X2003898D01*
X1995973Y1943250D02*
X2004153D01*
X1995537Y1943750D02*
X2004409D01*
X1995142Y1944250D02*
X2004664D01*
X1994912Y1944750D02*
X2004920D01*
X1994899Y1945250D02*
X2005175D01*
X1995102Y1945750D02*
X2005431D01*
X2014595Y1936770D02*
X2015155Y1936490D01*
X2015435Y1936280*
X2015645Y1936000*
X2015785Y1935720*
X2015855Y1935370*
X2014735Y1949510D02*
X1994575D01*
X1993945Y1949370*
X1993385Y1949090*
X1992545Y1948460*
X1992195Y1948040*
X1991775Y1947550*
X1991495Y1946990*
X1991285Y1946430*
X1991145Y1945800*
X1991075Y1945240*
X1991145Y1944540*
X1991285Y1943980*
X1991565Y1943420*
X1991915Y1942860*
X1992335Y1942370*
X1995975Y1938170*
X1996045Y1938100*
X1996185Y1937890*
X1996255Y1937610*
X1996185Y1937260*
X1996045Y1937050*
X1995835Y1936910*
X1995695Y1936840*
X1985685*
X1993153Y1951067*
X2015623*
X2014735Y1949510*
X1985790Y1937040D02*
X1996030D01*
X1986053Y1937540D02*
X1996241D01*
X1986315Y1938040D02*
X1996085D01*
X1986578Y1938540D02*
X1995655D01*
X1986840Y1939040D02*
X1995222D01*
X1987103Y1939540D02*
X1994788D01*
X1987365Y1940040D02*
X1994355D01*
X1987628Y1940540D02*
X1993922D01*
X1987890Y1941040D02*
X1993488D01*
X1988152Y1941540D02*
X1993055D01*
X1988415Y1942040D02*
X1992622D01*
X1988677Y1942540D02*
X1992190D01*
X1988940Y1943040D02*
X1991803D01*
X1989202Y1943540D02*
X1991505D01*
X1989465Y1944040D02*
X1991270D01*
X1989727Y1944540D02*
X1991145D01*
X1989989Y1945040D02*
X1991095D01*
X1990252Y1945540D02*
X1991113D01*
X1990514Y1946040D02*
X1991199D01*
X1990777Y1946540D02*
X1991327D01*
X1991039Y1947040D02*
X1991520D01*
X1991302Y1947540D02*
X1991770D01*
X1991564Y1948040D02*
X1992195D01*
X1991827Y1948540D02*
X1992652D01*
X1992089Y1949040D02*
X1993319D01*
X1992351Y1949540D02*
X2014753D01*
X1992614Y1950040D02*
X2015038D01*
X1992876Y1950540D02*
X2015323D01*
X1993139Y1951040D02*
X2015607D01*
X2065800Y1849579D02*
X2070240D01*
X2065980Y1849879D02*
X2070540D01*
X2066160Y1850179D02*
X2070900D01*
X2066400Y1850479D02*
X2071260D01*
X2066580Y1850779D02*
X2071980D01*
X2066760Y1851079D02*
X2073120D01*
X2066940Y1851379D02*
X2074260D01*
X2067120Y1851679D02*
X2075400D01*
X2067300Y1851979D02*
X2076540D01*
X2067480Y1852279D02*
X2077680D01*
X2067720Y1852579D02*
X2078760D01*
X2067900Y1852879D02*
X2079840D01*
X2068080Y1853179D02*
X2080680D01*
X2068260Y1853479D02*
X2081220D01*
X2068440Y1853779D02*
X2081760D01*
X2068620Y1854079D02*
X2082300D01*
X2068800Y1854379D02*
X2082840D01*
X2069040Y1854679D02*
X2083020D01*
X2069220Y1854979D02*
X2082840D01*
X2069400Y1855279D02*
X2082600D01*
X2069580Y1855579D02*
X2082420D01*
X2069760Y1855879D02*
X2082240D01*
X2069940Y1856179D02*
X2082060D01*
X2070120Y1856479D02*
X2081820D01*
X2070360Y1856779D02*
X2081640D01*
X2070540Y1857079D02*
X2081460D01*
X2070720Y1857379D02*
X2081280D01*
X2070900Y1857679D02*
X2081040D01*
X2071080Y1857979D02*
X2080860D01*
X2071260Y1858279D02*
X2080680D01*
X2071500Y1858579D02*
X2080500D01*
X2071680Y1858879D02*
X2080260D01*
X2071860Y1859179D02*
X2080080D01*
X2072040Y1859479D02*
X2079900D01*
X2072220Y1859779D02*
X2079720D01*
X2072400Y1860079D02*
X2079540D01*
X2072580Y1860379D02*
X2079300D01*
X2072820Y1860679D02*
X2079120D01*
X2073000Y1860979D02*
X2078940D01*
X2073180Y1861279D02*
X2078760D01*
X2073360Y1861579D02*
X2078520D01*
X2073540Y1861879D02*
X2078340D01*
X2073720Y1862179D02*
X2078160D01*
X2073900Y1862479D02*
X2077980D01*
X2074140Y1862779D02*
X2077740D01*
X2074320Y1863079D02*
X2077560D01*
X2074500Y1863379D02*
X2077380D01*
X2074680Y1863679D02*
X2077200D01*
X2074860Y1863979D02*
X2076960D01*
X2075040Y1864279D02*
X2076780D01*
X2075220Y1864579D02*
X2076600D01*
X2075460Y1864879D02*
X2076420D01*
X2075640Y1865179D02*
X2076180D01*
X2075820Y1865479D02*
X2076000D01*
X2083440Y1850359D02*
X2081640Y1849159D01*
X2080740Y1847659*
X2079840Y1846459*
X2078640Y1845559*
X2076840Y1844959*
X2092440Y1838059*
X2084940Y1850959*
X2083440Y1850359*
X2092080Y1838179D02*
X2092320D01*
X2091420Y1838479D02*
X2092140D01*
X2090700Y1838779D02*
X2091960D01*
X2090040Y1839079D02*
X2091780D01*
X2089380Y1839379D02*
X2091600D01*
X2088660Y1839679D02*
X2091480D01*
X2088000Y1839979D02*
X2091300D01*
X2087340Y1840279D02*
X2091120D01*
X2086620Y1840579D02*
X2090940D01*
X2085960Y1840879D02*
X2090760D01*
X2085300Y1841179D02*
X2090580D01*
X2084640Y1841479D02*
X2090400D01*
X2083920Y1841779D02*
X2090220D01*
X2083260Y1842079D02*
X2090040D01*
X2082600Y1842379D02*
X2089860D01*
X2081880Y1842679D02*
X2089680D01*
X2081220Y1842979D02*
X2089560D01*
X2080560Y1843279D02*
X2089380D01*
X2079840Y1843579D02*
X2089200D01*
X2079180Y1843879D02*
X2089020D01*
X2078520Y1844179D02*
X2088840D01*
X2077800Y1844479D02*
X2088660D01*
X2077140Y1844779D02*
X2088480D01*
X2077260Y1845079D02*
X2088300D01*
X2078160Y1845379D02*
X2088120D01*
X2078820Y1845679D02*
X2087940D01*
X2079240Y1845979D02*
X2087760D01*
X2079600Y1846279D02*
X2087640D01*
X2079900Y1846579D02*
X2087460D01*
X2080140Y1846879D02*
X2087280D01*
X2080380Y1847179D02*
X2087100D01*
X2080620Y1847479D02*
X2086920D01*
X2080800Y1847779D02*
X2086740D01*
X2080980Y1848079D02*
X2086560D01*
X2081160Y1848379D02*
X2086380D01*
X2081340Y1848679D02*
X2086200D01*
X2081520Y1848979D02*
X2086020D01*
X2081820Y1849279D02*
X2085840D01*
X2082300Y1849579D02*
X2085720D01*
X2082720Y1849879D02*
X2085540D01*
X2083200Y1850179D02*
X2085360D01*
X2083800Y1850479D02*
X2085180D01*
X2084520Y1850779D02*
X2085000D01*
X2060700Y1840879D02*
X2067300D01*
X2068560D02*
X2070900D01*
X2072160D02*
X2081580D01*
X2060880Y1841179D02*
X2067120D01*
X2068560D02*
X2070840D01*
X2072340D02*
X2080920D01*
X2061060Y1841479D02*
X2067000D01*
X2068500D02*
X2070840D01*
X2072400D02*
X2080200D01*
X2061240Y1841779D02*
X2066880D01*
X2068440D02*
X2070840D01*
X2072520D02*
X2079540D01*
X2061420Y1842079D02*
X2066880D01*
X2068440D02*
X2070900D01*
X2072580D02*
X2078880D01*
X2061600Y1842379D02*
X2066880D01*
X2068440D02*
X2071020D01*
X2072700D02*
X2078160D01*
X2061780Y1842679D02*
X2066820D01*
X2068440D02*
X2071080D01*
X2072940D02*
X2077500D01*
X2061960Y1842979D02*
X2066820D01*
X2068440D02*
X2071140D01*
X2073180D02*
X2076780D01*
X2062140Y1843279D02*
X2066760D01*
X2068440D02*
X2071200D01*
X2073420D02*
X2076120D01*
X2062320Y1843579D02*
X2066760D01*
X2068440D02*
X2071320D01*
X2073720D02*
X2075460D01*
X2062440Y1843879D02*
X2066760D01*
X2068440D02*
X2071380D01*
X2074200D02*
X2074740D01*
X2062620Y1844179D02*
X2066700D01*
X2068440D02*
X2071560D01*
X2062800Y1844479D02*
X2066700D01*
X2068620D02*
X2071860D01*
X2062980Y1844779D02*
X2066640D01*
X2069040D02*
X2072040D01*
X2063160Y1845079D02*
X2066640D01*
X2069400D02*
X2071560D01*
X2063340Y1845379D02*
X2066640D01*
X2069940D02*
X2070660D01*
X2063520Y1845679D02*
X2066700D01*
X2063700Y1845979D02*
X2066940D01*
X2063880Y1846279D02*
X2067180D01*
X2064000Y1846579D02*
X2067420D01*
X2064180Y1846879D02*
X2067180D01*
X2064360Y1847179D02*
X2066520D01*
X2064540Y1847479D02*
X2065800D01*
X2083140Y1854559D02*
X2080440Y1853059D01*
X2077140Y1852159*
X2071440Y1850659*
X2068740Y1848259*
X2065740Y1849459*
X2075940Y1865659*
X2083140Y1854559*
X2068320Y1848379D02*
X2068860D01*
X2067600Y1848679D02*
X2069220D01*
X2066820Y1848979D02*
X2069580D01*
X2066100Y1849279D02*
X2069880D01*
X2064840Y1847959D02*
X2067540Y1846759D01*
X2066640Y1845559*
X2066940Y1841659*
X2068140Y1839259*
X2068740Y1839559*
Y1839859*
X2068440Y1842259*
Y1844359*
X2069640Y1845259*
X2070240Y1845559*
X2072040Y1844959*
Y1844659*
X2071440Y1844059*
X2070840Y1841659*
Y1841059*
X2071140Y1840459*
X2071740*
X2072340Y1841059*
X2072640Y1842259*
X2073540Y1843459*
X2074440Y1844059*
X2091540Y1836559*
X2058240*
X2064840Y1847959*
X2058300Y1836679D02*
X2091180D01*
X2058480Y1836979D02*
X2090460D01*
X2058660Y1837279D02*
X2089800D01*
X2058840Y1837579D02*
X2089140D01*
X2059020Y1837879D02*
X2088420D01*
X2059140Y1838179D02*
X2087760D01*
X2059320Y1838479D02*
X2087040D01*
X2059500Y1838779D02*
X2086380D01*
X2059680Y1839079D02*
X2085720D01*
X2059860Y1839379D02*
X2068020D01*
X2068440D02*
X2085000D01*
X2060040Y1839679D02*
X2067900D01*
X2068740D02*
X2084340D01*
X2060220Y1839979D02*
X2067720D01*
X2068680D02*
X2083620D01*
X2060400Y1840279D02*
X2067600D01*
X2068680D02*
X2082960D01*
X2060580Y1840579D02*
X2067420D01*
X2068620D02*
X2071020D01*
X2071860D02*
X2082300D01*
X2064720Y1847779D02*
X2065140D01*
G54D38*
X2078340Y1795709D02*
X2084340D01*
Y1784109*
X2078340*
Y1795709*
X2065622Y1811212D02*
X2059622D01*
Y1822812*
X2065622*
Y1811212*
X2052940Y1807309D02*
Y1801309D01*
X2041340*
Y1807309*
X2052940*
X2016740Y1801309D02*
Y1807309D01*
X2028340*
Y1801309*
X2016740*
X2007940Y1792309D02*
Y1786309D01*
X1996340*
Y1792309*
X2007940*
X2079540Y1959309D02*
X2073540D01*
Y1970909*
X2079540*
Y1959309*
X2080140Y1885109D02*
X2086140D01*
Y1873509*
X2080140*
Y1885109*
X2065940Y1785709D02*
Y1791709D01*
X2077540*
Y1785709*
X2065940*
X2004131Y1902028D02*
Y1896028D01*
X1992531*
Y1902028*
X2004131*
X2018340Y1866309D02*
X2012340D01*
Y1877909*
X2018340*
Y1866309*
X2057740Y1846909D02*
Y1840909D01*
X2046140*
Y1846909*
X2057740*
X2023340Y1840309D02*
Y1846309D01*
X2034940*
Y1840309*
X2023340*
X2067185Y1903225D02*
X2073185D01*
Y1891625*
X2067185*
Y1903225*
X2000740Y1747309D02*
Y1741309D01*
X1989140*
Y1747309*
X2000740*
X1989189Y1664893D02*
X1983189D01*
Y1676493*
X1989189*
Y1664893*
X2092201Y1665267D02*
X2086201D01*
Y1676867*
X2092201*
Y1665267*
X2089540Y1770709D02*
Y1764709D01*
X2077940*
Y1770709*
X2089540*
X2008140Y1718709D02*
X2002140D01*
Y1730309*
X2008140*
Y1718709*
X2050646Y1682429D02*
Y1676429D01*
X2039046*
Y1682429*
X2050646*
X2008717Y1929946D02*
X2014717D01*
Y1918346*
X2008717*
Y1929946*
X2000540Y1779709D02*
Y1785709D01*
X2012140*
Y1779709*
X2000540*
X2050646Y1689917D02*
Y1683917D01*
X2039046*
Y1689917*
X2050646*
X1981701Y1664909D02*
X1975701D01*
Y1676509*
X1981701*
Y1664909*
X1973622Y1671496D02*
X1975197D01*
X1972835D02*
X1974016D01*
X1973031Y1669331*
X1975000*
X1974016Y1671496*
Y1672874*
Y1669331D02*
Y1667559D01*
X1999173Y1929946D02*
X2005173D01*
Y1918346*
X1999173*
Y1929946*
X2007252Y1923358D02*
X2005677D01*
X2008039D02*
X2006858D01*
X2007843Y1925524*
X2005874*
X2006858Y1923358*
Y1921980*
Y1925524D02*
Y1927295D01*
X2059602Y1809363D02*
X2065602D01*
Y1797763*
X2059602*
Y1809363*
X2077540Y1887109D02*
Y1881109D01*
X2065940*
Y1887109*
X2077540*
X2101559Y1665267D02*
X2095559D01*
Y1676867*
X2101559*
Y1665267*
X2093480Y1671854D02*
X2095055D01*
X2092693D02*
X2093874D01*
X2092890Y1669689*
X2094858*
X2093874Y1671854*
Y1673232*
Y1669689D02*
Y1667917D01*
X2053205Y1927977D02*
X2059205D01*
Y1916377*
X2053205*
Y1927977*
X2061283Y1921390D02*
X2059709D01*
X2062071D02*
X2060890D01*
X2061874Y1923555*
X2059906*
X2060890Y1921390*
Y1920012*
Y1923555D02*
Y1925327D01*
X2002140Y1759709D02*
X2008140D01*
Y1748109*
X2002140*
Y1759709*
X1995540D02*
X2001540D01*
Y1748109*
X1995540*
Y1759709*
X1994940Y1718709D02*
X1988940D01*
Y1730309*
X1994940*
Y1718709*
X2070615Y1727358D02*
Y1721358D01*
X2059015*
Y1727358*
X2070615*
X2029340Y1801309D02*
Y1807309D01*
X2040940*
Y1801309*
X2029340*
X2002688Y1958829D02*
X2005501D01*
X2004095Y1957806D02*
Y1959852D01*
X2059088Y1962429D02*
X2061901D01*
X2060495Y1961406D02*
Y1963452D01*
X2003699Y1802013D02*
Y1804825D01*
X2004721Y1803419D02*
X2002676D01*
X1995540Y1730309D02*
X2001540D01*
Y1718709*
X1995540*
Y1730309*
X2091435Y1969367D02*
X2093480D01*
X2053701Y1939635D02*
X2055746D01*
X2030940Y1929909D02*
X2024940D01*
Y1941509*
X2030940*
Y1929909*
G54D43*
X1986504Y1961287D02*
X1986862Y1961533D01*
X1987399Y1962271*
Y1957104*
X2089704Y1691887D02*
X2090062Y1692133D01*
X2090599Y1692871*
Y1687704*
X2017704Y1681687D02*
X2018062Y1681933D01*
X2018599Y1682671*
Y1677504*
X1999815Y1779033D02*
X1999949Y1778848D01*
X2000083Y1779033*
X1999949Y1779218*
X1999815Y1779033*
X1999949Y1777741D02*
Y1775157D01*
X2002902Y1779033D02*
Y1775157D01*
Y1777188D02*
X2002634Y1777557D01*
X2002634D02*
X2002365Y1777741D01*
X2001962*
X2001694Y1777557*
X2001426Y1777188*
X2001426D02*
X2001291Y1776634D01*
Y1776265*
X2001426Y1775711*
X2001694Y1775342*
X2001962Y1775157*
X2002365*
X2002634Y1775342*
X2002634D02*
X2002902Y1775711D01*
X2005720Y1779033D02*
Y1775157D01*
Y1777188D02*
X2005452Y1777557D01*
X2005184Y1777741*
X2004781*
X2004513Y1777557*
X2004244Y1777188*
X2004244D02*
X2004110Y1776634D01*
Y1776265*
X2004244Y1775711*
X2004513Y1775342*
X2004781Y1775157*
X2005184*
X2005452Y1775342*
X2005720Y1775711*
X1985304Y1889887D02*
X1985662Y1890133D01*
X1986199Y1890871*
Y1885704*
G54D57*
X2063240Y1910157D02*
Y1940630D01*
X2091311*
Y1909646*
G54D59*
X1985304Y1967755D02*
Y1963104D01*
Y1967755D02*
X1986592Y1963104D01*
X1987881Y1967755D02*
X1986592Y1963104D01*
X1987881Y1967755D02*
Y1963104D01*
X1989330Y1967755D02*
Y1963104D01*
Y1967755D02*
X1990780D01*
X1991263Y1967533*
X1991424Y1967312*
X1991585Y1966869*
Y1966426*
X1991424Y1965983*
X1991263Y1965761*
X1990780Y1965540*
X1989330D02*
X1990780D01*
X1991263Y1965319*
X1991424Y1965097*
X1991585Y1964654*
Y1963990*
X1991424Y1963547*
X1991263Y1963325*
X1990780Y1963104*
X1989330*
X1995129Y1966204D02*
X1994968Y1965540D01*
X1994968D02*
X1994645Y1965097D01*
X1994162Y1964876*
X1994001*
X1993518Y1965097*
X1993196Y1965540*
X1993035Y1966204*
Y1966426*
X1993196Y1967090*
X1993518Y1967533*
X1994001Y1967755*
X1994162*
X1994645Y1967533*
X1994968Y1967090*
X1994968D02*
X1995129Y1966204D01*
Y1965097*
X1994968Y1963990*
X1994968D02*
X1994645Y1963325D01*
X1994162Y1963104*
X1993840*
X1993357Y1963325*
X1993196Y1963768*
X1996578Y1966869D02*
X1996900Y1967090D01*
X1997383Y1967755*
Y1963104*
X1999155Y1967755D02*
X2000927D01*
X1999960Y1965983*
X2000444*
X2000766Y1965761*
X2000927Y1965540*
X2001088Y1964876*
Y1964433*
X2000927Y1963768*
X2000605Y1963325*
X2000121Y1963104*
X1999638*
X1999155Y1963325*
X1998994Y1963547*
X1998833Y1963990*
X2003826Y1967755D02*
X2002537Y1963104D01*
X2003826Y1967755D02*
X2005114Y1963104D01*
X2003020Y1964654D02*
X2004631D01*
X2071140Y1797709D02*
X2085540D01*
G54D60*
X1989540Y1833554D02*
X1990256Y1830109D01*
X1990972Y1833554D02*
X1990256Y1830109D01*
X1990972Y1833554D02*
X1991688Y1830109D01*
X1992403Y1833554D02*
X1991688Y1830109D01*
X1994014Y1833554D02*
X1994730Y1830109D01*
X1995446Y1833554D02*
X1994730Y1830109D01*
X1995446Y1833554D02*
X1996161Y1830109D01*
X1996877Y1833554D02*
X1996161Y1830109D01*
X1998488Y1833554D02*
X1999204Y1830109D01*
X1999920Y1833554D02*
X1999204Y1830109D01*
X1999920Y1833554D02*
X2000635Y1830109D01*
X2001351Y1833554D02*
X2000635Y1830109D01*
X2003141Y1830601D02*
X2002962Y1830355D01*
X2003141Y1830109*
X2003320Y1830355*
X2003141Y1830601*
X2006899Y1832815D02*
X2006720Y1833307D01*
X2006183Y1833554*
X2005646*
X2005109Y1833307*
X2004930Y1832815*
X2005109Y1832323*
X2005467Y1832077*
X2006362Y1831831*
X2006720Y1831585*
X2006899Y1831093*
Y1830847*
X2006720Y1830355*
X2006183Y1830109*
X2005646*
X2005109Y1830355*
X2004930Y1830847*
X2009046Y1835276D02*
Y1831093D01*
X2009225Y1830355*
X2009583Y1830109*
X2009941*
X2008509Y1833554D02*
X2009762D01*
X2011731Y1830601D02*
X2011552Y1830355D01*
X2011731Y1830109*
X2011910Y1830355*
X2011731Y1830601*
X2015668Y1832815D02*
X2015310Y1833307D01*
X2014952Y1833554*
X2014415*
X2014057Y1833307*
X2013699Y1832815*
X2013520Y1832077*
Y1831585*
X2013699Y1830847*
X2014057Y1830355*
X2014415Y1830109*
X2014952*
X2015310Y1830355*
X2015668Y1830847*
X2018173Y1833554D02*
X2017815Y1833307D01*
X2017457Y1832815*
X2017278Y1832077*
Y1831585*
X2017457Y1830847*
X2017815Y1830355*
X2018173Y1830109*
X2018710*
X2019068Y1830355*
X2019426Y1830847*
X2019605Y1831585*
Y1832077*
X2019426Y1832815*
X2019068Y1833307*
X2018710Y1833554*
X2018173*
X2021215D02*
Y1830109D01*
Y1832569D02*
X2021752Y1833307D01*
X2022110Y1833554*
X2022647*
X2023005Y1833307*
X2023184Y1832569*
Y1830109*
Y1832569D02*
X2023721Y1833307D01*
X2024078Y1833554*
X2024615*
X2024973Y1833307*
X2025152Y1832569*
Y1830109*
X2029984Y1836260D02*
X2026763Y1828386D01*
X2033563Y1832815D02*
X2033384Y1833307D01*
X2032847Y1833554*
X2032310*
X2031774Y1833307*
X2031595Y1832815*
X2031774Y1832323*
X2032131Y1832077*
X2033026Y1831831*
X2033384Y1831585*
X2033563Y1831093*
Y1830847*
X2033384Y1830355*
X2032847Y1830109*
X2032310*
X2031774Y1830355*
X2031595Y1830847*
X2035711Y1835276D02*
Y1831093D01*
X2035889Y1830355*
X2036247Y1830109*
X2036605*
X2035174Y1833554D02*
X2036426D01*
X2038216D02*
Y1830109D01*
Y1832569D02*
X2038753Y1833307D01*
X2039111Y1833554*
X2039648*
X2040005Y1833307*
X2040184Y1832569*
Y1830109*
Y1832569D02*
X2040721Y1833307D01*
X2041079Y1833554*
X2041616*
X2041974Y1833307*
X2042153Y1832569*
Y1830109*
X2044121Y1835276D02*
X2046090D01*
X2045016Y1833307*
X2045553*
X2045911Y1833061*
X2046090Y1832815*
X2046269Y1832077*
Y1831585*
X2046090Y1830847*
X2045732Y1830355*
X2045195Y1830109*
X2044658*
X2044121Y1830355*
X2043942Y1830601*
X2043763Y1831093*
X2048058Y1834046D02*
Y1834292D01*
X2048237Y1834784*
X2048416Y1835030*
X2048774Y1835276*
X2049490*
X2049848Y1835030*
X2050027Y1834784*
X2050206Y1834292*
Y1833800*
X2050027Y1833307*
X2049669Y1832569*
X2047879Y1830109*
X2050385*
X2051995Y1832323D02*
X2055217D01*
X2058975Y1835276D02*
Y1830109D01*
Y1832815D02*
X2058617Y1833307D01*
X2058259Y1833554*
X2057722*
X2057364Y1833307*
X2057006Y1832815*
X2056827Y1832077*
Y1831585*
X2057006Y1830847*
X2057364Y1830355*
X2057722Y1830109*
X2058259*
X2058617Y1830355*
X2058975Y1830847*
X2060585Y1835276D02*
X2060764Y1835030D01*
X2060943Y1835276*
X2060764Y1835522*
X2060585Y1835276*
X2060764Y1833554D02*
Y1830109D01*
X2064522Y1832815D02*
X2064343Y1833307D01*
X2063806Y1833554*
X2063270*
X2062733Y1833307*
X2062554Y1832815*
X2062733Y1832323*
X2063091Y1832077*
X2063985Y1831831*
X2064343Y1831585*
X2064522Y1831093*
Y1830847*
X2064343Y1830355*
X2063806Y1830109*
X2063270*
X2062733Y1830355*
X2062554Y1830847*
X2068280Y1832815D02*
X2067922Y1833307D01*
X2067564Y1833554*
X2067028*
X2066670Y1833307*
X2066312Y1832815*
X2066133Y1832077*
Y1831585*
X2066312Y1830847*
X2066670Y1830355*
X2067028Y1830109*
X2067564*
X2067922Y1830355*
X2068280Y1830847*
X2070786Y1833554D02*
X2070428Y1833307D01*
X2070070Y1832815*
X2069891Y1832077*
Y1831585*
X2070070Y1830847*
X2070428Y1830355*
X2070786Y1830109*
X2071323*
X2071680Y1830355*
X2072038Y1830847*
X2072217Y1831585*
Y1832077*
X2072038Y1832815*
X2071680Y1833307*
X2071323Y1833554*
X2070786*
X2073828D02*
X2074902Y1830109D01*
X2075975Y1833554D02*
X2074902Y1830109D01*
X2077586Y1832077D02*
X2079733D01*
Y1832569*
X2079554Y1833061*
X2079376Y1833307*
X2079018Y1833554*
X2078481*
X2078123Y1833307*
X2077765Y1832815*
X2077586Y1832077*
Y1831585*
X2077765Y1830847*
X2078123Y1830355*
X2078481Y1830109*
X2079018*
X2079376Y1830355*
X2079733Y1830847*
X2081344Y1833554D02*
Y1830109D01*
Y1832077D02*
X2081523Y1832815D01*
X2081881Y1833307*
X2082239Y1833554*
X2082776*
X2084565D02*
X2085639Y1830109D01*
X2086713Y1833554D02*
X2085639Y1830109D01*
X2085281Y1829124*
X2084923Y1828632*
X2084565Y1828386*
X2084386*
X1961586Y1961509D02*
X1961449Y1961884D01*
X1961177Y1962259*
X1960904Y1962446*
X1960358*
X1960086Y1962259*
X1959813Y1961884*
X1959677Y1961509*
X1959540Y1960946*
Y1960009*
X1959677Y1959446*
X1959813Y1959071*
X1960086Y1958696*
X1960358Y1958509*
X1960904*
X1961177Y1958696*
X1961449Y1959071*
X1961586Y1959446*
Y1960009*
X1960904D02*
X1961586D01*
X1962813Y1962446D02*
Y1958509D01*
Y1962446D02*
X1964722Y1958509D01*
Y1962446D02*
Y1958509D01*
X1965949Y1962446D02*
Y1958509D01*
Y1962446D02*
X1966904D01*
X1967313Y1962259*
X1967586Y1961884*
X1967722Y1961509*
X1967858Y1960946*
Y1960009*
X1967722Y1959446*
X1967586Y1959071*
X1967313Y1958696*
X1966904Y1958509*
X1965949*
X1960140Y1952846D02*
Y1948909D01*
Y1952846D02*
X1962049Y1948909D01*
Y1952846D02*
Y1948909D01*
X1965322Y1951909D02*
X1965186Y1952284D01*
X1964913Y1952659*
X1964640Y1952846*
X1964095*
X1963822Y1952659*
X1963549Y1952284*
X1963413Y1951909*
X1963277Y1951346*
Y1950409*
X1963413Y1949846*
X1963549Y1949471*
X1963822Y1949096*
X1964095Y1948909*
X1964640*
X1964913Y1949096*
X1965186Y1949471*
X1965322Y1949846*
X1960413Y1942646D02*
X1961913D01*
X1961095Y1941146*
X1961504*
X1961777Y1940959*
X1961913Y1940771*
X1962049Y1940209*
Y1939834*
X1961913Y1939271*
X1961640Y1938896*
X1961231Y1938709*
X1960822*
X1960413Y1938896*
X1960277Y1939084*
X1960140Y1939459*
X1963277Y1942646D02*
X1964367Y1938709D01*
X1965458Y1942646D02*
X1964367Y1938709D01*
X1966958Y1942646D02*
X1968458D01*
X1967640Y1941146*
X1968049*
X1968322Y1940959*
X1968458Y1940771*
X1968595Y1940209*
Y1939834*
X1968458Y1939271*
X1968186Y1938896*
X1967777Y1938709*
X1967367*
X1966958Y1938896*
X1966822Y1939084*
X1966686Y1939459*
X1960020Y1933004D02*
X1961111Y1929067D01*
X1962202Y1933004D02*
X1961111Y1929067D01*
X1963429Y1933004D02*
Y1929067D01*
Y1933004D02*
X1964656D01*
X1965065Y1932817*
X1965202Y1932629*
X1965338Y1932254*
Y1931879*
X1965202Y1931504*
X1965065Y1931317*
X1964656Y1931129*
X1963429D02*
X1964656D01*
X1965065Y1930942*
X1965202Y1930754*
X1965338Y1930379*
Y1929817*
X1965202Y1929442*
X1965065Y1929254*
X1964656Y1929067*
X1963429*
X1967656Y1933004D02*
X1966565Y1929067D01*
X1967656Y1933004D02*
X1968747Y1929067D01*
X1966974Y1930379D02*
X1968338D01*
X1970929Y1933004D02*
Y1929067D01*
X1969974Y1933004D02*
X1971883D01*
X1960140Y1922846D02*
Y1918909D01*
Y1922846D02*
X1961367D01*
X1961777Y1922659*
X1961913Y1922471*
X1962049Y1922096*
Y1921534*
X1961913Y1921159*
X1961777Y1920971*
X1961367Y1920784*
X1960140*
X1965322Y1921909D02*
X1965186Y1922284D01*
X1964913Y1922659*
X1964640Y1922846*
X1964095*
X1963822Y1922659*
X1963549Y1922284*
X1963413Y1921909*
X1963277Y1921346*
Y1920409*
X1963413Y1919846*
X1963549Y1919471*
X1963822Y1919096*
X1964095Y1918909*
X1964640*
X1964913Y1919096*
X1965186Y1919471*
X1965322Y1919846*
X1966549Y1922096D02*
X1966822Y1922284D01*
X1967231Y1922846*
Y1918909*
X1968731Y1922846D02*
X1970231D01*
X1969413Y1921346*
X1969822*
X1970095Y1921159*
X1970231Y1920971*
X1970367Y1920409*
Y1920034*
X1970231Y1919471*
X1969958Y1919096*
X1969549Y1918909*
X1969140*
X1968731Y1919096*
X1968595Y1919284*
X1968458Y1919659*
X1960140Y1913246D02*
Y1909309D01*
Y1913246D02*
X1961367D01*
X1961777Y1913059*
X1961913Y1912871*
X1962049Y1912496*
Y1911934*
X1961913Y1911559*
X1961777Y1911371*
X1961367Y1911184*
X1960140*
X1965322Y1912309D02*
X1965186Y1912684D01*
X1964913Y1913059*
X1964640Y1913246*
X1964095*
X1963822Y1913059*
X1963549Y1912684*
X1963413Y1912309*
X1963277Y1911746*
Y1910809*
X1963413Y1910246*
X1963549Y1909871*
X1963822Y1909496*
X1964095Y1909309*
X1964640*
X1964913Y1909496*
X1965186Y1909871*
X1965322Y1910246*
X1966549Y1912496D02*
X1966822Y1912684D01*
X1967231Y1913246*
Y1909309*
X1969822Y1913246D02*
X1968458Y1910621D01*
X1970504*
X1969822Y1913246D02*
Y1909309D01*
X1960140Y1902446D02*
Y1898509D01*
Y1902446D02*
X1961367D01*
X1961777Y1902259*
X1961913Y1902071*
X1962049Y1901696*
Y1901134*
X1961913Y1900759*
X1961777Y1900571*
X1961367Y1900384*
X1960140*
X1965322Y1901509D02*
X1965186Y1901884D01*
X1964913Y1902259*
X1964640Y1902446*
X1964095*
X1963822Y1902259*
X1963549Y1901884*
X1963413Y1901509*
X1963277Y1900946*
Y1900009*
X1963413Y1899446*
X1963549Y1899071*
X1963822Y1898696*
X1964095Y1898509*
X1964640*
X1964913Y1898696*
X1965186Y1899071*
X1965322Y1899446*
X1966549Y1901696D02*
X1966822Y1901884D01*
X1967231Y1902446*
Y1898509*
X1970231Y1902446D02*
X1968867D01*
X1968731Y1900759*
X1968867Y1900946*
X1969277Y1901134*
X1969686*
X1970095Y1900946*
X1970367Y1900571*
X1970504Y1900009*
X1970367Y1899634*
X1970231Y1899071*
X1969958Y1898696*
X1969549Y1898509*
X1969140*
X1968731Y1898696*
X1968595Y1898884*
X1968458Y1899259*
X1960140Y1893446D02*
Y1889509D01*
Y1893446D02*
X1961367D01*
X1961777Y1893259*
X1961913Y1893071*
X1962049Y1892696*
Y1892134*
X1961913Y1891759*
X1961777Y1891571*
X1961367Y1891384*
X1960140*
X1963277Y1893446D02*
Y1889509D01*
Y1893446D02*
X1964231D01*
X1964640Y1893259*
X1964913Y1892884*
X1965049Y1892509*
X1965186Y1891946*
Y1891009*
X1965049Y1890446*
X1964913Y1890071*
X1964640Y1889696*
X1964231Y1889509*
X1963277*
X1967231Y1893446D02*
X1966822Y1893259D01*
X1966549Y1892696*
X1966413Y1891759*
Y1891196*
X1966549Y1890259*
X1966822Y1889696*
X1967231Y1889509*
X1967504*
X1967913Y1889696*
X1968186Y1890259*
X1968322Y1891196*
Y1891759*
X1968186Y1892696*
X1967913Y1893259*
X1967504Y1893446*
X1967231*
X1960140Y1882646D02*
Y1878709D01*
Y1882646D02*
X1961367D01*
X1961777Y1882459*
X1961913Y1882271*
X1962049Y1881896*
Y1881334*
X1961913Y1880959*
X1961777Y1880771*
X1961367Y1880584*
X1960140*
X1963277Y1882646D02*
Y1878709D01*
Y1882646D02*
X1964231D01*
X1964640Y1882459*
X1964913Y1882084*
X1965049Y1881709*
X1965186Y1881146*
Y1880209*
X1965049Y1879646*
X1964913Y1879271*
X1964640Y1878896*
X1964231Y1878709*
X1963277*
X1966413Y1881896D02*
X1966686Y1882084D01*
X1967095Y1882646*
Y1878709*
X1960140Y1871846D02*
Y1867909D01*
Y1871846D02*
X1961367D01*
X1961777Y1871659*
X1961913Y1871471*
X1962049Y1871096*
Y1870721*
X1961913Y1870346*
X1961777Y1870159*
X1961367Y1869971*
X1960140*
X1961095D02*
X1962049Y1867909D01*
X1965186Y1871284D02*
X1964913Y1871659D01*
X1964504Y1871846*
X1963958*
X1963549Y1871659*
X1963277Y1871284*
Y1870909*
X1963413Y1870534*
X1963549Y1870346*
X1963822Y1870159*
X1964640Y1869784*
X1964913Y1869596*
X1965049Y1869409*
X1965186Y1869034*
Y1868471*
X1964913Y1868096*
X1964504Y1867909*
X1963958*
X1963549Y1868096*
X1963277Y1868471*
X1967367Y1871846D02*
Y1867909D01*
X1966413Y1871846D02*
X1968322D01*
X1960140Y1862246D02*
Y1858309D01*
Y1862246D02*
X1961367D01*
X1961777Y1862059*
X1961913Y1861871*
X1962049Y1861496*
Y1860934*
X1961913Y1860559*
X1961777Y1860371*
X1961367Y1860184*
X1960140*
X1965322Y1861309D02*
X1965186Y1861684D01*
X1964913Y1862059*
X1964640Y1862246*
X1964095*
X1963822Y1862059*
X1963549Y1861684*
X1963413Y1861309*
X1963277Y1860746*
Y1859809*
X1963413Y1859246*
X1963549Y1858871*
X1963822Y1858496*
X1964095Y1858309*
X1964640*
X1964913Y1858496*
X1965186Y1858871*
X1965322Y1859246*
X1967367Y1862246D02*
X1966958Y1862059D01*
X1966686Y1861496*
X1966549Y1860559*
Y1859996*
X1966686Y1859059*
X1966958Y1858496*
X1967367Y1858309*
X1967640*
X1968049Y1858496*
X1968322Y1859059*
X1968458Y1859996*
Y1860559*
X1968322Y1861496*
X1968049Y1862059*
X1967640Y1862246*
X1967367*
X1960140Y1852646D02*
Y1848709D01*
Y1852646D02*
X1961367D01*
X1961777Y1852459*
X1961913Y1852271*
X1962049Y1851896*
Y1851334*
X1961913Y1850959*
X1961777Y1850771*
X1961367Y1850584*
X1960140*
X1965322Y1851709D02*
X1965186Y1852084D01*
X1964913Y1852459*
X1964640Y1852646*
X1964095*
X1963822Y1852459*
X1963549Y1852084*
X1963413Y1851709*
X1963277Y1851146*
Y1850209*
X1963413Y1849646*
X1963549Y1849271*
X1963822Y1848896*
X1964095Y1848709*
X1964640*
X1964913Y1848896*
X1965186Y1849271*
X1965322Y1849646*
X1966549Y1851896D02*
X1966822Y1852084D01*
X1967231Y1852646*
Y1848709*
X1960140Y1843646D02*
Y1839709D01*
Y1843646D02*
X1961367D01*
X1961777Y1843459*
X1961913Y1843271*
X1962049Y1842896*
Y1842334*
X1961913Y1841959*
X1961777Y1841771*
X1961367Y1841584*
X1960140*
X1965322Y1842709D02*
X1965186Y1843084D01*
X1964913Y1843459*
X1964640Y1843646*
X1964095*
X1963822Y1843459*
X1963549Y1843084*
X1963413Y1842709*
X1963277Y1842146*
Y1841209*
X1963413Y1840646*
X1963549Y1840271*
X1963822Y1839896*
X1964095Y1839709*
X1964640*
X1964913Y1839896*
X1965186Y1840271*
X1965322Y1840646*
X1966686Y1842709D02*
Y1842896D01*
X1966822Y1843271*
X1966958Y1843459*
X1967231Y1843646*
X1967777*
X1968049Y1843459*
X1968186Y1843271*
X1968322Y1842896*
Y1842521*
X1968186Y1842146*
X1967913Y1841584*
X1966549Y1839709*
X1968458*
X1960140Y1832846D02*
Y1828909D01*
Y1832846D02*
X1961367D01*
X1961777Y1832659*
X1961913Y1832471*
X1962049Y1832096*
Y1831534*
X1961913Y1831159*
X1961777Y1830971*
X1961367Y1830784*
X1960140*
X1965322Y1831909D02*
X1965186Y1832284D01*
X1964913Y1832659*
X1964640Y1832846*
X1964095*
X1963822Y1832659*
X1963549Y1832284*
X1963413Y1831909*
X1963277Y1831346*
Y1830409*
X1963413Y1829846*
X1963549Y1829471*
X1963822Y1829096*
X1964095Y1828909*
X1964640*
X1964913Y1829096*
X1965186Y1829471*
X1965322Y1829846*
X1966822Y1832846D02*
X1968322D01*
X1967504Y1831346*
X1967913*
X1968186Y1831159*
X1968322Y1830971*
X1968458Y1830409*
Y1830034*
X1968322Y1829471*
X1968049Y1829096*
X1967640Y1828909*
X1967231*
X1966822Y1829096*
X1966686Y1829284*
X1966549Y1829659*
X1959540Y1822046D02*
Y1818109D01*
Y1822046D02*
X1960767D01*
X1961177Y1821859*
X1961313Y1821671*
X1961449Y1821296*
Y1820734*
X1961313Y1820359*
X1961177Y1820171*
X1960767Y1819984*
X1959540*
X1963767Y1822046D02*
X1962677Y1818109D01*
X1963767Y1822046D02*
X1964858Y1818109D01*
X1963086Y1819421D02*
X1964449D01*
X1966904Y1822046D02*
X1966495Y1821859D01*
X1966222Y1821296*
X1966086Y1820359*
Y1819796*
X1966222Y1818859*
X1966495Y1818296*
X1966904Y1818109*
X1967177*
X1967586Y1818296*
X1967858Y1818859*
X1967995Y1819796*
Y1820359*
X1967858Y1821296*
X1967586Y1821859*
X1967177Y1822046*
X1966904*
X1959540Y1813046D02*
Y1809109D01*
Y1813046D02*
X1960767D01*
X1961177Y1812859*
X1961313Y1812671*
X1961449Y1812296*
Y1811734*
X1961313Y1811359*
X1961177Y1811171*
X1960767Y1810984*
X1959540*
X1963767Y1813046D02*
X1962677Y1809109D01*
X1963767Y1813046D02*
X1964858Y1809109D01*
X1963086Y1810421D02*
X1964449D01*
X1966086Y1812296D02*
X1966358Y1812484D01*
X1966767Y1813046*
Y1809109*
X1959540Y1802246D02*
Y1798309D01*
Y1802246D02*
X1960767D01*
X1961177Y1802059*
X1961313Y1801871*
X1961449Y1801496*
Y1800934*
X1961313Y1800559*
X1961177Y1800371*
X1960767Y1800184*
X1959540*
X1963767Y1802246D02*
X1962677Y1798309D01*
X1963767Y1802246D02*
X1964858Y1798309D01*
X1963086Y1799621D02*
X1964449D01*
X1966222Y1801309D02*
Y1801496D01*
X1966358Y1801871*
X1966495Y1802059*
X1966767Y1802246*
X1967313*
X1967586Y1802059*
X1967722Y1801871*
X1967858Y1801496*
Y1801121*
X1967722Y1800746*
X1967449Y1800184*
X1966086Y1798309*
X1967995*
X1959540Y1792046D02*
Y1788109D01*
Y1792046D02*
X1960767D01*
X1961177Y1791859*
X1961313Y1791671*
X1961449Y1791296*
Y1790734*
X1961313Y1790359*
X1961177Y1790171*
X1960767Y1789984*
X1959540*
X1963767Y1792046D02*
X1962677Y1788109D01*
X1963767Y1792046D02*
X1964858Y1788109D01*
X1963086Y1789421D02*
X1964449D01*
X1966358Y1792046D02*
X1967858D01*
X1967040Y1790546*
X1967449*
X1967722Y1790359*
X1967858Y1790171*
X1967995Y1789609*
Y1789234*
X1967858Y1788671*
X1967586Y1788296*
X1967177Y1788109*
X1966767*
X1966358Y1788296*
X1966222Y1788484*
X1966086Y1788859*
X1959540Y1782446D02*
Y1778509D01*
Y1782446D02*
X1960767D01*
X1961177Y1782259*
X1961313Y1782071*
X1961449Y1781696*
Y1781134*
X1961313Y1780759*
X1961177Y1780571*
X1960767Y1780384*
X1959540*
X1963767Y1782446D02*
X1962677Y1778509D01*
X1963767Y1782446D02*
X1964858Y1778509D01*
X1963086Y1779821D02*
X1964449D01*
X1967449Y1782446D02*
X1966086Y1779821D01*
X1968131*
X1967449Y1782446D02*
Y1778509D01*
X1959540Y1772246D02*
Y1768309D01*
Y1772246D02*
X1960767D01*
X1961177Y1772059*
X1961313Y1771871*
X1961449Y1771496*
Y1770934*
X1961313Y1770559*
X1961177Y1770371*
X1960767Y1770184*
X1959540*
X1963767Y1772246D02*
X1962677Y1768309D01*
X1963767Y1772246D02*
X1964858Y1768309D01*
X1963086Y1769621D02*
X1964449D01*
X1967858Y1772246D02*
X1966495D01*
X1966358Y1770559*
X1966495Y1770746*
X1966904Y1770934*
X1967313*
X1967722Y1770746*
X1967995Y1770371*
X1968131Y1769809*
X1967995Y1769434*
X1967858Y1768871*
X1967586Y1768496*
X1967177Y1768309*
X1966767*
X1966358Y1768496*
X1966222Y1768684*
X1966086Y1769059*
X1959540Y1762046D02*
Y1758109D01*
Y1762046D02*
X1960767D01*
X1961177Y1761859*
X1961313Y1761671*
X1961449Y1761296*
Y1760734*
X1961313Y1760359*
X1961177Y1760171*
X1960767Y1759984*
X1959540*
X1963767Y1762046D02*
X1962677Y1758109D01*
X1963767Y1762046D02*
X1964858Y1758109D01*
X1963086Y1759421D02*
X1964449D01*
X1967722Y1761484D02*
X1967586Y1761859D01*
X1967177Y1762046*
X1966904*
X1966495Y1761859*
X1966222Y1761296*
X1966086Y1760359*
Y1759421*
X1966222Y1758671*
X1966495Y1758296*
X1966904Y1758109*
X1967040*
X1967449Y1758296*
X1967722Y1758671*
X1967858Y1759234*
Y1759421*
X1967722Y1759984*
X1967449Y1760359*
X1967040Y1760546*
X1966904*
X1966495Y1760359*
X1966222Y1759984*
X1966086Y1759421*
X1959540Y1752446D02*
Y1748509D01*
Y1752446D02*
X1960767D01*
X1961177Y1752259*
X1961313Y1752071*
X1961449Y1751696*
Y1751134*
X1961313Y1750759*
X1961177Y1750571*
X1960767Y1750384*
X1959540*
X1963767Y1752446D02*
X1962677Y1748509D01*
X1963767Y1752446D02*
X1964858Y1748509D01*
X1963086Y1749821D02*
X1964449D01*
X1967995Y1752446D02*
X1966631Y1748509D01*
X1966086Y1752446D02*
X1967995D01*
X1959540Y1742246D02*
Y1738309D01*
Y1742246D02*
X1960767D01*
X1961177Y1742059*
X1961313Y1741871*
X1961449Y1741496*
Y1740934*
X1961313Y1740559*
X1961177Y1740371*
X1960767Y1740184*
X1959540*
X1964722Y1741309D02*
X1964586Y1741684D01*
X1964313Y1742059*
X1964040Y1742246*
X1963495*
X1963222Y1742059*
X1962949Y1741684*
X1962813Y1741309*
X1962677Y1740746*
Y1739809*
X1962813Y1739246*
X1962949Y1738871*
X1963222Y1738496*
X1963495Y1738309*
X1964040*
X1964313Y1738496*
X1964586Y1738871*
X1964722Y1739246*
X1967313Y1742246D02*
X1965949Y1739621D01*
X1967995*
X1967313Y1742246D02*
Y1738309D01*
X1959540Y1733246D02*
Y1729309D01*
Y1733246D02*
X1960767D01*
X1961177Y1733059*
X1961313Y1732871*
X1961449Y1732496*
Y1731934*
X1961313Y1731559*
X1961177Y1731371*
X1960767Y1731184*
X1959540*
X1964722Y1732309D02*
X1964586Y1732684D01*
X1964313Y1733059*
X1964040Y1733246*
X1963495*
X1963222Y1733059*
X1962949Y1732684*
X1962813Y1732309*
X1962677Y1731746*
Y1730809*
X1962813Y1730246*
X1962949Y1729871*
X1963222Y1729496*
X1963495Y1729309*
X1964040*
X1964313Y1729496*
X1964586Y1729871*
X1964722Y1730246*
X1967722Y1733246D02*
X1966358D01*
X1966222Y1731559*
X1966358Y1731746*
X1966767Y1731934*
X1967177*
X1967586Y1731746*
X1967858Y1731371*
X1967995Y1730809*
X1967858Y1730434*
X1967722Y1729871*
X1967449Y1729496*
X1967040Y1729309*
X1966631*
X1966222Y1729496*
X1966086Y1729684*
X1965949Y1730059*
X1959540Y1721846D02*
Y1717909D01*
Y1721846D02*
X1960767D01*
X1961177Y1721659*
X1961313Y1721471*
X1961449Y1721096*
Y1720534*
X1961313Y1720159*
X1961177Y1719971*
X1960767Y1719784*
X1959540*
X1962677Y1721846D02*
Y1717909D01*
Y1721846D02*
X1963904D01*
X1964313Y1721659*
X1964449Y1721471*
X1964586Y1721096*
Y1720721*
X1964449Y1720346*
X1964313Y1720159*
X1963904Y1719971*
X1962677D02*
X1963904D01*
X1964313Y1719784*
X1964449Y1719596*
X1964586Y1719221*
Y1718659*
X1964449Y1718284*
X1964313Y1718096*
X1963904Y1717909*
X1962677*
X1966631Y1721846D02*
X1966222Y1721659D01*
X1965949Y1721096*
X1965813Y1720159*
Y1719596*
X1965949Y1718659*
X1966222Y1718096*
X1966631Y1717909*
X1966904*
X1967313Y1718096*
X1967586Y1718659*
X1967722Y1719596*
Y1720159*
X1967586Y1721096*
X1967313Y1721659*
X1966904Y1721846*
X1966631*
X1959540Y1712246D02*
Y1708309D01*
Y1712246D02*
X1960767D01*
X1961177Y1712059*
X1961313Y1711871*
X1961449Y1711496*
Y1710934*
X1961313Y1710559*
X1961177Y1710371*
X1960767Y1710184*
X1959540*
X1962677Y1712246D02*
Y1708309D01*
Y1712246D02*
X1963904D01*
X1964313Y1712059*
X1964449Y1711871*
X1964586Y1711496*
Y1711121*
X1964449Y1710746*
X1964313Y1710559*
X1963904Y1710371*
X1962677D02*
X1963904D01*
X1964313Y1710184*
X1964449Y1709996*
X1964586Y1709621*
Y1709059*
X1964449Y1708684*
X1964313Y1708496*
X1963904Y1708309*
X1962677*
X1965813Y1711496D02*
X1966086Y1711684D01*
X1966495Y1712246*
Y1708309*
X1959540Y1702046D02*
Y1698109D01*
Y1702046D02*
X1960767D01*
X1961177Y1701859*
X1961313Y1701671*
X1961449Y1701296*
Y1700734*
X1961313Y1700359*
X1961177Y1700171*
X1960767Y1699984*
X1959540*
X1962677Y1702046D02*
Y1698109D01*
Y1702046D02*
X1963904D01*
X1964313Y1701859*
X1964449Y1701671*
X1964586Y1701296*
Y1700921*
X1964449Y1700546*
X1964313Y1700359*
X1963904Y1700171*
X1962677D02*
X1963904D01*
X1964313Y1699984*
X1964449Y1699796*
X1964586Y1699421*
Y1698859*
X1964449Y1698484*
X1964313Y1698296*
X1963904Y1698109*
X1962677*
X1965949Y1701109D02*
Y1701296D01*
X1966086Y1701671*
X1966222Y1701859*
X1966495Y1702046*
X1967040*
X1967313Y1701859*
X1967449Y1701671*
X1967586Y1701296*
Y1700921*
X1967449Y1700546*
X1967177Y1699984*
X1965813Y1698109*
X1967722*
X1961586Y1691509D02*
X1961449Y1691884D01*
X1961177Y1692259*
X1960904Y1692446*
X1960358*
X1960086Y1692259*
X1959813Y1691884*
X1959677Y1691509*
X1959540Y1690946*
Y1690009*
X1959677Y1689446*
X1959813Y1689071*
X1960086Y1688696*
X1960358Y1688509*
X1960904*
X1961177Y1688696*
X1961449Y1689071*
X1961586Y1689446*
Y1690009*
X1960904D02*
X1961586D01*
X1962813Y1692446D02*
Y1688509D01*
Y1692446D02*
X1964722Y1688509D01*
Y1692446D02*
Y1688509D01*
X1965949Y1692446D02*
Y1688509D01*
Y1692446D02*
X1966904D01*
X1967313Y1692259*
X1967586Y1691884*
X1967722Y1691509*
X1967858Y1690946*
Y1690009*
X1967722Y1689446*
X1967586Y1689071*
X1967313Y1688696*
X1966904Y1688509*
X1965949*
X2109526Y1961509D02*
X2109389Y1961884D01*
X2109117Y1962259*
X2108844Y1962446*
X2108298*
X2108026Y1962259*
X2107753Y1961884*
X2107617Y1961509*
X2107480Y1960946*
Y1960009*
X2107617Y1959446*
X2107753Y1959071*
X2108026Y1958696*
X2108298Y1958509*
X2108844*
X2109117Y1958696*
X2109389Y1959071*
X2109526Y1959446*
Y1960009*
X2108844D02*
X2109526D01*
X2110753Y1962446D02*
Y1958509D01*
Y1962446D02*
X2112662Y1958509D01*
Y1962446D02*
Y1958509D01*
X2113889Y1962446D02*
Y1958509D01*
Y1962446D02*
X2114844D01*
X2115253Y1962259*
X2115526Y1961884*
X2115662Y1961509*
X2115798Y1960946*
Y1960009*
X2115662Y1959446*
X2115526Y1959071*
X2115253Y1958696*
X2114844Y1958509*
X2113889*
X2107874Y1952846D02*
Y1948909D01*
Y1952846D02*
X2109783Y1948909D01*
Y1952846D02*
Y1948909D01*
X2113056Y1951909D02*
X2112919Y1952284D01*
X2112647Y1952659*
X2112374Y1952846*
X2111829*
X2111556Y1952659*
X2111283Y1952284*
X2111147Y1951909*
X2111010Y1951346*
Y1950409*
X2111147Y1949846*
X2111283Y1949471*
X2111556Y1949096*
X2111829Y1948909*
X2112374*
X2112647Y1949096*
X2112919Y1949471*
X2113056Y1949846*
X2107874Y1932446D02*
Y1928509D01*
Y1932446D02*
X2109101D01*
X2109510Y1932259*
X2109647Y1932071*
X2109783Y1931696*
Y1931134*
X2109647Y1930759*
X2109510Y1930571*
X2109101Y1930384*
X2107874*
X2111010Y1932446D02*
Y1928509D01*
Y1932446D02*
X2112238D01*
X2112647Y1932259*
X2112783Y1932071*
X2112919Y1931696*
Y1931321*
X2112783Y1930946*
X2112647Y1930759*
X2112238Y1930571*
X2111010D02*
X2112238D01*
X2112647Y1930384*
X2112783Y1930196*
X2112919Y1929821*
Y1929259*
X2112783Y1928884*
X2112647Y1928696*
X2112238Y1928509*
X2111010*
X2115919Y1931134D02*
X2115783Y1930571D01*
X2115510Y1930196*
X2115101Y1930009*
X2114965*
X2114556Y1930196*
X2114283Y1930571*
X2114147Y1931134*
Y1931321*
X2114283Y1931884*
X2114556Y1932259*
X2114965Y1932446*
X2115101*
X2115510Y1932259*
X2115783Y1931884*
X2115919Y1931134*
Y1930196*
X2115783Y1929259*
X2115510Y1928696*
X2115101Y1928509*
X2114829*
X2114419Y1928696*
X2114283Y1929071*
X2107874Y1922246D02*
Y1918309D01*
Y1922246D02*
X2109101D01*
X2109510Y1922059*
X2109647Y1921871*
X2109783Y1921496*
Y1920934*
X2109647Y1920559*
X2109510Y1920371*
X2109101Y1920184*
X2107874*
X2111010Y1922246D02*
Y1918309D01*
Y1922246D02*
X2112238D01*
X2112647Y1922059*
X2112783Y1921871*
X2112919Y1921496*
Y1921121*
X2112783Y1920746*
X2112647Y1920559*
X2112238Y1920371*
X2111010D02*
X2112238D01*
X2112647Y1920184*
X2112783Y1919996*
X2112919Y1919621*
Y1919059*
X2112783Y1918684*
X2112647Y1918496*
X2112238Y1918309*
X2111010*
X2114829Y1922246D02*
X2114419Y1922059D01*
X2114283Y1921684*
Y1921309*
X2114419Y1920934*
X2114692Y1920746*
X2115238Y1920559*
X2115647Y1920371*
X2115919Y1919996*
X2116056Y1919621*
Y1919059*
X2115919Y1918684*
X2115783Y1918496*
X2115374Y1918309*
X2114829*
X2114419Y1918496*
X2114283Y1918684*
X2114147Y1919059*
Y1919621*
X2114283Y1919996*
X2114556Y1920371*
X2114965Y1920559*
X2115510Y1920746*
X2115783Y1920934*
X2115919Y1921309*
Y1921684*
X2115783Y1922059*
X2115374Y1922246*
X2114829*
X2107874Y1912046D02*
Y1908109D01*
Y1912046D02*
X2109101D01*
X2109510Y1911859*
X2109647Y1911671*
X2109783Y1911296*
Y1910921*
X2109647Y1910546*
X2109510Y1910359*
X2109101Y1910171*
X2107874D02*
X2109101D01*
X2109510Y1909984*
X2109647Y1909796*
X2109783Y1909421*
Y1908859*
X2109647Y1908484*
X2109510Y1908296*
X2109101Y1908109*
X2107874*
X2111692Y1910734D02*
X2111419Y1910546D01*
X2111147Y1910171*
X2111010Y1909609*
Y1909234*
X2111147Y1908671*
X2111419Y1908296*
X2111692Y1908109*
X2112101*
X2112374Y1908296*
X2112647Y1908671*
X2112783Y1909234*
Y1909609*
X2112647Y1910171*
X2112374Y1910546*
X2112101Y1910734*
X2111692*
X2114692D02*
X2114419Y1910546D01*
X2114147Y1910171*
X2114010Y1909609*
Y1909234*
X2114147Y1908671*
X2114419Y1908296*
X2114692Y1908109*
X2115101*
X2115374Y1908296*
X2115647Y1908671*
X2115783Y1909234*
Y1909609*
X2115647Y1910171*
X2115374Y1910546*
X2115101Y1910734*
X2114692*
X2117419Y1912046D02*
Y1908859D01*
X2117556Y1908296*
X2117829Y1908109*
X2118101*
X2117010Y1910734D02*
X2117965D01*
X2107874Y1901846D02*
Y1897909D01*
Y1901846D02*
X2109101D01*
X2109510Y1901659*
X2109647Y1901471*
X2109783Y1901096*
Y1900534*
X2109647Y1900159*
X2109510Y1899971*
X2109101Y1899784*
X2107874*
X2111010Y1901846D02*
Y1897909D01*
Y1901846D02*
X2112238D01*
X2112647Y1901659*
X2112783Y1901471*
X2112919Y1901096*
Y1900721*
X2112783Y1900346*
X2112647Y1900159*
X2112238Y1899971*
X2111010D02*
X2112238D01*
X2112647Y1899784*
X2112783Y1899596*
X2112919Y1899221*
Y1898659*
X2112783Y1898284*
X2112647Y1898096*
X2112238Y1897909*
X2111010*
X2116056Y1901846D02*
X2114692Y1897909D01*
X2114147Y1901846D02*
X2116056D01*
X2107874Y1892246D02*
Y1888309D01*
Y1892246D02*
X2109101D01*
X2109510Y1892059*
X2109647Y1891871*
X2109783Y1891496*
Y1890934*
X2109647Y1890559*
X2109510Y1890371*
X2109101Y1890184*
X2107874*
X2111010Y1892246D02*
Y1888309D01*
Y1892246D02*
X2112238D01*
X2112647Y1892059*
X2112783Y1891871*
X2112919Y1891496*
Y1891121*
X2112783Y1890746*
X2112647Y1890559*
X2112238Y1890371*
X2111010D02*
X2112238D01*
X2112647Y1890184*
X2112783Y1889996*
X2112919Y1889621*
Y1889059*
X2112783Y1888684*
X2112647Y1888496*
X2112238Y1888309*
X2111010*
X2115783Y1891684D02*
X2115647Y1892059D01*
X2115238Y1892246*
X2114965*
X2114556Y1892059*
X2114283Y1891496*
X2114147Y1890559*
Y1889621*
X2114283Y1888871*
X2114556Y1888496*
X2114965Y1888309*
X2115101*
X2115510Y1888496*
X2115783Y1888871*
X2115919Y1889434*
Y1889621*
X2115783Y1890184*
X2115510Y1890559*
X2115101Y1890746*
X2114965*
X2114556Y1890559*
X2114283Y1890184*
X2114147Y1889621*
X2107874Y1882646D02*
Y1878709D01*
Y1882646D02*
X2109101D01*
X2109510Y1882459*
X2109647Y1882271*
X2109783Y1881896*
Y1881334*
X2109647Y1880959*
X2109510Y1880771*
X2109101Y1880584*
X2107874*
X2111010Y1882646D02*
Y1878709D01*
Y1882646D02*
X2112238D01*
X2112647Y1882459*
X2112783Y1882271*
X2112919Y1881896*
Y1881521*
X2112783Y1881146*
X2112647Y1880959*
X2112238Y1880771*
X2111010D02*
X2112238D01*
X2112647Y1880584*
X2112783Y1880396*
X2112919Y1880021*
Y1879459*
X2112783Y1879084*
X2112647Y1878896*
X2112238Y1878709*
X2111010*
X2115919Y1882646D02*
X2114556D01*
X2114419Y1880959*
X2114556Y1881146*
X2114965Y1881334*
X2115374*
X2115783Y1881146*
X2116056Y1880771*
X2116192Y1880209*
X2116056Y1879834*
X2115919Y1879271*
X2115647Y1878896*
X2115238Y1878709*
X2114829*
X2114419Y1878896*
X2114283Y1879084*
X2114147Y1879459*
X2107874Y1871846D02*
Y1867909D01*
Y1871846D02*
X2109101D01*
X2109510Y1871659*
X2109647Y1871471*
X2109783Y1871096*
Y1870534*
X2109647Y1870159*
X2109510Y1869971*
X2109101Y1869784*
X2107874*
X2111010Y1871846D02*
Y1867909D01*
Y1871846D02*
X2112238D01*
X2112647Y1871659*
X2112783Y1871471*
X2112919Y1871096*
Y1870721*
X2112783Y1870346*
X2112647Y1870159*
X2112238Y1869971*
X2111010D02*
X2112238D01*
X2112647Y1869784*
X2112783Y1869596*
X2112919Y1869221*
Y1868659*
X2112783Y1868284*
X2112647Y1868096*
X2112238Y1867909*
X2111010*
X2115510Y1871846D02*
X2114147Y1869221D01*
X2116192*
X2115510Y1871846D02*
Y1867909D01*
X2107874Y1862246D02*
Y1858309D01*
Y1862246D02*
X2109101D01*
X2109510Y1862059*
X2109647Y1861871*
X2109783Y1861496*
Y1860934*
X2109647Y1860559*
X2109510Y1860371*
X2109101Y1860184*
X2107874*
X2111010Y1862246D02*
Y1858309D01*
Y1862246D02*
X2112238D01*
X2112647Y1862059*
X2112783Y1861871*
X2112919Y1861496*
Y1861121*
X2112783Y1860746*
X2112647Y1860559*
X2112238Y1860371*
X2111010D02*
X2112238D01*
X2112647Y1860184*
X2112783Y1859996*
X2112919Y1859621*
Y1859059*
X2112783Y1858684*
X2112647Y1858496*
X2112238Y1858309*
X2111010*
X2114419Y1862246D02*
X2115919D01*
X2115101Y1860746*
X2115510*
X2115783Y1860559*
X2115919Y1860371*
X2116056Y1859809*
Y1859434*
X2115919Y1858871*
X2115647Y1858496*
X2115238Y1858309*
X2114829*
X2114419Y1858496*
X2114283Y1858684*
X2114147Y1859059*
X2107874Y1852046D02*
Y1848109D01*
Y1852046D02*
X2109101D01*
X2109510Y1851859*
X2109647Y1851671*
X2109783Y1851296*
Y1850734*
X2109647Y1850359*
X2109510Y1850171*
X2109101Y1849984*
X2107874*
X2111010Y1852046D02*
Y1848109D01*
Y1852046D02*
X2111965D01*
X2112374Y1851859*
X2112647Y1851484*
X2112783Y1851109*
X2112919Y1850546*
Y1849609*
X2112783Y1849046*
X2112647Y1848671*
X2112374Y1848296*
X2111965Y1848109*
X2111010*
X2114283Y1851109D02*
Y1851296D01*
X2114419Y1851671*
X2114556Y1851859*
X2114829Y1852046*
X2115374*
X2115647Y1851859*
X2115783Y1851671*
X2115919Y1851296*
Y1850921*
X2115783Y1850546*
X2115510Y1849984*
X2114147Y1848109*
X2116056*
X2107874Y1841846D02*
Y1837909D01*
Y1841846D02*
X2109101D01*
X2109510Y1841659*
X2109647Y1841471*
X2109783Y1841096*
Y1840534*
X2109647Y1840159*
X2109510Y1839971*
X2109101Y1839784*
X2107874*
X2113056Y1840909D02*
X2112919Y1841284D01*
X2112647Y1841659*
X2112374Y1841846*
X2111829*
X2111556Y1841659*
X2111283Y1841284*
X2111147Y1840909*
X2111010Y1840346*
Y1839409*
X2111147Y1838846*
X2111283Y1838471*
X2111556Y1838096*
X2111829Y1837909*
X2112374*
X2112647Y1838096*
X2112919Y1838471*
X2113056Y1838846*
X2114283Y1841096D02*
X2114556Y1841284D01*
X2114965Y1841846*
Y1837909*
X2116329Y1840909D02*
Y1841096D01*
X2116465Y1841471*
X2116601Y1841659*
X2116874Y1841846*
X2117419*
X2117692Y1841659*
X2117829Y1841471*
X2117965Y1841096*
Y1840721*
X2117829Y1840346*
X2117556Y1839784*
X2116192Y1837909*
X2118101*
X2107874Y1832246D02*
Y1828309D01*
Y1832246D02*
X2109101D01*
X2109510Y1832059*
X2109647Y1831871*
X2109783Y1831496*
Y1830934*
X2109647Y1830559*
X2109510Y1830371*
X2109101Y1830184*
X2107874*
X2113056Y1831309D02*
X2112919Y1831684D01*
X2112647Y1832059*
X2112374Y1832246*
X2111829*
X2111556Y1832059*
X2111283Y1831684*
X2111147Y1831309*
X2111010Y1830746*
Y1829809*
X2111147Y1829246*
X2111283Y1828871*
X2111556Y1828496*
X2111829Y1828309*
X2112374*
X2112647Y1828496*
X2112919Y1828871*
X2113056Y1829246*
X2114283Y1831496D02*
X2114556Y1831684D01*
X2114965Y1832246*
Y1828309*
X2116192Y1831496D02*
X2116465Y1831684D01*
X2116874Y1832246*
Y1828309*
X2107874Y1822046D02*
Y1818109D01*
Y1822046D02*
X2109101D01*
X2109510Y1821859*
X2109647Y1821671*
X2109783Y1821296*
Y1820734*
X2109647Y1820359*
X2109510Y1820171*
X2109101Y1819984*
X2107874*
X2113056Y1821109D02*
X2112919Y1821484D01*
X2112647Y1821859*
X2112374Y1822046*
X2111829*
X2111556Y1821859*
X2111283Y1821484*
X2111147Y1821109*
X2111010Y1820546*
Y1819609*
X2111147Y1819046*
X2111283Y1818671*
X2111556Y1818296*
X2111829Y1818109*
X2112374*
X2112647Y1818296*
X2112919Y1818671*
X2113056Y1819046*
X2114283Y1821296D02*
X2114556Y1821484D01*
X2114965Y1822046*
Y1818109*
X2117010Y1822046D02*
X2116601Y1821859D01*
X2116329Y1821296*
X2116192Y1820359*
Y1819796*
X2116329Y1818859*
X2116601Y1818296*
X2117010Y1818109*
X2117283*
X2117692Y1818296*
X2117965Y1818859*
X2118101Y1819796*
Y1820359*
X2117965Y1821296*
X2117692Y1821859*
X2117283Y1822046*
X2117010*
X2107874Y1812446D02*
Y1808509D01*
Y1812446D02*
X2109101D01*
X2109510Y1812259*
X2109647Y1812071*
X2109783Y1811696*
Y1811134*
X2109647Y1810759*
X2109510Y1810571*
X2109101Y1810384*
X2107874*
X2112101Y1812446D02*
X2111010Y1808509D01*
X2112101Y1812446D02*
X2113192Y1808509D01*
X2111419Y1809821D02*
X2112783D01*
X2114419Y1811696D02*
X2114692Y1811884D01*
X2115101Y1812446*
Y1808509*
X2118101Y1812446D02*
X2116738D01*
X2116601Y1810759*
X2116738Y1810946*
X2117147Y1811134*
X2117556*
X2117965Y1810946*
X2118238Y1810571*
X2118374Y1810009*
X2118238Y1809634*
X2118101Y1809071*
X2117829Y1808696*
X2117419Y1808509*
X2117010*
X2116601Y1808696*
X2116465Y1808884*
X2116329Y1809259*
X2107874Y1802246D02*
Y1798309D01*
Y1802246D02*
X2109101D01*
X2109510Y1802059*
X2109647Y1801871*
X2109783Y1801496*
Y1800934*
X2109647Y1800559*
X2109510Y1800371*
X2109101Y1800184*
X2107874*
X2112101Y1802246D02*
X2111010Y1798309D01*
X2112101Y1802246D02*
X2113192Y1798309D01*
X2111419Y1799621D02*
X2112783D01*
X2114419Y1801496D02*
X2114692Y1801684D01*
X2115101Y1802246*
Y1798309*
X2117692Y1802246D02*
X2116329Y1799621D01*
X2118374*
X2117692Y1802246D02*
Y1798309D01*
X2107874Y1792646D02*
Y1788709D01*
Y1792646D02*
X2109101D01*
X2109510Y1792459*
X2109647Y1792271*
X2109783Y1791896*
Y1791334*
X2109647Y1790959*
X2109510Y1790771*
X2109101Y1790584*
X2107874*
X2112101Y1792646D02*
X2111010Y1788709D01*
X2112101Y1792646D02*
X2113192Y1788709D01*
X2111419Y1790021D02*
X2112783D01*
X2114419Y1791896D02*
X2114692Y1792084D01*
X2115101Y1792646*
Y1788709*
X2116601Y1792646D02*
X2118101D01*
X2117283Y1791146*
X2117692*
X2117965Y1790959*
X2118101Y1790771*
X2118238Y1790209*
Y1789834*
X2118101Y1789271*
X2117829Y1788896*
X2117419Y1788709*
X2117010*
X2116601Y1788896*
X2116465Y1789084*
X2116329Y1789459*
X2107874Y1783046D02*
Y1779109D01*
Y1783046D02*
X2109101D01*
X2109510Y1782859*
X2109647Y1782671*
X2109783Y1782296*
Y1781734*
X2109647Y1781359*
X2109510Y1781171*
X2109101Y1780984*
X2107874*
X2112101Y1783046D02*
X2111010Y1779109D01*
X2112101Y1783046D02*
X2113192Y1779109D01*
X2111419Y1780421D02*
X2112783D01*
X2114419Y1782296D02*
X2114692Y1782484D01*
X2115101Y1783046*
Y1779109*
X2116465Y1782109D02*
Y1782296D01*
X2116601Y1782671*
X2116738Y1782859*
X2117010Y1783046*
X2117556*
X2117829Y1782859*
X2117965Y1782671*
X2118101Y1782296*
Y1781921*
X2117965Y1781546*
X2117692Y1780984*
X2116329Y1779109*
X2118238*
X2107874Y1772846D02*
Y1768909D01*
Y1772846D02*
X2109101D01*
X2109510Y1772659*
X2109647Y1772471*
X2109783Y1772096*
Y1771534*
X2109647Y1771159*
X2109510Y1770971*
X2109101Y1770784*
X2107874*
X2112101Y1772846D02*
X2111010Y1768909D01*
X2112101Y1772846D02*
X2113192Y1768909D01*
X2111419Y1770221D02*
X2112783D01*
X2114419Y1772096D02*
X2114692Y1772284D01*
X2115101Y1772846*
Y1768909*
X2116329Y1772096D02*
X2116601Y1772284D01*
X2117010Y1772846*
Y1768909*
X2107874Y1762046D02*
Y1758109D01*
Y1762046D02*
X2109101D01*
X2109510Y1761859*
X2109647Y1761671*
X2109783Y1761296*
Y1760734*
X2109647Y1760359*
X2109510Y1760171*
X2109101Y1759984*
X2107874*
X2112101Y1762046D02*
X2111010Y1758109D01*
X2112101Y1762046D02*
X2113192Y1758109D01*
X2111419Y1759421D02*
X2112783D01*
X2114419Y1761296D02*
X2114692Y1761484D01*
X2115101Y1762046*
Y1758109*
X2117147Y1762046D02*
X2116738Y1761859D01*
X2116465Y1761296*
X2116329Y1760359*
Y1759796*
X2116465Y1758859*
X2116738Y1758296*
X2117147Y1758109*
X2117419*
X2117829Y1758296*
X2118101Y1758859*
X2118238Y1759796*
Y1760359*
X2118101Y1761296*
X2117829Y1761859*
X2117419Y1762046*
X2117147*
X2107874Y1752446D02*
Y1748509D01*
Y1752446D02*
X2109101D01*
X2109510Y1752259*
X2109647Y1752071*
X2109783Y1751696*
Y1751134*
X2109647Y1750759*
X2109510Y1750571*
X2109101Y1750384*
X2107874*
X2112101Y1752446D02*
X2111010Y1748509D01*
X2112101Y1752446D02*
X2113192Y1748509D01*
X2111419Y1749821D02*
X2112783D01*
X2116192Y1751134D02*
X2116056Y1750571D01*
X2115783Y1750196*
X2115374Y1750009*
X2115238*
X2114829Y1750196*
X2114556Y1750571*
X2114419Y1751134*
Y1751321*
X2114556Y1751884*
X2114829Y1752259*
X2115238Y1752446*
X2115374*
X2115783Y1752259*
X2116056Y1751884*
X2116192Y1751134*
Y1750196*
X2116056Y1749259*
X2115783Y1748696*
X2115374Y1748509*
X2115101*
X2114692Y1748696*
X2114556Y1749071*
X2107874Y1742246D02*
Y1738309D01*
Y1742246D02*
X2109101D01*
X2109510Y1742059*
X2109647Y1741871*
X2109783Y1741496*
Y1740934*
X2109647Y1740559*
X2109510Y1740371*
X2109101Y1740184*
X2107874*
X2112101Y1742246D02*
X2111010Y1738309D01*
X2112101Y1742246D02*
X2113192Y1738309D01*
X2111419Y1739621D02*
X2112783D01*
X2115101Y1742246D02*
X2114692Y1742059D01*
X2114556Y1741684*
Y1741309*
X2114692Y1740934*
X2114965Y1740746*
X2115510Y1740559*
X2115919Y1740371*
X2116192Y1739996*
X2116329Y1739621*
Y1739059*
X2116192Y1738684*
X2116056Y1738496*
X2115647Y1738309*
X2115101*
X2114692Y1738496*
X2114556Y1738684*
X2114419Y1739059*
Y1739621*
X2114556Y1739996*
X2114829Y1740371*
X2115238Y1740559*
X2115783Y1740746*
X2116056Y1740934*
X2116192Y1741309*
Y1741684*
X2116056Y1742059*
X2115647Y1742246*
X2115101*
X2107874Y1732046D02*
Y1728109D01*
Y1732046D02*
X2109101D01*
X2109510Y1731859*
X2109647Y1731671*
X2109783Y1731296*
Y1730734*
X2109647Y1730359*
X2109510Y1730171*
X2109101Y1729984*
X2107874*
X2113056Y1731109D02*
X2112919Y1731484D01*
X2112647Y1731859*
X2112374Y1732046*
X2111829*
X2111556Y1731859*
X2111283Y1731484*
X2111147Y1731109*
X2111010Y1730546*
Y1729609*
X2111147Y1729046*
X2111283Y1728671*
X2111556Y1728296*
X2111829Y1728109*
X2112374*
X2112647Y1728296*
X2112919Y1728671*
X2113056Y1729046*
X2116056Y1730734D02*
X2115919Y1730171D01*
X2115647Y1729796*
X2115238Y1729609*
X2115101*
X2114692Y1729796*
X2114419Y1730171*
X2114283Y1730734*
Y1730921*
X2114419Y1731484*
X2114692Y1731859*
X2115101Y1732046*
X2115238*
X2115647Y1731859*
X2115919Y1731484*
X2116056Y1730734*
Y1729796*
X2115919Y1728859*
X2115647Y1728296*
X2115238Y1728109*
X2114965*
X2114556Y1728296*
X2114419Y1728671*
X2107874Y1721846D02*
Y1717909D01*
Y1721846D02*
X2109101D01*
X2109510Y1721659*
X2109647Y1721471*
X2109783Y1721096*
Y1720534*
X2109647Y1720159*
X2109510Y1719971*
X2109101Y1719784*
X2107874*
X2113056Y1720909D02*
X2112919Y1721284D01*
X2112647Y1721659*
X2112374Y1721846*
X2111829*
X2111556Y1721659*
X2111283Y1721284*
X2111147Y1720909*
X2111010Y1720346*
Y1719409*
X2111147Y1718846*
X2111283Y1718471*
X2111556Y1718096*
X2111829Y1717909*
X2112374*
X2112647Y1718096*
X2112919Y1718471*
X2113056Y1718846*
X2114965Y1721846D02*
X2114556Y1721659D01*
X2114419Y1721284*
Y1720909*
X2114556Y1720534*
X2114829Y1720346*
X2115374Y1720159*
X2115783Y1719971*
X2116056Y1719596*
X2116192Y1719221*
Y1718659*
X2116056Y1718284*
X2115919Y1718096*
X2115510Y1717909*
X2114965*
X2114556Y1718096*
X2114419Y1718284*
X2114283Y1718659*
Y1719221*
X2114419Y1719596*
X2114692Y1719971*
X2115101Y1720159*
X2115647Y1720346*
X2115919Y1720534*
X2116056Y1720909*
Y1721284*
X2115919Y1721659*
X2115510Y1721846*
X2114965*
X2107874Y1712246D02*
Y1708309D01*
Y1712246D02*
X2109101D01*
X2109510Y1712059*
X2109647Y1711871*
X2109783Y1711496*
Y1710934*
X2109647Y1710559*
X2109510Y1710371*
X2109101Y1710184*
X2107874*
X2113056Y1711309D02*
X2112919Y1711684D01*
X2112647Y1712059*
X2112374Y1712246*
X2111829*
X2111556Y1712059*
X2111283Y1711684*
X2111147Y1711309*
X2111010Y1710746*
Y1709809*
X2111147Y1709246*
X2111283Y1708871*
X2111556Y1708496*
X2111829Y1708309*
X2112374*
X2112647Y1708496*
X2112919Y1708871*
X2113056Y1709246*
X2116192Y1712246D02*
X2114829Y1708309D01*
X2114283Y1712246D02*
X2116192D01*
X2107874Y1702046D02*
Y1698109D01*
Y1702046D02*
X2109101D01*
X2109510Y1701859*
X2109647Y1701671*
X2109783Y1701296*
Y1700734*
X2109647Y1700359*
X2109510Y1700171*
X2109101Y1699984*
X2107874*
X2113056Y1701109D02*
X2112919Y1701484D01*
X2112647Y1701859*
X2112374Y1702046*
X2111829*
X2111556Y1701859*
X2111283Y1701484*
X2111147Y1701109*
X2111010Y1700546*
Y1699609*
X2111147Y1699046*
X2111283Y1698671*
X2111556Y1698296*
X2111829Y1698109*
X2112374*
X2112647Y1698296*
X2112919Y1698671*
X2113056Y1699046*
X2115919Y1701484D02*
X2115783Y1701859D01*
X2115374Y1702046*
X2115101*
X2114692Y1701859*
X2114419Y1701296*
X2114283Y1700359*
Y1699421*
X2114419Y1698671*
X2114692Y1698296*
X2115101Y1698109*
X2115238*
X2115647Y1698296*
X2115919Y1698671*
X2116056Y1699234*
Y1699421*
X2115919Y1699984*
X2115647Y1700359*
X2115238Y1700546*
X2115101*
X2114692Y1700359*
X2114419Y1699984*
X2114283Y1699421*
X2109919Y1690909D02*
X2109783Y1691284D01*
X2109510Y1691659*
X2109238Y1691846*
X2108692*
X2108419Y1691659*
X2108147Y1691284*
X2108010Y1690909*
X2107874Y1690346*
Y1689409*
X2108010Y1688846*
X2108147Y1688471*
X2108419Y1688096*
X2108692Y1687909*
X2109238*
X2109510Y1688096*
X2109783Y1688471*
X2109919Y1688846*
Y1689409*
X2109238D02*
X2109919D01*
X2111147Y1691846D02*
Y1687909D01*
Y1691846D02*
X2113056Y1687909D01*
Y1691846D02*
Y1687909D01*
X2114283Y1691846D02*
Y1687909D01*
Y1691846D02*
X2115238D01*
X2115647Y1691659*
X2115919Y1691284*
X2116056Y1690909*
X2116192Y1690346*
Y1689409*
X2116056Y1688846*
X2115919Y1688471*
X2115647Y1688096*
X2115238Y1687909*
X2114283*
X2109647Y1942646D02*
X2108283D01*
X2108147Y1940959*
X2108283Y1941146*
X2108692Y1941334*
X2109101*
X2109510Y1941146*
X2109783Y1940771*
X2109919Y1940209*
X2109783Y1939834*
X2109647Y1939271*
X2109374Y1938896*
X2108965Y1938709*
X2108556*
X2108147Y1938896*
X2108010Y1939084*
X2107874Y1939459*
X2111147Y1942646D02*
X2112238Y1938709D01*
X2113329Y1942646D02*
X2112238Y1938709D01*
X2017403Y1650109D02*
X2021340D01*
X2017403D02*
Y1651336D01*
X2017590Y1651745*
X2017778Y1651881*
X2018153Y1652018*
X2018715*
X2019090Y1651881*
X2019278Y1651745*
X2019465Y1651336*
Y1650109*
X2017403Y1653245D02*
X2021340D01*
X2017403D02*
Y1654472D01*
X2017590Y1654881*
X2017778Y1655018*
X2018153Y1655154*
X2018528*
X2018903Y1655018*
X2019090Y1654881*
X2019278Y1654472*
Y1653245D02*
Y1654472D01*
X2019465Y1654881*
X2019653Y1655018*
X2020028Y1655154*
X2020590*
X2020965Y1655018*
X2021153Y1654881*
X2021340Y1654472*
Y1653245*
X2018153Y1656381D02*
X2017965Y1656654D01*
X2017403Y1657063*
X2021340*
X2017403Y1659109D02*
X2017590Y1658700D01*
X2018153Y1658427*
X2019090Y1658290*
X2019653*
X2020590Y1658427*
X2021153Y1658700*
X2021340Y1659109*
Y1659381*
X2021153Y1659790*
X2020590Y1660063*
X2019653Y1660200*
X2019090*
X2018153Y1660063*
X2017590Y1659790*
X2017403Y1659381*
Y1659109*
X2027603Y1650109D02*
X2031540D01*
X2027603D02*
Y1651336D01*
X2027790Y1651745*
X2027978Y1651881*
X2028353Y1652018*
X2028915*
X2029290Y1651881*
X2029478Y1651745*
X2029665Y1651336*
Y1650109*
X2027603Y1653245D02*
X2031540D01*
X2027603D02*
Y1654472D01*
X2027790Y1654881*
X2027978Y1655018*
X2028353Y1655154*
X2028728*
X2029103Y1655018*
X2029290Y1654881*
X2029478Y1654472*
Y1653245D02*
Y1654472D01*
X2029665Y1654881*
X2029853Y1655018*
X2030228Y1655154*
X2030790*
X2031165Y1655018*
X2031353Y1654881*
X2031540Y1654472*
Y1653245*
X2028353Y1656381D02*
X2028165Y1656654D01*
X2027603Y1657063*
X2031540*
X2028353Y1658290D02*
X2028165Y1658563D01*
X2027603Y1658972*
X2031540*
X2037803Y1650109D02*
X2041740D01*
X2037803D02*
Y1651336D01*
X2037990Y1651745*
X2038178Y1651881*
X2038553Y1652018*
X2039115*
X2039490Y1651881*
X2039678Y1651745*
X2039865Y1651336*
Y1650109*
X2037803Y1653245D02*
X2041740D01*
X2037803D02*
Y1654472D01*
X2037990Y1654881*
X2038178Y1655018*
X2038553Y1655154*
X2038928*
X2039303Y1655018*
X2039490Y1654881*
X2039678Y1654472*
Y1653245D02*
Y1654472D01*
X2039865Y1654881*
X2040053Y1655018*
X2040428Y1655154*
X2040990*
X2041365Y1655018*
X2041553Y1654881*
X2041740Y1654472*
Y1653245*
X2038553Y1656381D02*
X2038365Y1656654D01*
X2037803Y1657063*
X2041740*
X2038740Y1658427D02*
X2038553D01*
X2038178Y1658563*
X2037990Y1658700*
X2037803Y1658972*
Y1659518*
X2037990Y1659790*
X2038178Y1659927*
X2038553Y1660063*
X2038928*
X2039303Y1659927*
X2039865Y1659654*
X2041740Y1658290*
Y1660200*
X2047403Y1650109D02*
X2051340D01*
X2047403D02*
Y1651336D01*
X2047590Y1651745*
X2047778Y1651881*
X2048153Y1652018*
X2048715*
X2049090Y1651881*
X2049278Y1651745*
X2049465Y1651336*
Y1650109*
X2047403Y1653245D02*
X2051340D01*
X2047403D02*
Y1654472D01*
X2047590Y1654881*
X2047778Y1655018*
X2048153Y1655154*
X2048528*
X2048903Y1655018*
X2049090Y1654881*
X2049278Y1654472*
Y1653245D02*
Y1654472D01*
X2049465Y1654881*
X2049653Y1655018*
X2050028Y1655154*
X2050590*
X2050965Y1655018*
X2051153Y1654881*
X2051340Y1654472*
Y1653245*
X2048153Y1656381D02*
X2047965Y1656654D01*
X2047403Y1657063*
X2051340*
X2047403Y1658563D02*
Y1660063D01*
X2048903Y1659245*
Y1659654*
X2049090Y1659927*
X2049278Y1660063*
X2049840Y1660200*
X2050215*
X2050778Y1660063*
X2051153Y1659790*
X2051340Y1659381*
Y1658972*
X2051153Y1658563*
X2050965Y1658427*
X2050590Y1658290*
X2057603Y1650109D02*
X2061540D01*
X2057603D02*
Y1651336D01*
X2057790Y1651745*
X2057978Y1651881*
X2058353Y1652018*
X2058915*
X2059290Y1651881*
X2059478Y1651745*
X2059665Y1651336*
Y1650109*
X2057603Y1653245D02*
X2061540D01*
X2057603D02*
Y1654472D01*
X2057790Y1654881*
X2057978Y1655018*
X2058353Y1655154*
X2058728*
X2059103Y1655018*
X2059290Y1654881*
X2059478Y1654472*
Y1653245D02*
Y1654472D01*
X2059665Y1654881*
X2059853Y1655018*
X2060228Y1655154*
X2060790*
X2061165Y1655018*
X2061353Y1654881*
X2061540Y1654472*
Y1653245*
X2058353Y1656381D02*
X2058165Y1656654D01*
X2057603Y1657063*
X2061540*
X2057603Y1659654D02*
X2060228Y1658290D01*
Y1660336*
X2057603Y1659654D02*
X2061540D01*
X2067803Y1650109D02*
X2071740D01*
X2067803D02*
Y1651336D01*
X2067990Y1651745*
X2068178Y1651881*
X2068553Y1652018*
X2069115*
X2069490Y1651881*
X2069678Y1651745*
X2069865Y1651336*
Y1650109*
X2067803Y1653245D02*
X2071740D01*
X2067803D02*
Y1654472D01*
X2067990Y1654881*
X2068178Y1655018*
X2068553Y1655154*
X2068928*
X2069303Y1655018*
X2069490Y1654881*
X2069678Y1654472*
Y1653245D02*
Y1654472D01*
X2069865Y1654881*
X2070053Y1655018*
X2070428Y1655154*
X2070990*
X2071365Y1655018*
X2071553Y1654881*
X2071740Y1654472*
Y1653245*
X2068553Y1656381D02*
X2068365Y1656654D01*
X2067803Y1657063*
X2071740*
X2067803Y1660063D02*
Y1658700D01*
X2069490Y1658563*
X2069303Y1658700*
X2069115Y1659109*
Y1659518*
X2069303Y1659927*
X2069678Y1660200*
X2070240Y1660336*
X2070615Y1660200*
X2071178Y1660063*
X2071553Y1659790*
X2071740Y1659381*
Y1658972*
X2071553Y1658563*
X2071365Y1658427*
X2070990Y1658290*
X2053140Y1915646D02*
Y1911709D01*
Y1915646D02*
X2054367D01*
X2054777Y1915459*
X2054913Y1915271*
X2055049Y1914896*
Y1914334*
X2054913Y1913959*
X2054777Y1913771*
X2054367Y1913584*
X2053140*
X2056277Y1915646D02*
X2056958Y1911709D01*
X2057640Y1915646D02*
X2056958Y1911709D01*
X2057640Y1915646D02*
X2058322Y1911709D01*
X2059004Y1915646D02*
X2058322Y1911709D01*
X2060231Y1915646D02*
Y1911709D01*
Y1915646D02*
X2061458D01*
X2061867Y1915459*
X2062004Y1915271*
X2062140Y1914896*
Y1914521*
X2062004Y1914146*
X2061867Y1913959*
X2061458Y1913771*
X2060231*
X2061186D02*
X2062140Y1911709D01*
X1999386Y1916509D02*
X1999249Y1916884D01*
X1998977Y1917259*
X1998704Y1917446*
X1998158*
X1997886Y1917259*
X1997613Y1916884*
X1997477Y1916509*
X1997340Y1915946*
Y1915009*
X1997477Y1914446*
X1997613Y1914071*
X1997886Y1913696*
X1998158Y1913509*
X1998704*
X1998977Y1913696*
X1999249Y1914071*
X1999386Y1914446*
X2001431Y1917446D02*
X2001158Y1917259D01*
X2000886Y1916884*
X2000749Y1916509*
X2000613Y1915946*
Y1915009*
X2000749Y1914446*
X2000886Y1914071*
X2001158Y1913696*
X2001431Y1913509*
X2001977*
X2002249Y1913696*
X2002522Y1914071*
X2002658Y1914446*
X2002795Y1915009*
Y1915946*
X2002658Y1916509*
X2002522Y1916884*
X2002249Y1917259*
X2001977Y1917446*
X2001431*
X2004022D02*
Y1913509D01*
Y1917446D02*
X2005113Y1913509D01*
X2006204Y1917446D02*
X2005113Y1913509D01*
X2006204Y1917446D02*
Y1913509D01*
X2006531Y1688319D02*
Y1685507D01*
X2006668Y1684944*
X2006941Y1684569*
X2007350Y1684382*
X2007622*
X2008031Y1684569*
X2008304Y1684944*
X2008441Y1685507*
Y1688319*
X2011577Y1687757D02*
X2011304Y1688132D01*
X2010895Y1688319*
X2010350*
X2009941Y1688132*
X2009668Y1687757*
Y1687382*
X2009804Y1687007*
X2009941Y1686819*
X2010213Y1686632*
X2011031Y1686257*
X2011304Y1686069*
X2011441Y1685882*
X2011577Y1685507*
Y1684944*
X2011304Y1684569*
X2010895Y1684382*
X2010350*
X2009941Y1684569*
X2009668Y1684944*
X2012804Y1688319D02*
Y1684382D01*
Y1688319D02*
X2014577D01*
X2012804Y1686444D02*
X2013895D01*
X2012804Y1684382D02*
X2014577D01*
X2015804Y1688319D02*
Y1684382D01*
Y1688319D02*
X2017031D01*
X2017441Y1688132*
X2017577Y1687944*
X2017713Y1687569*
Y1687194*
X2017577Y1686819*
X2017441Y1686632*
X2017031Y1686444*
X2015804*
X2016759D02*
X2017713Y1684382D01*
X2062984Y1688449D02*
Y1684512D01*
Y1688449D02*
X2064212D01*
X2064621Y1688262*
X2064757Y1688074*
X2064893Y1687699*
Y1687324*
X2064757Y1686949*
X2064621Y1686762*
X2064212Y1686574*
X2062984*
X2063939D02*
X2064893Y1684512D01*
X2068030Y1687887D02*
X2067757Y1688262D01*
X2067348Y1688449*
X2066802*
X2066393Y1688262*
X2066121Y1687887*
Y1687512*
X2066257Y1687137*
X2066393Y1686949*
X2066666Y1686762*
X2067484Y1686387*
X2067757Y1686199*
X2067893Y1686012*
X2068030Y1685637*
Y1685074*
X2067757Y1684699*
X2067348Y1684512*
X2066802*
X2066393Y1684699*
X2066121Y1685074*
X2070212Y1688449D02*
Y1684512D01*
X2069257Y1688449D02*
X2071166D01*
X1972740Y1663046D02*
Y1659109D01*
Y1663046D02*
X1973967D01*
X1974377Y1662859*
X1974513Y1662671*
X1974649Y1662296*
Y1661734*
X1974513Y1661359*
X1974377Y1661171*
X1973967Y1660984*
X1972740*
X1977922Y1662109D02*
X1977786Y1662484D01*
X1977513Y1662859*
X1977240Y1663046*
X1976695*
X1976422Y1662859*
X1976149Y1662484*
X1976013Y1662109*
X1975877Y1661546*
Y1660609*
X1976013Y1660046*
X1976149Y1659671*
X1976422Y1659296*
X1976695Y1659109*
X1977240*
X1977513Y1659296*
X1977786Y1659671*
X1977922Y1660046*
X1979831Y1663046D02*
X1979422Y1662859D01*
X1979286Y1662484*
Y1662109*
X1979422Y1661734*
X1979695Y1661546*
X1980240Y1661359*
X1980649Y1661171*
X1980922Y1660796*
X1981058Y1660421*
Y1659859*
X1980922Y1659484*
X1980786Y1659296*
X1980377Y1659109*
X1979831*
X1979422Y1659296*
X1979286Y1659484*
X1979149Y1659859*
Y1660421*
X1979286Y1660796*
X1979558Y1661171*
X1979967Y1661359*
X1980513Y1661546*
X1980786Y1661734*
X1980922Y1662109*
Y1662484*
X1980786Y1662859*
X1980377Y1663046*
X1979831*
X2094540D02*
Y1659109D01*
Y1663046D02*
X2095767D01*
X2096177Y1662859*
X2096313Y1662671*
X2096449Y1662296*
Y1661734*
X2096313Y1661359*
X2096177Y1661171*
X2095767Y1660984*
X2094540*
X2099722Y1662109D02*
X2099586Y1662484D01*
X2099313Y1662859*
X2099040Y1663046*
X2098495*
X2098222Y1662859*
X2097949Y1662484*
X2097813Y1662109*
X2097677Y1661546*
Y1660609*
X2097813Y1660046*
X2097949Y1659671*
X2098222Y1659296*
X2098495Y1659109*
X2099040*
X2099313Y1659296*
X2099586Y1659671*
X2099722Y1660046*
X2102722Y1661734D02*
X2102586Y1661171D01*
X2102313Y1660796*
X2101904Y1660609*
X2101767*
X2101358Y1660796*
X2101086Y1661171*
X2100949Y1661734*
Y1661921*
X2101086Y1662484*
X2101358Y1662859*
X2101767Y1663046*
X2101904*
X2102313Y1662859*
X2102586Y1662484*
X2102722Y1661734*
Y1660796*
X2102586Y1659859*
X2102313Y1659296*
X2101904Y1659109*
X2101631*
X2101222Y1659296*
X2101086Y1659671*
X2089740Y1800896D02*
X2090013Y1801084D01*
X2090422Y1801646*
Y1797709*
G54D63*
X2003335Y1903661D02*
Y1904094D01*
X2003020Y1904409*
X2003374Y1904764*
X2003059Y1905079*
X2003374Y1905394*
Y1905945*
X1992639Y1737708D02*
Y1738141D01*
X1992324Y1738456*
X1992678Y1738810*
X1992363Y1739125*
X1992678Y1739440*
Y1739991*
X2082639Y1761108D02*
Y1761541D01*
X2082324Y1761856*
X2082678Y1762210*
X2082363Y1762525*
X2082678Y1762840*
Y1763391*
X2057341Y1932207D02*
X2056908D01*
X2056593Y1931892*
X2056239Y1932246*
X2055924Y1931931*
X2055609Y1932246*
X2055057*
X2034541Y1938207D02*
X2034108D01*
X2033793Y1937892*
X2033439Y1938246*
X2033124Y1937931*
X2032809Y1938246*
X2032257*
X2042941Y1938207D02*
X2042508D01*
X2042193Y1937892*
X2041839Y1938246*
X2041524Y1937931*
X2041209Y1938246*
X2040657*
X2038741Y1938207D02*
X2038308D01*
X2037993Y1937892*
X2037639Y1938246*
X2037324Y1937931*
X2037009Y1938246*
X2036457*
X2078941Y1877007D02*
X2078508D01*
X2078193Y1876692*
X2077839Y1877046*
X2077524Y1876731*
X2077209Y1877046*
X2076657*
X2071239Y1875708D02*
Y1876141D01*
X2070924Y1876456*
X2071278Y1876810*
X2070963Y1877125*
X2071278Y1877440*
Y1877991*
X2071239Y1871508D02*
Y1871941D01*
X2070924Y1872256*
X2071278Y1872610*
X2070963Y1872925*
X2071278Y1873240*
Y1873791*
G54D64*
X1999575Y1903209D02*
Y1906634D01*
X2006465*
Y1903209*
X1999575*
X1988879Y1737255D02*
Y1740680D01*
X1995769*
Y1737255*
X1988879*
X2078879Y1760655D02*
Y1764080D01*
X2085769*
Y1760655*
X2078879*
X2057794Y1928447D02*
X2054369D01*
Y1935337*
X2057794*
Y1928447*
X2034994Y1934447D02*
X2031569D01*
Y1941337*
X2034994*
Y1934447*
X2043394D02*
X2039969D01*
Y1941337*
X2043394*
Y1934447*
X2039194D02*
X2035769D01*
Y1941337*
X2039194*
Y1934447*
X2079394Y1873247D02*
X2075969D01*
Y1880137*
X2079394*
Y1873247*
X2067479Y1875255D02*
Y1878680D01*
X2074369*
Y1875255*
X2067479*
Y1871055D02*
Y1874480D01*
X2074369*
Y1871055*
X2067479*
G74*
X0Y0D02*
M02*
